<svg xmlns="http://www.w3.org/2000/svg" xmlns:xlink="http://www.w3.org/1999/xlink" width="90.328" height="86.73" viewBox="0 0 90.328 86.73"><defs><style>.a{fill:url(#a);}.b{fill:#fff;}.c,.k{fill:#97c8ff;}.c{opacity:0.4;}.d{fill:url(#c);}.e{fill:#037bff;}.f{fill:#e0e0e0;}.g{fill:#f5f5f5;}.h{fill:#6c63ff;}.h,.i{opacity:0.2;}.i,.j{fill:#27eb8b;}</style><linearGradient id="a" x1="0.5" y1="1" x2="0.5" gradientUnits="objectBoundingBox"><stop offset="0" stop-color="#97c8ff"/><stop offset="0.54" stop-color="#97c8ff"/><stop offset="1" stop-color="#97c8ff"/></linearGradient><linearGradient id="c" y1="0.5" x2="1" y2="0.5" gradientUnits="objectBoundingBox"><stop offset="0" stop-color="gray" stop-opacity="0.251"/><stop offset="0.54" stop-color="gray" stop-opacity="0.122"/><stop offset="1" stop-color="gray" stop-opacity="0.102"/></linearGradient></defs><rect class="a" width="76.451" height="86.73" transform="translate(13.877)"/><rect class="b" width="74.01" height="83.518" transform="translate(15.034 1.671)"/><rect class="c" width="42.016" height="26.726" transform="translate(7.581 15.419)"/><rect class="a" width="48.183" height="27.368" transform="translate(0 11.692)"/><rect class="b" width="47.027" height="22.743" transform="translate(0.514 15.676)"/><rect class="d" width="16.318" height="17.218" transform="translate(3.726 17.603)"/><rect class="e" width="15.419" height="16.447" transform="translate(4.24 17.989)"/><path class="b" d="M281.63,243.691a10.9,10.9,0,0,0-.662-2.87,4.746,4.746,0,0,0-1.811-2.273,2.071,2.071,0,0,0-1-.345,1.887,1.887,0,0,0-1.6.98,4.573,4.573,0,0,0-.3.606,1.412,1.412,0,0,0-1.171,1.293,3.6,3.6,0,0,0,.509,6.8v.613a3.612,3.612,0,0,0-2.7,3.483v1.671h7.2v-1.673a3.612,3.612,0,0,0-2.7-3.483v-.613a3.6,3.6,0,0,0,2.7-3.484v-.025l.405.9a4.887,4.887,0,0,1,.629,2.709A6.82,6.82,0,0,0,281.63,243.691Z" transform="translate(-265.375 -219.208)"/><path class="e" d="M0,0H47.027V3.469H0Z" transform="translate(0.514 12.206)"/><rect class="f" width="17.86" height="1.156" transform="translate(25.955 22.806)"/><rect class="g" width="17.86" height="1.156" transform="translate(25.955 27.69)"/><rect class="h" width="10.536" height="1.156" transform="translate(25.827 25.248)"/><rect class="i" width="7.195" height="1.156" transform="translate(25.827 30.13)"/><rect class="j" width="7.195" height="1.156" transform="translate(34.306 30.13)"/><rect class="k" width="62.061" height="2.184" transform="translate(21.329 48.312)"/><rect class="k" width="20.687" height="2.184" transform="translate(21.329 53.066)"/><rect class="j" width="20.687" height="2.184" transform="translate(62.703 53.066)"/><rect class="k" width="62.061" height="2.184" transform="translate(21.329 57.82)"/><rect class="k" width="62.061" height="2.184" transform="translate(21.329 62.575)"/><rect class="e" width="6.168" height="2.184" transform="translate(21.329 67.328)"/><rect class="j" width="6.168" height="2.184" transform="translate(49.083 67.328)"/><rect class="j" width="6.168" height="2.184" transform="translate(77.222 67.328)"/><rect class="e" width="35.206" height="6.297" transform="translate(48.183 75.295)"/><rect class="a" width="23.256" height="17.732" transform="translate(60.904 10.536)"/><rect class="e" width="21.587" height="15.419" transform="translate(61.804 11.692)"/></svg>