<svg xmlns="http://www.w3.org/2000/svg" width="111.73" height="78.965" viewBox="0 0 111.73 78.965"><defs><style>.a{fill:#ecf5ff;}.b{fill:#3f3d56;}.c{opacity:0.1;}.d{fill:#97c8ff;}.e{fill:#037bff;}.f{fill:#fff065;}.g{fill:#ff6584;}.h{fill:#36ce00;}</style></defs><g transform="translate(0)"><path class="a" d="M484.77,124.418a50.374,50.374,0,0,0-60.693-.914c-9.56,7.074-16.972,17.9-15.623,34.376a39.818,39.818,0,0,0,3.738,14.525c7.838,15.869,40.032,15.258,41.82,15.256q1.738,0,3.475.078a76.215,76.215,0,0,1,12.069,1.526c5.669,1.182,12.886,1.775,19.334-.463a22.412,22.412,0,0,0,3.184-1.384c3.543-1.883,7.51-3.683,9.829-8.149a36.812,36.812,0,0,0,3.624-12.791C507.751,147.412,496.638,133.566,484.77,124.418Z" transform="translate(-400.57 -113.785)"/><ellipse class="b" cx="50.952" cy="4.783" rx="50.952" ry="4.783" transform="translate(6.043 69.4)"/><ellipse class="c" cx="47.389" cy="2.245" rx="47.389" ry="2.245" transform="translate(7.116 71.938)"/><path class="d" d="M854.835,73.342v5.366h-6.986v58.518h14.579V73.342Z" transform="translate(-774.113 -63.215)"/><path class="d" d="M543.359,276.852v-9.213H534.45v9.213h-3.341V304.8H546.6V276.852Z" transform="translate(-501.11 -230.682)"/><rect class="e" width="12.048" height="13.06" transform="translate(31.721 61.154)"/><rect class="c" width="1.924" height="13.06" transform="translate(31.721 61.154)"/><path class="e" d="M666.37,52.079v3.139H648.552V52.079h-5.265V119.1h28.247V52.079Z" transform="translate(-597.798 -44.888)"/><rect class="c" width="3.948" height="3.139" transform="translate(68.572 7.191)"/><rect class="c" width="3.948" height="67.023" transform="translate(45.489 7.191)"/><path class="e" d="M451.249,174.854v-2.531h-2.632v2.531h-4.759v47.888h12.048V174.854Z" transform="translate(-425.907 -148.528)"/><rect class="c" width="1.417" height="2.531" transform="translate(22.71 23.795)"/><rect class="c" width="1.417" height="47.888" transform="translate(17.951 26.326)"/><rect class="c" width="3.948" height="41.206" transform="translate(68.572 33.008)"/><rect class="c" width="3.645" height="8.808" transform="translate(26.354 26.326)"/><rect class="f" width="5.67" height="2.43" transform="translate(49.843 15.696)"/><rect class="f" width="5.67" height="2.43" transform="translate(61.891 40.703)"/><rect class="f" width="5.67" height="2.43" transform="translate(49.843 58.218)"/><rect class="f" width="5.67" height="2.43" transform="translate(21.19 37.26)"/><rect class="f" width="5.67" height="2.43" transform="translate(34.96 62.571)"/><rect class="c" width="9.719" height="4.05" transform="translate(32.935 48.296)"/><rect class="c" width="9.719" height="4.05" transform="translate(75.457 20.15)"/><rect class="c" width="9.719" height="4.05" transform="translate(75.457 28.756)"/><rect class="c" width="9.719" height="4.05" transform="translate(75.457 37.362)"/><rect class="c" width="9.719" height="4.05" transform="translate(75.457 45.967)"/><rect class="c" width="9.719" height="4.05" transform="translate(75.457 54.573)"/><rect class="c" width="9.719" height="4.05" transform="translate(75.457 63.179)"/><path class="e" d="M917.588,209.753V198.718H910.5v11.035H907.97v35.739h12.048V209.753Z" transform="translate(-825.932 -171.278)"/><rect class="c" width="2.227" height="11.035" transform="translate(84.569 27.44)"/><rect class="c" width="2.227" height="35.739" transform="translate(82.038 38.475)"/><rect class="c" width="5.973" height="3.543" transform="translate(88.112 56.395)"/><rect class="g" width="5.67" height="2.43" transform="translate(88.314 51.131)"/><path class="h" d="M1011.984,373.909c0,9.02-5.362,12.169-11.977,12.169s-11.977-3.149-11.977-12.169,11.977-20.494,11.977-20.494S1011.984,364.89,1011.984,373.909Z" transform="translate(-900.254 -320.326)"/><path class="b" d="M1003.06,270.914l.121-7.549,5.1-9.339-5.086,8.155.055-3.394,3.518-6.757-3.5,5.859h0l.1-6.1,3.767-5.379-3.752,4.419.062-11.194-.389,14.819.032-.611-3.831-5.863,3.77,7.037-.358,6.818-.011-.181-4.415-6.17,4.4,6.809-.046.853-.008.013,0,.07-.9,17.3h1.21l.145-8.935,4.391-6.792Z" transform="translate(-903.742 -206.541)"/><path class="h" d="M376.311,374.617c0,9.02-5.362,12.169-11.977,12.169s-11.977-3.149-11.977-12.169,11.977-20.495,11.977-20.495S376.311,365.6,376.311,374.617Z" transform="translate(-352.357 -320.935)"/><path class="b" d="M367.387,271.621l.123-7.549,5.1-9.339-5.086,8.155.055-3.394,3.518-6.757-3.5,5.858h0l.1-6.1,3.767-5.379-3.752,4.419.062-11.194-.39,14.819.032-.611-3.83-5.863,3.769,7.036L367,262.536l-.011-.181-4.416-6.17,4.4,6.809-.045.853-.008.013,0,.07-.905,17.3h1.21l.145-8.934,4.392-6.792Z" transform="translate(-355.846 -207.15)"/></g></svg>