<svg xmlns="http://www.w3.org/2000/svg" width="57.143" height="50" viewBox="0 0 57.143 50"><defs><style>.a{fill:#d9ebff;}</style></defs><path class="a" d="M5.357,2.25A5.359,5.359,0,0,0,0,7.607V46.893A5.359,5.359,0,0,0,5.357,52.25H51.786a5.359,5.359,0,0,0,5.357-5.357V7.607A5.359,5.359,0,0,0,51.786,2.25Zm0,3.571h11.83a.672.672,0,0,1,.67.67V8.723a.672.672,0,0,1-.67.67H4.241a.672.672,0,0,1-.67-.67V7.607A1.791,1.791,0,0,1,5.357,5.821ZM52.9,16.536H4.241a.672.672,0,0,1-.67-.67V11.848a.672.672,0,0,1,.67-.67h15.4l3.371-5.056a.665.665,0,0,1,.558-.3H51.786a1.791,1.791,0,0,1,1.786,1.786v8.259A.672.672,0,0,1,52.9,16.536ZM28.571,46A13.393,13.393,0,1,1,41.964,32.607,13.4,13.4,0,0,1,28.571,46Zm0-23.214a9.821,9.821,0,1,0,9.821,9.821A9.836,9.836,0,0,0,28.571,22.786ZM23.214,34.393a1.791,1.791,0,0,1-1.786-1.786,7.149,7.149,0,0,1,7.143-7.143,1.786,1.786,0,1,1,0,3.571A3.582,3.582,0,0,0,25,32.607,1.791,1.791,0,0,1,23.214,34.393Z" transform="translate(0 -2.25)"/></svg>