<svg xmlns="http://www.w3.org/2000/svg" width="25.334" height="25.334" viewBox="0 0 25.334 25.334"><defs><style>.a{fill:none;stroke:#fff;stroke-width:2px;}</style></defs><path class="a" d="M10.167,0,8.712,3.462A4.147,4.147,0,0,0,7.9,3.84L4.436,2.386,2.341,4.481,3.8,7.943c-.145.291-.262.524-.378.815L-.045,10.212v2.909l3.462,1.455c.116.291.233.524.378.815L2.341,18.853l2.095,2.095L7.9,19.493c.262.116.524.262.815.378l1.455,3.462h2.909l1.455-3.462c.262-.116.553-.233.815-.378l3.462,1.455L20.9,18.853l-1.455-3.462c.116-.262.262-.553.378-.815l3.462-1.455V10.212L19.826,8.757a5.1,5.1,0,0,0-.378-.815L20.9,4.481,18.808,2.386,15.346,3.84c-.262-.116-.553-.262-.815-.378L13.076,0H10.167Zm1.455,7.274a4.364,4.364,0,1,1-4.364,4.364A4.358,4.358,0,0,1,11.622,7.274Z" transform="translate(1.045 1)"/></svg>