<svg xmlns="http://www.w3.org/2000/svg" width="118.236" height="107.339" viewBox="0 0 118.236 107.339"><defs><style>.a{fill:#ccc;}.b{fill:#037bff;}.c{opacity:0.1;}.d{fill:#f2f2f2;}.e{fill:#fff;}.f{fill:#97c8ff;}.g{fill:#3f3d56;}</style></defs><g transform="translate(0)"><path class="a" d="M729.4,305.705c-9.32-6.968-23.918-13.557-40.05-18.079-14.688-4.117-29.015-6.1-40.344-5.6l-.059-1.317c11.464-.513,25.939,1.491,40.759,5.645,16.283,4.564,31.039,11.231,40.484,18.292Z" transform="translate(-628.293 -253.365)"/><path class="b" d="M710.035,281.986a43.885,43.885,0,0,1-3.8,17.918q-.314.708-.655,1.4a44.052,44.052,0,0,1-83.639-19.321q0-1.529.1-3.034.05-.766.128-1.522a44.048,44.048,0,0,1,87.86,4.556Z" transform="translate(-609.898 -224.279)"/><path class="c" d="M706.46,384.3q-.315.708-.655,1.4-1.931.21-4.064.3c-1.178.053-2.39.079-3.628.079-10.816,0-23.834-2-37.132-5.723-14.82-4.154-28.228-9.964-37.754-16.362q-.487-.326-.956-.654.049-.766.128-1.522.758.54,1.563,1.081c9.415,6.321,22.688,12.069,37.376,16.186,13.182,3.7,26.077,5.675,36.769,5.675q1.834,0,3.575-.078Q704.216,384.579,706.46,384.3Z" transform="translate(-610.122 -308.678)"/><path class="a" d="M672.152,329.89c-10.816,0-23.834-2-37.132-5.724-14.82-4.154-28.228-9.964-37.755-16.361-9.726-6.531-14.286-12.966-12.841-18.119s8.685-8.281,20.388-8.806l.059,1.317a40.62,40.62,0,0,0-13.238,2.414c-3.311,1.354-5.309,3.181-5.94,5.43s.127,4.848,2.252,7.726A40.623,40.623,0,0,0,598,306.71c9.413,6.321,22.687,12.07,37.376,16.187,13.182,3.695,26.076,5.675,36.769,5.675q1.833,0,3.574-.078a40.625,40.625,0,0,0,13.238-2.414c3.311-1.354,5.309-3.181,5.94-5.43,1.132-4.039-2.289-9.286-9.632-14.776l.79-1.056a34.467,34.467,0,0,1,8.314,8.277c1.863,2.859,2.468,5.521,1.8,7.912-1.445,5.154-8.685,8.281-20.388,8.806C674.6,329.864,673.39,329.89,672.152,329.89Z" transform="translate(-584.161 -253.533)"/><circle class="d" cx="0.505" cy="0.505" r="0.505" transform="translate(56.75 4.707)"/><circle class="a" cx="1.143" cy="1.143" r="1.143" transform="translate(90.265 7.097)"/><circle class="a" cx="1.856" cy="1.856" r="1.856" transform="translate(12.278 92.796)"/><circle class="a" cx="0.796" cy="0.796" r="0.796" transform="translate(116.644 25.246)"/><circle class="a" cx="1.242" cy="1.242" r="1.242" transform="translate(19.504 14.569)"/><circle class="a" cx="0.796" cy="0.796" r="0.796" transform="translate(113.856 51.128)"/><path class="a" d="M672.132,363.359H670.8v-1.33h-.713v1.33h-1.33v.714h1.33v1.33h.713v-1.33h1.331Z" transform="translate(-579.29 -258.063)"/><circle class="c" cx="3.701" cy="3.701" r="3.701" transform="translate(53.049 19.516)"/><circle class="c" cx="3.701" cy="3.701" r="3.701" transform="translate(24.616 46.603)"/><circle class="c" cx="3.701" cy="3.701" r="3.701" transform="translate(65.499 83.784)"/><circle class="c" cx="3.701" cy="3.701" r="3.701" transform="translate(53.049 52.323)"/><circle class="c" cx="3.701" cy="3.701" r="3.701" transform="translate(26.467 72.68)"/><circle class="c" cx="3.701" cy="3.701" r="3.701" transform="translate(72.901 32.471)"/><circle class="c" cx="3.701" cy="3.701" r="3.701" transform="translate(85.183 57.539)"/><circle class="e" cx="4.879" cy="4.879" r="4.879" transform="translate(51.871 34.994)"/><path class="f" d="M747.448,298.01a6.9,6.9,0,0,0-6.9,6.9c0,3.81,6.9,16.319,6.9,16.319s6.9-12.51,6.9-16.319A6.9,6.9,0,0,0,747.448,298.01Zm0,10.263a3.2,3.2,0,1,1,3.2-3.2,3.2,3.2,0,0,1-3.2,3.2Z" transform="translate(-690.698 -265.203)"/><circle class="e" cx="4.879" cy="4.879" r="4.879" transform="translate(25.289 55.856)"/><path class="f" d="M664.058,363.455a6.9,6.9,0,0,0-6.9,6.9c0,3.81,6.9,16.319,6.9,16.319s6.9-12.51,6.9-16.319A6.9,6.9,0,0,0,664.058,363.455Zm0,10.263a3.2,3.2,0,1,1,3.2-3.2,3.2,3.2,0,0,1-3.2,3.2Z" transform="translate(-633.891 -309.786)"/><circle class="e" cx="4.879" cy="4.879" r="4.879" transform="translate(84.005 40.714)"/><path class="f" d="M848.254,315.955a6.9,6.9,0,0,0-6.9,6.9c0,3.81,6.9,16.319,6.9,16.319s6.9-12.51,6.9-16.319A6.9,6.9,0,0,0,848.254,315.955Zm0,10.263a3.2,3.2,0,1,1,3.2-3.2,3.2,3.2,0,0,1-3.2,3.2Z" transform="translate(-759.37 -277.428)"/><circle class="e" cx="4.879" cy="4.879" r="4.879" transform="translate(51.871 2.187)"/><path class="f" d="M747.448,195.093a6.9,6.9,0,0,0-6.9,6.9c0,3.81,6.9,16.319,6.9,16.319s6.9-12.51,6.9-16.319A6.9,6.9,0,0,0,747.448,195.093Zm0,10.263a3.2,3.2,0,1,1,3.2-3.2,3.2,3.2,0,0,1-3.2,3.2Z" transform="translate(-690.698 -195.093)"/><circle class="e" cx="4.879" cy="4.879" r="4.879" transform="translate(64.321 66.96)"/><path class="g" d="M786.5,398.289a6.9,6.9,0,0,0-6.9,6.9c0,3.81,6.9,16.319,6.9,16.319s6.9-12.51,6.9-16.319A6.9,6.9,0,0,0,786.5,398.289Zm0,10.263a3.2,3.2,0,1,1,3.2-3.2A3.2,3.2,0,0,1,786.5,408.552Z" transform="translate(-717.304 -333.516)"/><circle class="e" cx="4.879" cy="4.879" r="4.879" transform="translate(23.438 29.442)"/><path class="g" d="M658.253,280.593a6.9,6.9,0,0,0-6.9,6.9c0,3.81,6.9,16.319,6.9,16.319s6.9-12.51,6.9-16.319A6.9,6.9,0,0,0,658.253,280.593Zm0,10.263a3.2,3.2,0,1,1,3.2-3.2A3.2,3.2,0,0,1,658.253,290.856Z" transform="translate(-629.936 -253.338)"/><circle class="e" cx="4.879" cy="4.879" r="4.879" transform="translate(71.724 15.815)"/><path class="g" d="M809.726,237.843a6.9,6.9,0,0,0-6.9,6.9c0,3.81,6.9,16.319,6.9,16.319s6.9-12.51,6.9-16.319a6.9,6.9,0,0,0-6.9-6.9Zm0,10.263a3.2,3.2,0,1,1,3.2-3.2,3.2,3.2,0,0,1-3.2,3.2h0Z" transform="translate(-733.124 -224.215)"/></g></svg>