<svg xmlns="http://www.w3.org/2000/svg" width="96.288" height="76.501" viewBox="0 0 96.288 76.501"><defs><style>.a{fill:#1262ba;}.b{fill:#0d3663;}.c{fill:#00c12d;}.d{fill:#008f21;}</style></defs><g transform="translate(-1749.204 -63.667)"><g transform="translate(677 -47.399)"><g transform="translate(1096.866 111.066)"><path class="a" d="M13.845,50.927h0L0,48.236V0L13.845,2.691Z" transform="translate(25.463 0) rotate(30)"/><path class="b" d="M1134.5,124.063l-11.537,0,6.143,9.384Z" transform="translate(-1109.033 -124.063)"/></g><g transform="translate(1115.606 111.066)"><path class="c" d="M13.845,50.927h0L0,48.236V0L13.845,2.691Z" transform="translate(11.99 51.026) rotate(-150)"/><path class="d" d="M11.537,0,0,0,6.143,9.386Z" transform="translate(23.522 51.026) rotate(180)"/></g></g><path class="a" d="M-36.732-16.968V-13.7h-6.96v3.72h5.376v3.12h-5.376V0h-4.1V-16.968ZM-35-17.16a2,2,0,0,1,.672-1.548,2.536,2.536,0,0,1,1.776-.612,2.536,2.536,0,0,1,1.776.612,2,2,0,0,1,.672,1.548,1.977,1.977,0,0,1-.672,1.524,2.536,2.536,0,0,1-1.776.612,2.536,2.536,0,0,1-1.776-.612A1.977,1.977,0,0,1-35-17.16Zm4.488,3.768V0h-4.1V-13.392Zm11.328-.144A4.636,4.636,0,0,1-15.528-12a6.161,6.161,0,0,1,1.356,4.224V0h-4.1V-7.3a2.952,2.952,0,0,0-.708-2.1,2.459,2.459,0,0,0-1.884-.756,2.565,2.565,0,0,0-1.98.792A3.2,3.2,0,0,0-23.58-7.1V0h-4.1V-13.392h4.1v2.448a4.417,4.417,0,0,1,1.716-1.9A5.033,5.033,0,0,1-19.188-13.536Zm12.816-.024a4.848,4.848,0,0,1,2.64.7,4.184,4.184,0,0,1,1.632,1.9v-2.424H1.98V0H-2.1V-2.424a4.184,4.184,0,0,1-1.632,1.9,4.848,4.848,0,0,1-2.64.7A5.424,5.424,0,0,1-9.336-.66,5.665,5.665,0,0,1-11.4-3.048,8.276,8.276,0,0,1-12.156-6.7a8.257,8.257,0,0,1,.756-3.66,5.678,5.678,0,0,1,2.064-2.376A5.424,5.424,0,0,1-6.372-13.56Zm1.32,3.6A2.765,2.765,0,0,0-7.176-9.1a3.387,3.387,0,0,0-.8,2.4,3.387,3.387,0,0,0,.8,2.4,2.765,2.765,0,0,0,2.124.864A2.775,2.775,0,0,0-2.928-4.32,3.344,3.344,0,0,0-2.1-6.7a3.335,3.335,0,0,0-.828-2.388A2.793,2.793,0,0,0-5.052-9.96Zm18.36-3.576A4.636,4.636,0,0,1,16.968-12a6.161,6.161,0,0,1,1.356,4.224V0h-4.1V-7.3a2.952,2.952,0,0,0-.708-2.1,2.459,2.459,0,0,0-1.884-.756,2.565,2.565,0,0,0-1.98.792A3.2,3.2,0,0,0,8.916-7.1V0h-4.1V-13.392h4.1v2.448a4.417,4.417,0,0,1,1.716-1.9A5.033,5.033,0,0,1,13.308-13.536Zm13.776-.024a6.651,6.651,0,0,1,4.344,1.428,6.332,6.332,0,0,1,2.208,3.924H29.292A2.292,2.292,0,0,0,28.5-9.552a2.344,2.344,0,0,0-1.512-.48,2.193,2.193,0,0,0-1.776.852,3.846,3.846,0,0,0-.7,2.484,3.846,3.846,0,0,0,.7,2.484,2.193,2.193,0,0,0,1.776.852A2.344,2.344,0,0,0,28.5-3.84a2.292,2.292,0,0,0,.792-1.344h4.344A6.332,6.332,0,0,1,31.428-1.26,6.651,6.651,0,0,1,27.084.168,7.2,7.2,0,0,1,23.592-.66,5.916,5.916,0,0,1,21.2-3.048,7.409,7.409,0,0,1,20.34-6.7a7.476,7.476,0,0,1,.852-3.66,5.839,5.839,0,0,1,2.388-2.376A7.267,7.267,0,0,1,27.084-13.56Zm21.408,6.5a5.662,5.662,0,0,1-.12,1.1H39.084a3.1,3.1,0,0,0,.768,2.172,2.477,2.477,0,0,0,1.776.66,2.427,2.427,0,0,0,1.512-.456,2.129,2.129,0,0,0,.792-1.176h4.344A5.676,5.676,0,0,1,47.124-2.22,6.14,6.14,0,0,1,44.868-.468,7.143,7.143,0,0,1,41.82.168,7.2,7.2,0,0,1,38.328-.66,5.916,5.916,0,0,1,35.94-3.048,7.409,7.409,0,0,1,35.076-6.7a7.476,7.476,0,0,1,.852-3.66,5.839,5.839,0,0,1,2.388-2.376,7.267,7.267,0,0,1,3.5-.828,7.265,7.265,0,0,1,3.5.816,5.765,5.765,0,0,1,2.34,2.292A6.823,6.823,0,0,1,48.492-7.056ZM44.34-7.68a2.467,2.467,0,0,0-.708-1.98,2.606,2.606,0,0,0-1.812-.66,2.688,2.688,0,0,0-1.872.672,2.813,2.813,0,0,0-.84,1.968Z" transform="translate(1797 140)"/></g></svg>