<svg xmlns="http://www.w3.org/2000/svg" width="23" height="27.182" viewBox="0 0 23 27.182"><defs><style>.a{fill:#037bff;}</style></defs><path class="a" d="M17.19,8.11a9.446,9.446,0,0,1,1.562.293,6.659,6.659,0,0,1,5.076,6.524v8.338l.609.612.509.511H9.3l.509-.511.609-.612V14.927A6.659,6.659,0,0,1,15.5,8.4,11.567,11.567,0,0,1,17.06,8.11m.065-4.735A2,2,0,0,0,15.1,5.414v.951a8.809,8.809,0,0,0-6.765,8.562V22.4L5.625,25.12V26.48h23V25.12L25.919,22.4V14.927a8.809,8.809,0,0,0-6.765-8.562V5.414a2,2,0,0,0-2.029-2.039Zm2.706,24.464H14.419a2.706,2.706,0,1,0,5.412,0Z" transform="translate(-5.625 -3.375)"/></svg>