<svg xmlns="http://www.w3.org/2000/svg" width="33" height="27.2" viewBox="0 0 33 27.2"><defs><style>.a,.b{fill:none;}.b{stroke:#fff;stroke-linecap:round;stroke-width:2px;}.c,.d{stroke:none;}.d{fill:#fff;}</style></defs><g class="a"><path class="c" d="M15.262.975a2,2,0,0,1,2.475,0l10.73,8.454A2,2,0,0,1,27.23,13H5.77A2,2,0,0,1,4.532,9.429Z"/><path class="d" d="M 16.49999046325684 2.546175003051758 L 5.770149230957031 10.99999523162842 C 5.770149230957031 10.99999523162842 5.770149230957031 10.99999523162842 5.770139694213867 10.99999523162842 L 27.22985076904297 10.99999523162842 C 27.2298526763916 10.99999523162842 27.22985649108887 10.99999523162842 27.22986030578613 10.99999523162842 L 16.50083923339844 2.546235084533691 C 16.50075912475586 2.546225547790527 16.50044059753418 2.546175003051758 16.49999046325684 2.546175003051758 M 16.4999942779541 0.546173095703125 C 16.9373607635498 0.546173095703125 17.37472534179688 0.6891803741455078 17.73773956298828 0.9751949310302734 L 28.46759986877441 9.429015159606934 C 29.95846939086914 10.60364532470703 29.12786102294922 12.99999523162842 27.22985076904297 12.99999523162842 L 5.770139694213867 12.99999523162842 C 3.872129440307617 12.99999523162842 3.041530609130859 10.60364532470703 4.532400131225586 9.429015159606934 L 15.26225090026855 0.9751949310302734 C 15.62526512145996 0.6891803741455078 16.06262969970703 0.546173095703125 16.4999942779541 0.546173095703125 Z"/></g><line class="b" y2="6.345" transform="translate(10.489 15.927)"/><line class="b" y2="6.345" transform="translate(16.674 15.927)"/><line class="b" y2="6.345" transform="translate(22.86 15.927)"/><line class="b" x2="20.093" transform="translate(6.401 26.2)"/></svg>