<svg xmlns="http://www.w3.org/2000/svg" width="217.313" height="171.522" viewBox="0 0 217.313 171.522"><defs><style>.a{fill:#e6e6e6;}.b{fill:#037bff;}.c{fill:#fff;}.d{fill:#2f2e41;}.e{fill:#9f616a;}.f{fill:#ffbe68;}.g{fill:#2cb44b;}.h{fill:none;stroke:#535461;stroke-miterlimit:10;}.i{fill:#74e58e;}</style></defs><g transform="translate(-796.833 -516.947)"><g transform="translate(815.855 516.947)"><circle class="a" cx="27.122" cy="27.122" r="27.122" transform="translate(0 0)"/><circle class="b" cx="22.601" cy="22.601" r="22.601" transform="translate(4.52 4.52)"/><circle class="a" cx="27.122" cy="27.122" r="27.122" transform="translate(72.023 0)"/><circle class="c" cx="22.601" cy="22.601" r="22.601" transform="translate(76.544 4.52)"/><circle class="a" cx="27.122" cy="27.122" r="27.122" transform="translate(144.047 0)"/><circle class="c" cx="22.601" cy="22.601" r="22.601" transform="translate(148.567 4.52)"/><path class="c" d="M73.731,83.564,67.146,75.1l3.829-2.978,3.118,4.009L84.625,65.011l3.522,3.337Z" transform="translate(-48.705 -47.156)"/><path class="d" d="M509.074,199.988c-1.781-4.3-2.07-8.362.441-11.969h0a9.056,9.056,0,0,1,9.66-8.7l1.637.111a9.021,9.021,0,0,1,7.77,5.6c3.053,7.571,3.149,17.634,2.387,28.419h-22.39C509.908,208.4,510.591,203.668,509.074,199.988Z" transform="translate(-433.892 -167.336)"/><path class="e" d="M384.806,272.9l-5.917-2.658a4.509,4.509,0,0,1-1.961-6.527h0a4.509,4.509,0,0,1,7.3-.434l2.734,3.356,12.744,11.3,8.471-5.653,3.839,6.509-13.742,8.3Z" transform="translate(-338.539 -227.053)"/><path class="f" d="M491.971,286.131l-4.671-8.939,18.19-8.1.157,1.71A9.065,9.065,0,0,1,501.908,279Z" transform="translate(-419.107 -232.469)"/><path class="e" d="M538.323,249.687,519.771,265.04l-1.066-1.493,5.118-9.169,2.346-1.066c.562-2.381-.873-5.574-2.772-8.956l8.956-1.279C532.784,245.981,534.753,248.194,538.323,249.687Z" transform="translate(-441.886 -213.599)"/><path class="d" d="M359.447,448.018l-3.092,4.585-24.629-13.967,3.412-16.846Z" transform="translate(-240.621 -305.949)"/><path class="d" d="M523.97,478.338l-5.011-2.239-1.279-58.641-4.8-31.88,18.659-3.518,3.838,8.316C544.811,403.313,531.06,442.953,523.97,478.338Z" transform="translate(-437.662 -314.412)"/><path class="d" d="M507.092,723.03l1.028,2.238a2.973,2.973,0,0,1-2.281,4.184l-13.594,1.942a2.794,2.794,0,0,1-3.081-2h0a2.794,2.794,0,0,1,1.283-3.183l11.42-5.716Z" transform="translate(-420.38 -559.9)"/><path class="d" d="M658.25,649.386l2.456-.18a2.973,2.973,0,0,1,3.122,3.6l-2.937,13.414a2.794,2.794,0,0,1-2.95,2.188h0a2.794,2.794,0,0,1-2.533-2.315l-1.359-12.7Z" transform="translate(-540.059 -508.183)"/><circle class="e" cx="8.53" cy="8.53" r="8.53" transform="translate(76.178 16.683)"/><path class="f" d="M527.4,297.169l-18.552,3.838-.426-12.368C505.74,285.8,512,274.4,514.183,269.022l2.772-.853-4.691,8.53,16.42-13.434,3.2.853.853,15.567Z" transform="translate(-433.953 -228.242)"/><path class="e" d="M552.049,348l-4.023,5.088a4.509,4.509,0,0,1-6.808.307h0a4.509,4.509,0,0,1,1.364-7.189l3.923-1.831,14.074-9.6-3.412-9.6,7.25-2.132,4.691,15.353Z" transform="translate(-457.319 -271.609)"/><path class="d" d="M545.529,218.017H530.076c.581-2.921,2.137-5.571,6.395-7.471,3.1-5.933,4.43-11.314,0-14.91-5.061-1.166-7.021-3.283-6.395-6.193l9.059-1.493C546.585,194.585,546.67,205.911,545.529,218.017Z" transform="translate(-450.053 -173.613)"/><path class="f" d="M600.252,281.313l-9.809,2.346-3.412-19.618,1.7.265a9.065,9.065,0,0,1,7.033,5.628Z" transform="translate(-491.448 -228.806)"/></g><g transform="translate(-975.041 21.933)"><path class="g" d="M935.038,397.094c4.611,16.861-15.058,64.895-15.058,64.895s-41.386-31.334-46-48.194a31.658,31.658,0,1,1,61.055-16.7Z" transform="translate(899.219 199.697)"/><path class="h" d="M936.21,378.27s25.762,38.891,23.837,87.07" transform="translate(859.335 196.439)"/><path class="i" d="M1022.986,517.656s-23.36-12.708-20.4,34.2c0,0,19.486-.7,26.4-16.592a13.781,13.781,0,0,0-5.657-17.412Z" transform="translate(817.844 109.951)"/><path class="h" d="M1023.806,520.52s-3.017,24.35-20.786,34.12" transform="translate(817.408 107.169)"/></g></g></svg>