<svg xmlns="http://www.w3.org/2000/svg" xmlns:xlink="http://www.w3.org/1999/xlink" width="1188" height="681.654" viewBox="0 0 1188 681.654"><defs><style>.a,.d{fill:#00b0ff;}.a{opacity:0.23;}.aa,.ab,.b{fill:none;}.b{stroke:#535461;stroke-miterlimit:10;stroke-width:2px;}.c{fill:#1668ff;}.e{fill:#fbd56f;}.f,.n{opacity:0.1;}.g{fill:#ffe45e;}.h{fill:#434175;}.i{fill:#2d2b50;}.j{fill:#be808b;}.k{fill:#37355d;}.l{fill:#b5717d;}.m{fill:#cce5ff;}.o{fill:#012587;}.p{fill:url(#a);}.q{fill:#002fac;}.r{opacity:0.2;}.s{fill:#0131d0;}.t,.v{fill:#2047c0;}.t,.u{opacity:0.68;}.u,.w{fill:#002aae;}.v,.w{opacity:0.95;}.x{fill:url(#b);}.y{fill:url(#c);}.z{fill:#fff;}.aa{opacity:0.56;}.ac,.ae{fill:#005bbf;}.ac{opacity:0.11;}.ad{fill:#28cbdc;}.ae{opacity:0.7;}.af,.ag{stroke:none;}.ag{fill:#4dffed;}</style><linearGradient id="a" x1="0.5" x2="0.5" y2="1" gradientUnits="objectBoundingBox"><stop offset="0" stop-color="#0083ff"/><stop offset="1" stop-color="#0032ce"/></linearGradient><linearGradient id="b" x1="0.5" x2="0.5" y2="1" gradientUnits="objectBoundingBox"><stop offset="0" stop-color="#004094"/><stop offset="1" stop-color="#002f6c"/></linearGradient><linearGradient id="c" x1="0.5" x2="0.5" y2="1" gradientUnits="objectBoundingBox"><stop offset="0" stop-color="#004094"/><stop offset="1" stop-color="#001d43"/></linearGradient></defs><g transform="translate(22 -370.932)"><g transform="translate(-22 132.622)"><ellipse class="a" cx="594" cy="82.2" rx="594" ry="82.2" transform="translate(0 693.176)"/><path class="b" d="M997.486,825.215s30.98-39.421,28.475-78.534a75.965,75.965,0,0,1,11.955-46.541,127.774,127.774,0,0,1,14.557-18.276" transform="translate(18.887 -24.45)"/><path class="c" d="M1047.932,659.056c-2.184,5.475,1.394,25.306,1.394,25.306s16.247-11.921,18.432-17.4a10.673,10.673,0,0,0-19.825-7.91Z" transform="translate(22.002 -26.299)"/><path class="c" d="M1021.092,681.8c1.142,5.782,14.924,20.484,14.924,20.484s7.159-18.837,6.017-24.619a10.673,10.673,0,1,0-20.941,4.135Z" transform="translate(20.353 -25.252)"/><path class="c" d="M1002.448,731.127c3.9,4.415,23.223,10.149,23.223,10.149s-3.329-19.874-7.234-24.29a10.672,10.672,0,1,0-15.989,14.141Z" transform="translate(19.03 -22.476)"/><path class="c" d="M996.531,771.345c3.1,5.012,21.174,13.927,21.174,13.927s.077-20.151-3.025-25.163a10.672,10.672,0,1,0-18.149,11.235Z" transform="translate(18.727 -19.868)"/><path class="c" d="M1055.8,710.346c-5.449,2.248-25.32-1.1-25.32-1.1s11.731-16.385,17.18-18.633a10.673,10.673,0,0,1,8.14,19.732Z" transform="translate(20.953 -23.953)"/><path class="c" d="M1048.264,757.438c-5.872.514-23.831-8.625-23.831-8.625s16.1-12.124,21.968-12.638a10.673,10.673,0,1,1,1.864,21.264Z" transform="translate(20.575 -21.052)"/><path class="c" d="M1034.82,802.154c-5.7,1.5-24.946-4.474-24.946-4.474s13.816-14.669,19.516-16.169a10.673,10.673,0,0,1,5.43,20.643Z" transform="translate(19.663 -18.233)"/><path class="b" d="M997.733,821.633s44.3-23.486,57.856-60.258a75.963,75.963,0,0,1,29.789-37.7,127.749,127.749,0,0,1,20.714-10.81" transform="translate(18.903 -22.509)"/><path class="d" d="M1108.409,691.28c-4.215,4.12-8.98,23.7-8.98,23.7s19.684-4.314,23.9-8.434a10.672,10.672,0,1,0-14.919-15.265Z" transform="translate(25.27 -24.051)"/><path class="d" d="M1074.31,701.194c-1.3,5.749,5.343,24.774,5.343,24.774s14.178-14.32,15.477-20.069a10.673,10.673,0,1,0-20.82-4.705Z" transform="translate(23.687 -23.761)"/><path class="d" d="M1037.29,738.741c1.781,5.619,17.118,18.689,17.118,18.689s5.01-19.518,3.229-25.137a10.673,10.673,0,0,0-20.348,6.448Z" transform="translate(21.348 -21.759)"/><path class="d" d="M1015.576,773.109c.806,5.839,13.714,21.313,13.714,21.313s8.237-18.391,7.431-24.23a10.673,10.673,0,0,0-21.145,2.917Z" transform="translate(20.014 -19.497)"/><path class="d" d="M1094.638,741.109c-5.892-.153-22.7-11.266-22.7-11.266s17.364-10.225,23.256-10.072a10.673,10.673,0,1,1-.554,21.338Z" transform="translate(23.549 -22.077)"/><path class="d" d="M1068.508,781.062c-5.577-1.909-18.292-17.542-18.292-17.542s19.628-4.561,25.2-2.652a10.673,10.673,0,1,1-6.913,20.195Z" transform="translate(22.189 -19.533)"/><path class="d" d="M1038.177,816.511c-5.819-.939-20.993-14.2-20.993-14.2s18.575-7.813,24.394-6.873a10.673,10.673,0,0,1-3.4,21.073Z" transform="translate(20.121 -17.344)"/><ellipse class="e" cx="39.908" cy="42.361" rx="39.908" ry="42.361" transform="translate(536.625 648.269)"/><ellipse class="f" cx="39.908" cy="42.361" rx="39.908" ry="42.361" transform="translate(536.625 648.269)"/><ellipse class="g" cx="39.908" cy="41.418" rx="39.908" ry="41.418" transform="translate(543.513 650.156)"/><path class="e" d="M605.586,749.526l-4.151-2.311s-1.942,8.1-1.307,13.877a2.876,2.876,0,0,0,2.162,2.485c9.55,2.372,55.065,12.476,86.364-1.756a2.871,2.871,0,0,0,1.663-2.308c.384-3.549-.975-10.871-1.518-12.3C687.631,744.144,605.586,749.526,605.586,749.526Z" transform="translate(-6 -20.418)"/><path class="f" d="M605.586,749.526l-4.151-2.311s-1.942,8.1-1.307,13.877a2.876,2.876,0,0,0,2.162,2.485c9.55,2.372,55.065,12.476,86.364-1.756a2.871,2.871,0,0,0,1.663-2.308c.384-3.549-.975-10.871-1.518-12.3C687.631,744.144,605.586,749.526,605.586,749.526Z" transform="translate(-6 -20.418)"/><ellipse class="g" cx="43.682" cy="9.847" rx="43.682" ry="9.847" transform="translate(595.434 716.95)"/><path class="e" d="M621.291,735.854l-4.151-2.311s-1.942,8.1-1.307,13.877a2.876,2.876,0,0,0,2.161,2.485c9.55,2.372,55.065,12.476,86.364-1.756a2.871,2.871,0,0,0,1.664-2.308c.384-3.549-.975-10.871-1.518-12.3C703.337,730.473,621.291,735.854,621.291,735.854Z" transform="translate(-5.017 -21.274)"/><path class="f" d="M621.291,735.854l-4.151-2.311s-1.942,8.1-1.307,13.877a2.876,2.876,0,0,0,2.161,2.485c9.55,2.372,55.065,12.476,86.364-1.756a2.871,2.871,0,0,0,1.664-2.308c.384-3.549-.975-10.871-1.518-12.3C703.337,730.473,621.291,735.854,621.291,735.854Z" transform="translate(-5.017 -21.274)"/><ellipse class="g" cx="43.682" cy="9.847" rx="43.682" ry="9.847" transform="translate(612.123 702.423)"/><path class="e" d="M635.176,717.886l-4.151-2.311s-1.942,8.1-1.307,13.877a2.877,2.877,0,0,0,2.162,2.485c9.55,2.372,55.065,12.476,86.364-1.756a2.873,2.873,0,0,0,1.664-2.308c.384-3.549-.975-10.871-1.518-12.3C717.221,712.5,635.176,717.886,635.176,717.886Z" transform="translate(-4.147 -22.399)"/><path class="f" d="M635.176,717.886l-4.151-2.311s-1.942,8.1-1.307,13.877a2.877,2.877,0,0,0,2.162,2.485c9.55,2.372,55.065,12.476,86.364-1.756a2.873,2.873,0,0,0,1.664-2.308c.384-3.549-.975-10.871-1.518-12.3C717.221,712.5,635.176,717.886,635.176,717.886Z" transform="translate(-4.147 -22.399)"/><ellipse class="g" cx="43.682" cy="9.847" rx="43.682" ry="9.847" transform="translate(626.878 683.329)"/><path class="e" d="M619.8,699.18l-4.152-2.311s-1.942,8.1-1.307,13.877a2.877,2.877,0,0,0,2.162,2.485c9.55,2.371,55.065,12.475,86.364-1.756a2.872,2.872,0,0,0,1.664-2.308c.384-3.549-.975-10.871-1.518-12.3C701.846,693.8,619.8,699.18,619.8,699.18Z" transform="translate(-5.11 -23.57)"/><path class="f" d="M619.8,699.18l-4.152-2.311s-1.942,8.1-1.307,13.877a2.877,2.877,0,0,0,2.162,2.485c9.55,2.371,55.065,12.475,86.364-1.756a2.872,2.872,0,0,0,1.664-2.308c.384-3.549-.975-10.871-1.518-12.3C701.846,693.8,619.8,699.18,619.8,699.18Z" transform="translate(-5.11 -23.57)"/><ellipse class="g" cx="43.682" cy="9.847" rx="43.682" ry="9.847" transform="translate(610.538 663.453)"/><path class="e" d="M654.391,684.169l-4.151-2.311s-1.942,8.1-1.307,13.877a2.876,2.876,0,0,0,2.162,2.485c9.55,2.372,55.065,12.476,86.364-1.756a2.873,2.873,0,0,0,1.664-2.308c.384-3.549-.975-10.871-1.518-12.3C736.436,678.787,654.391,684.169,654.391,684.169Z" transform="translate(-2.944 -24.51)"/><path class="f" d="M654.391,684.169l-4.151-2.311s-1.942,8.1-1.307,13.877a2.876,2.876,0,0,0,2.162,2.485c9.55,2.372,55.065,12.476,86.364-1.756a2.873,2.873,0,0,0,1.664-2.308c.384-3.549-.975-10.871-1.518-12.3C736.436,678.787,654.391,684.169,654.391,684.169Z" transform="translate(-2.944 -24.51)"/><ellipse class="g" cx="43.682" cy="9.847" rx="43.682" ry="9.847" transform="translate(647.295 647.501)"/><path class="e" d="M631.019,674.079l-4.151-2.312s-1.942,8.1-1.307,13.877a2.877,2.877,0,0,0,2.162,2.485c9.55,2.372,55.065,12.476,86.364-1.756a2.872,2.872,0,0,0,1.664-2.308c.384-3.549-.975-10.871-1.518-12.3C713.065,668.7,631.019,674.079,631.019,674.079Z" transform="translate(-4.408 -25.141)"/><path class="f" d="M631.019,674.079l-4.151-2.312s-1.942,8.1-1.307,13.877a2.877,2.877,0,0,0,2.162,2.485c9.55,2.372,55.065,12.476,86.364-1.756a2.872,2.872,0,0,0,1.664-2.308c.384-3.549-.975-10.871-1.518-12.3C713.065,668.7,631.019,674.079,631.019,674.079Z" transform="translate(-4.408 -25.141)"/><ellipse class="g" cx="43.682" cy="9.847" rx="43.682" ry="9.847" transform="translate(622.461 636.78)"/><path class="e" d="M646.623,654.6l-4.151-2.311s-1.942,8.1-1.307,13.877a2.877,2.877,0,0,0,2.161,2.485c9.55,2.372,55.065,12.476,86.364-1.756a2.872,2.872,0,0,0,1.664-2.308c.384-3.549-.975-10.872-1.518-12.3C728.668,649.22,646.623,654.6,646.623,654.6Z" transform="translate(-3.431 -26.361)"/><path class="f" d="M646.623,654.6l-4.151-2.311s-1.942,8.1-1.307,13.877a2.877,2.877,0,0,0,2.161,2.485c9.55,2.372,55.065,12.476,86.364-1.756a2.872,2.872,0,0,0,1.664-2.308c.384-3.549-.975-10.872-1.518-12.3C728.668,649.22,646.623,654.6,646.623,654.6Z" transform="translate(-3.431 -26.361)"/><ellipse class="g" cx="43.682" cy="9.847" rx="43.682" ry="9.847" transform="translate(639.042 616.082)"/><path class="e" d="M654.32,631.481l-4.151-2.311s-1.942,8.1-1.307,13.877a2.876,2.876,0,0,0,2.162,2.485c9.55,2.372,55.065,12.476,86.364-1.756a2.872,2.872,0,0,0,1.663-2.308c.384-3.549-.975-10.871-1.518-12.3C736.365,626.1,654.32,631.481,654.32,631.481Z" transform="translate(-2.949 -27.809)"/><path class="f" d="M654.32,631.481l-4.151-2.311s-1.942,8.1-1.307,13.877a2.876,2.876,0,0,0,2.162,2.485c9.55,2.372,55.065,12.476,86.364-1.756a2.872,2.872,0,0,0,1.663-2.308c.384-3.549-.975-10.871-1.518-12.3C736.365,626.1,654.32,631.481,654.32,631.481Z" transform="translate(-2.949 -27.809)"/><ellipse class="g" cx="43.682" cy="9.847" rx="43.682" ry="9.847" transform="translate(647.22 591.515)"/><path class="e" d="M723.715,754.888l-4.151-2.312s-1.942,8.1-1.307,13.877a2.876,2.876,0,0,0,2.162,2.485c9.55,2.372,55.065,12.476,86.364-1.756a2.872,2.872,0,0,0,1.664-2.308c.384-3.549-.975-10.872-1.518-12.3C805.76,749.506,723.715,754.888,723.715,754.888Z" transform="translate(1.396 -20.082)"/><path class="f" d="M723.715,754.888l-4.151-2.312s-1.942,8.1-1.307,13.877a2.876,2.876,0,0,0,2.162,2.485c9.55,2.372,55.065,12.476,86.364-1.756a2.872,2.872,0,0,0,1.664-2.308c.384-3.549-.975-10.872-1.518-12.3C805.76,749.506,723.715,754.888,723.715,754.888Z" transform="translate(1.396 -20.082)"/><ellipse class="g" cx="43.682" cy="9.847" rx="43.682" ry="9.847" transform="translate(720.959 722.649)"/><path class="e" d="M737.6,736.919l-4.151-2.312s-1.942,8.1-1.307,13.877a2.876,2.876,0,0,0,2.162,2.485c9.55,2.372,55.065,12.475,86.364-1.756a2.872,2.872,0,0,0,1.664-2.308c.384-3.549-.975-10.872-1.518-12.3C819.645,731.538,737.6,736.919,737.6,736.919Z" transform="translate(2.266 -21.207)"/><path class="f" d="M737.6,736.919l-4.151-2.312s-1.942,8.1-1.307,13.877a2.876,2.876,0,0,0,2.162,2.485c9.55,2.372,55.065,12.475,86.364-1.756a2.872,2.872,0,0,0,1.664-2.308c.384-3.549-.975-10.872-1.518-12.3C819.645,731.538,737.6,736.919,737.6,736.919Z" transform="translate(2.266 -21.207)"/><ellipse class="g" cx="43.682" cy="9.847" rx="43.682" ry="9.847" transform="translate(735.714 703.554)"/><path class="e" d="M722.223,718.214l-4.151-2.312s-1.942,8.1-1.307,13.877a2.877,2.877,0,0,0,2.161,2.485c9.55,2.371,55.065,12.475,86.364-1.756a2.873,2.873,0,0,0,1.664-2.308c.384-3.549-.975-10.871-1.518-12.3C804.268,712.832,722.223,718.214,722.223,718.214Z" transform="translate(1.303 -22.378)"/><path class="f" d="M722.223,718.214l-4.151-2.312s-1.942,8.1-1.307,13.877a2.877,2.877,0,0,0,2.161,2.485c9.55,2.371,55.065,12.475,86.364-1.756a2.873,2.873,0,0,0,1.664-2.308c.384-3.549-.975-10.871-1.518-12.3C804.268,712.832,722.223,718.214,722.223,718.214Z" transform="translate(1.303 -22.378)"/><ellipse class="g" cx="43.682" cy="9.847" rx="43.682" ry="9.847" transform="translate(719.375 683.678)"/><path class="e" d="M756.814,703.2l-4.151-2.311s-1.942,8.1-1.307,13.877a2.877,2.877,0,0,0,2.162,2.485c9.55,2.371,55.065,12.475,86.364-1.756a2.872,2.872,0,0,0,1.664-2.308c.384-3.549-.975-10.871-1.518-12.3C838.859,697.821,756.814,703.2,756.814,703.2Z" transform="translate(3.469 -23.318)"/><path class="f" d="M756.814,703.2l-4.151-2.311s-1.942,8.1-1.307,13.877a2.877,2.877,0,0,0,2.162,2.485c9.55,2.371,55.065,12.475,86.364-1.756a2.872,2.872,0,0,0,1.664-2.308c.384-3.549-.975-10.871-1.518-12.3C838.859,697.821,756.814,703.2,756.814,703.2Z" transform="translate(3.469 -23.318)"/><ellipse class="e" cx="43.682" cy="9.847" rx="43.682" ry="9.847" transform="translate(756.132 667.726)"/><path class="e" d="M733.443,693.113l-4.151-2.311s-1.942,8.1-1.307,13.877a2.876,2.876,0,0,0,2.162,2.485c9.55,2.372,55.065,12.476,86.364-1.756a2.872,2.872,0,0,0,1.664-2.308c.384-3.549-.975-10.871-1.518-12.3C815.488,687.732,733.443,693.113,733.443,693.113Z" transform="translate(2.005 -23.95)"/><path class="f" d="M733.443,693.113l-4.151-2.311s-1.942,8.1-1.307,13.877a2.876,2.876,0,0,0,2.162,2.485c9.55,2.372,55.065,12.476,86.364-1.756a2.872,2.872,0,0,0,1.664-2.308c.384-3.549-.975-10.871-1.518-12.3C815.488,687.732,733.443,693.113,733.443,693.113Z" transform="translate(2.005 -23.95)"/><ellipse class="g" cx="43.682" cy="9.847" rx="43.682" ry="9.847" transform="translate(731.296 657.006)"/><path class="e" d="M749.046,673.635l-4.151-2.311s-1.942,8.1-1.307,13.877a2.876,2.876,0,0,0,2.162,2.485c9.55,2.372,55.065,12.476,86.364-1.756a2.873,2.873,0,0,0,1.664-2.308c.384-3.548-.975-10.871-1.518-12.3C831.092,668.253,749.046,673.635,749.046,673.635Z" transform="translate(2.982 -25.169)"/><path class="f" d="M749.046,673.635l-4.151-2.311s-1.942,8.1-1.307,13.877a2.876,2.876,0,0,0,2.162,2.485c9.55,2.372,55.065,12.476,86.364-1.756a2.873,2.873,0,0,0,1.664-2.308c.384-3.548-.975-10.871-1.518-12.3C831.092,668.253,749.046,673.635,749.046,673.635Z" transform="translate(2.982 -25.169)"/><ellipse class="g" cx="43.682" cy="9.847" rx="43.682" ry="9.847" transform="translate(747.877 636.308)"/><path class="e" d="M756.743,650.515l-4.151-2.312s-1.942,8.1-1.307,13.877a2.877,2.877,0,0,0,2.162,2.485c9.55,2.371,55.065,12.475,86.364-1.756a2.872,2.872,0,0,0,1.663-2.308c.384-3.549-.975-10.871-1.517-12.3C838.79,645.133,756.743,650.515,756.743,650.515Z" transform="translate(3.464 -26.617)"/><path class="f" d="M756.743,650.515l-4.151-2.312s-1.942,8.1-1.307,13.877a2.877,2.877,0,0,0,2.162,2.485c9.55,2.371,55.065,12.475,86.364-1.756a2.872,2.872,0,0,0,1.663-2.308c.384-3.549-.975-10.871-1.517-12.3C838.79,645.133,756.743,650.515,756.743,650.515Z" transform="translate(3.464 -26.617)"/><ellipse class="e" cx="43.682" cy="9.847" rx="43.682" ry="9.847" transform="translate(756.056 611.741)"/><path class="h" d="M923.18,818.729v12.325s58.861,1.063,71.823,1.063,30.811-6.375,31.874-11.475-14.875-9.35-20.824-9.562-6.162-2.55-13.812-6.588c-4.318-2.278-10.875-8.895-15.763-14.22-3.77-4.11-6.549-7.454-6.549-7.454s-31.662-.638-40.8,4.462c-2.1,1.177-3.557,3.481-4.543,6.328C921.293,803.124,923.18,818.729,923.18,818.729Z" transform="translate(14.201 -18.131)"/><path class="f" d="M924.472,793.608c6.638-2.308,45.5-3.2,51.891-3.336-3.77-4.11-6.549-7.454-6.549-7.454s-31.662-.637-40.8,4.462C926.912,788.458,925.458,790.761,924.472,793.608Z" transform="translate(14.316 -18.131)"/><path class="i" d="M763.77,608.541s1.228.744,3.434,2.074c.4.238.829.5,1.288.778,1.4.846,3.077,1.853,4.994,3.009,26.706,16.094,99.558,59.724,103.544,59.375,1.046-.089,4.186-.561,8.521-1.267,1.148-.187,2.38-.387,3.681-.608,16.685-2.771,44.411-7.782,47.51-9.176,4.25-1.912,3.4,6.588,1.7,13.812s-2.975,41.861-1.062,46.323,1.062,11.687,1.062,11.687l-2.55,38.886,1.7,8.287s-5.737,4.675-3.4,7.437.213,14.662.213,14.662c6.8-2.55,52.911-3.4,52.911-3.4s-1.913-17-.213-21.037.425-28.049.425-28.049,1.063-18.275-.85-22.524.638-31.449.638-31.449,1.7-16.149,2.125-49.086-18.7-34-18.7-34-2.55-.2-6.422-.574c-7.573-.727-20.2-2.117-28.627-3.948a47.759,47.759,0,0,1-5.113-1.356c-10.412-3.544-45.474-3.685-51.211-1.135a15.408,15.408,0,0,1-11.449.013l-.026-.013-4.462-7.225-42.622,3.633-4.518.387-41.959,3.578-2.886.247Z" transform="translate(4.254 -29.573)"/><path class="f" d="M924.922,640.565c12.38,6.035,24.194-15.359,29.7-27.433-7.573-.727-20.2-2.116-28.627-3.948C920.452,618.491,913.053,634.781,924.922,640.565Z" transform="translate(13.946 -29.001)"/><path class="j" d="M889.553,503.881a12.978,12.978,0,0,0,1.5,4.156c4.535,9.286,17.837,28.355,17.837,28.355a30.8,30.8,0,0,1,9.775,9.775c3.612,6.162,4.675,20.612,4.675,20.612s8.075,32.086,11.9,36.549c1.912,2.231,1.063,3.562-.264,4.331a18.929,18.929,0,0,0-6.706,6.277c-5.571,8.959-14.466,26.728-1.955,32.826,17,8.287,32.936-35.146,32.936-35.146s-3.187-30.812-4.037-36.124-5.95-27.2-5.95-27.2-3.612-9.35-5.737-15.937-8.5-14.237-8.5-14.237-11.474-22.948-14.662-26.349c-1.479-1.577-3.553-3.566-5.351-5.244-2.078-1.942-3.786-3.468-3.786-3.468S889.34,498.781,889.553,503.881Z" transform="translate(12.129 -36.898)"/><path class="h" d="M753.971,816.98l38.674,17.212s19.806,6.291,36.124,6.118c11-.117,19.139-6.427,22.737-7.393,8.712-2.337,6.8-12.112-4.675-14.024s-14.237-7.012-18.062-9.35c-2.58-1.577-11.742-11.768-17.429-18.228-2.737-3.111-4.671-5.359-4.671-5.359s-7.437-19.762-28.049-15.3a21.121,21.121,0,0,0-10.03,5.278c-11.1,10.281-12.07,30.633-12.07,30.633Z" transform="translate(3.641 -18.932)"/><path class="f" d="M768.213,611.443c1.4.846,3.077,1.853,4.994,3.009,26.706,16.094,99.558,59.724,103.544,59.375,1.046-.089,4.186-.561,8.521-1.266,1.147-.187,2.38-.387,3.68-.608.051-.081.1-.161.145-.242a48.847,48.847,0,0,0,4.866-11.908c4.462-17-17.637-29.962-17.637-29.962l-4.675-3.634c-5.312-8.946-43.561-17.4-43.561-17.4l-4.93-3.311-2.631-1.768-.693-.463-5.984-4.02-29.962,2.125-8.9,5.72-.939.6-3.3,2.125Z" transform="translate(4.532 -29.623)"/><path class="f" d="M767.729,775.935c8.134,28.134,42.116,18.946,42.116,18.946l.633-3.565c-2.737-3.111-4.671-5.359-4.671-5.359s-7.437-19.762-28.049-15.3a21.122,21.122,0,0,0-10.03,5.278Z" transform="translate(4.502 -18.932)"/><path class="k" d="M759.908,658.9c12.537,0,44.836,15.087,44.836,15.087,6.587,5.1,15.512,3.4,15.512,3.4s-15.724,15.937-15.3,22.524-8.925,17.424-8.925,17.424l-28.9,57.161c2.125,40.586,43.774,29.324,43.774,29.324l1.7-9.562c2.55-1.275,6.375-14.024,6.375-14.024s0-5.1,2.55-6.587,7.862-16.787,7.862-16.787,11.475-19.337,10.837-21.887,8.287-15.512,8.287-15.512,15.087-14.874,14.45-17.531,12.111-16.256,12.111-16.256a42.91,42.91,0,0,0,11.283-13.166,48.856,48.856,0,0,0,4.866-11.908c3.6-13.689-10.038-24.764-15.482-28.551-1.317-.918-2.155-1.411-2.155-1.411l-4.675-3.634c-2.414-4.071-11.645-8.036-20.99-11.152-6.74-2.248-13.544-4.054-17.892-5.138-2.877-.714-4.679-1.114-4.679-1.114l-4.93-3.311-1.734-1.164-1.589-1.067-5.984-4.02-13.332.943-16.63,1.182-8.9,5.72-4.242,2.728-16.608,10.676s-.438,4.088-.578,9.575c-.009.425-.017.854-.025,1.3C750.63,643.271,751.825,658.9,759.908,658.9Z" transform="translate(3.441 -29.573)"/><path class="l" d="M819.562,432.681l4.462,15.937s7.862,27.412,8.712,29.324,21.462,21.249,22.312,21.674,12.074,6.8,12.074,6.8.888-35.061.038-45.261a29.116,29.116,0,0,1,.552-6.681c1.356-7.994,4.785-19.715,7.629-28.742,2.38-7.565,4.356-13.238,4.356-13.238s-49.724-2.125-48.024,2.762c.642,1.849.433,4.938-.187,8.037-1.024,5.1-3.166,10.208-4.488,9.813a17.794,17.794,0,0,0-3.94-.438C821.224,432.613,819.562,432.681,819.562,432.681Z" transform="translate(7.747 -41.345)"/><path class="f" d="M830.785,423.292a36.777,36.777,0,0,0,43.854,2.44c2.38-7.565,4.356-13.238,4.356-13.238s-49.724-2.125-48.024,2.762C831.614,417.1,831.406,420.195,830.785,423.292Z" transform="translate(8.45 -41.345)"/><path class="j" d="M891.889,397.043a36.618,36.618,0,0,1-1.838,11.476,29.967,29.967,0,0,1-1.063,2.816,36.765,36.765,0,0,1-68.3-1.424,36.236,36.236,0,0,1-2.3-12.188c-.021-.223-.021-.457-.021-.68a36.761,36.761,0,1,1,73.522,0Z" transform="translate(7.672 -44.585)"/><path class="f" d="M819.562,431.466l4.462,15.937s7.862,27.412,8.712,29.324S854.2,497.977,855.049,498.4s12.074,6.8,12.074,6.8.888-35.061.038-45.261a29.119,29.119,0,0,1,.552-6.681l-2.89,11.781.212,23.587,1.7,1.275-3.825,5.737v-4.25s-13.6-13.175-15.724-18.7-9.775-15.529-9.775-15.529-8.712-14.645-8.925-17.195c-.166-1.989-3.825-6.587-5.427-8.513C821.224,431.4,819.562,431.466,819.562,431.466Z" transform="translate(7.747 -40.13)"/><path class="f" d="M889.553,503.881a12.979,12.979,0,0,0,1.5,4.156c4.645-.476,20.476-3.43,23.961-21.513-2.078-1.942-3.786-3.468-3.786-3.468S889.34,498.781,889.553,503.881Z" transform="translate(12.129 -36.898)"/><path class="f" d="M750.8,632.161c4.288-3.034,8.368-7.174,10.8-8.321,3.612-1.7,9.137-7.225,9.137-7.225s1.4-.952,3.553-2.214c3.944-2.312,10.408-5.661,15.359-6.073,4.437-.37,19.176-1.313,30.769-2.036,8.389-.527,15.13-.939,15.13-.939s13.812-4.887,19.762-1.7a62.435,62.435,0,0,0,13.387,4.887s0-.463.026-1.262l-.026-.013-4.462-7.225-47.14,4.02-5.984-4.02-29.962,2.125-8.9,5.72-7.675.655s1.228.744,3.434,2.074l-16.608,10.676S750.9,626.038,750.8,632.161Z" transform="translate(3.442 -29.573)"/><path class="m" d="M15.739,65.814s4.036-6.116,4.036-8.3,5.1-6.99,5.1-6.99L30.4,29.335s-.425-8.082,1.7-10.266,2.762-8.082,2.762-8.082S34.014-1.464,36.988-5.4c1.679-2.219,4.238-6.248,6.15-9.336v0c1.475-2.381,2.563-4.2,2.563-4.2L75.706-77.561C56.3-103.335,33.44-90.275,33.44-90.275c2.974-1.748,6.8-15.072,6.8-15.072l.792-.491c7.562-21.324,14.277-26.3,18.908-31.493,3.064-3.433,14.241-6.3,21.589-7.872a20.728,20.728,0,0,1,10.616.62,3.771,3.771,0,0,0,1.58.228c1.2-.145,7.348,1.609,8.548,1.754,0,0,1.014,5.27,1.227,7.891s8.924,17.676,8.924,17.676,7.65,10.284,9.775,15.963S137.923-81.85,137.923-81.85v4.369l1.913-6.664.212-.544L137.923-109.9l6.2-24.079c3.395-.417,8.664-1.156,12.078-.953,7.224.218,13.6,12.451,13.6,12.451s11.261,11.359,12.111,14.417S194.658-92.77,194.658-92.77c-.425,28.833-28.264,29.613-28.264,29.613s.214-4.93-3.61-2.309S151.522-22.653,149.61-15.444,145.785,7.71,145.785,7.71s-2.337,11.577-4.037,17.912-1.912,21.625-1.912,21.625a61.353,61.353,0,0,1-13.387-5.025c-5.95-3.276-19.762,1.748-19.762,1.748l-7.858.5c-2.618.167-5.716.367-9.005.581-5.708.363-11.985.773-17.348,1.14-5.24.349-9.6.66-11.687.839-7.649.655-18.912,8.518-18.912,8.518s-5.525,5.68-9.137,7.428c-2.431,1.174-6.5,5.417-10.777,8.531v0a19.053,19.053,0,0,1-6.223,3.26,4.581,4.581,0,0,1-1.091.152C10.387,74.922,15.739,65.814,15.739,65.814Z" transform="translate(735.31 530.693)"/><path class="f" d="M950.772,646.435s-13.387,4.463-17,10.837S950.772,646.435,950.772,646.435Z" transform="translate(14.872 -26.668)"/><path class="f" d="M944.363,633.237c-.425.638-18.335,18.61-17.212,22.949S944.363,633.237,944.363,633.237Z" transform="translate(14.48 -27.495)"/><path class="f" d="M852.04,645.235s-19.974,9.42-21.674,13.528S852.04,645.235,852.04,645.235Z" transform="translate(8.418 -26.743)"/><path class="f" d="M850.776,656.634s-18.026,7.65-20.488,9.562S850.776,656.634,850.776,656.634Z" transform="translate(8.407 -26.03)"/><path class="f" d="M842.532,672.1s-7.984,5.95-12.385,1.275S842.532,672.1,842.532,672.1Z" transform="translate(8.364 -25.136)"/><path class="f" d="M872.01,526.051c-.428.637-26.99,48.448-34,52.061S872.01,526.051,872.01,526.051Z" transform="translate(8.852 -34.206)"/><path class="f" d="M870.555,543.049c0,1.062-25.924,56.523-30.174,57.161S870.555,543.049,870.555,543.049Z" transform="translate(9.028 -33.142)"/><path class="f" d="M777.036,576.644s-12.521,26.737-17.424,28.262S777.036,576.644,777.036,576.644Z" transform="translate(3.95 -31.038)"/><path class="f" d="M774.4,565.446s-4.316,9.35-6.939,9.35S774.4,565.446,774.4,565.446Z" transform="translate(4.457 -31.739)"/><path class="f" d="M891.889,397.043a36.615,36.615,0,0,1-1.838,11.476,29.994,29.994,0,0,1-1.063,2.816,10.811,10.811,0,0,1-5.154-2.263,12.763,12.763,0,0,1-3.857-4.123,51.665,51.665,0,0,1-1.881-5.366,12.484,12.484,0,0,0-10.084-7.64c1.222,2.083-.723,4.941-3.113,5.313s-4.718-1.063-6.365-2.837-2.837-3.932-4.474-5.706-3.974-3.2-6.365-2.837c-2.115.319-3.751,1.934-5.526,3.135s-4.24,2.008-5.95.723c-.957-.712-1.424-1.923-2.338-2.7-2.349-1.966-6,.064-7.736,2.6-2.667,3.932-4.293,6.312-7.757,8.087-.021-.223-.021-.457-.021-.68a36.761,36.761,0,1,1,73.522,0Z" transform="translate(7.672 -44.585)"/><path class="i" d="M826.64,390.418c1.729-2.542,5.382-4.574,7.737-2.6.914.767,1.38,1.979,2.333,2.7,1.708,1.287,4.187.479,5.954-.726s3.407-2.813,5.521-3.135c2.391-.364,4.722,1.061,6.364,2.838s2.833,3.931,4.475,5.706,3.974,3.2,6.365,2.834,4.34-3.227,3.111-5.31a12.487,12.487,0,0,1,10.082,7.64,51.717,51.717,0,0,0,1.882,5.365,12.723,12.723,0,0,0,3.862,4.119c1.95,1.429,4.313,2.635,6.695,2.22s4.4-3.144,3.291-5.293c.761,1.156,2.4-.454,2.642-1.816a19.433,19.433,0,0,0-.491-8.969c-1.174-3.95-3.637-7.867-2.688-11.877.752-3.175,3.464-5.454,5.111-8.27,2.92-4.992,2.145-11.718-1.406-16.283a18.513,18.513,0,0,0-15.3-6.7,25.3,25.3,0,0,1-4.809.09c-2.668-.4-4.924-2.114-7.05-3.773l-17.8-13.894a21.9,21.9,0,0,0-6.728-4.053c-2.515-.78-5.531-.511-7.393,1.351-3.332,3.333-1.214,9.068-2.552,13.587-1.159,3.914-4.889,6.567-8.751,7.889s-7.994,1.612-11.963,2.569a6.563,6.563,0,0,0-3.2,1.491,6.332,6.332,0,0,0-1.391,4.518,24.622,24.622,0,0,0,2.763,11.491c2.061,3.964,5.328,8.038,4.172,12.354-.612,2.284-2.372,4.044-3.923,5.828-3.364,3.868-4.5,9.585,1.83,7.588C821.489,397.969,823.2,395.476,826.64,390.418Z" transform="translate(7.182 -46.43)"/><g class="n" transform="translate(817.736 314.527)"><path d="M896.941,397.73c-.247,1.362-1.881,2.972-2.642,1.816,1.107,2.149-.909,4.879-3.291,5.293s-4.745-.791-6.695-2.22a12.726,12.726,0,0,1-3.862-4.119,51.755,51.755,0,0,1-1.883-5.365,12.486,12.486,0,0,0-10.082-7.64c1.229,2.083-.72,4.944-3.111,5.31s-4.722-1.058-6.365-2.834-2.833-3.93-4.475-5.706-3.972-3.2-6.364-2.837c-2.114.322-3.755,1.929-5.521,3.135s-4.245,2.012-5.954.726c-.953-.718-1.419-1.931-2.333-2.7-2.355-1.976-6.008.056-7.737,2.6-3.441,5.057-5.151,7.55-11.248,9.474-2,.631-3.252.489-3.926-.12-1.338,3.072-.729,5.778,3.926,4.31,6.1-1.924,7.807-4.416,11.248-9.474,1.729-2.542,5.382-4.574,7.737-2.6.914.767,1.38,1.979,2.333,2.7,1.708,1.287,4.187.479,5.954-.726s3.407-2.813,5.521-3.135c2.392-.364,4.722,1.061,6.364,2.837s2.833,3.931,4.475,5.706,3.974,3.2,6.365,2.834,4.341-3.227,3.111-5.31a12.487,12.487,0,0,1,10.082,7.64,51.759,51.759,0,0,0,1.883,5.365,12.725,12.725,0,0,0,3.862,4.119c1.95,1.429,4.313,2.635,6.695,2.22s4.4-3.144,3.291-5.293c.761,1.156,2.4-.454,2.642-1.816a19.4,19.4,0,0,0,.192-5.559C897.083,396.819,897.023,397.276,896.941,397.73Z" transform="translate(-810.535 -357.917)"/><path d="M817.433,380.671c.016-.055.04-.106.055-.161,1.156-4.316-2.111-8.39-4.172-12.354a24.632,24.632,0,0,1-2.641-8.975,11.916,11.916,0,0,0-.122,1.673,24.626,24.626,0,0,0,2.763,11.491C814.725,375.055,816.7,377.817,817.433,380.671Z" transform="translate(-810.553 -359.181)"/><path d="M894,369.53c-1.647,2.816-4.36,5.1-5.111,8.271a9.226,9.226,0,0,0,.038,4.072c.791-3.112,3.448-5.373,5.074-8.153a13.964,13.964,0,0,0,1.636-8.971A13.147,13.147,0,0,1,894,369.53Z" transform="translate(-805.661 -358.833)"/></g><path class="f" d="M770.757,554.011v0a32.435,32.435,0,0,1,.651,3.557s16.787,39.311,18.912,41.649c.655.718,3.12,4.254,6.218,8.806,1.122,1.645,2.325,3.426,3.557,5.253,6.426,9.537,13.6,20.365,13.6,20.365l15.724,13.812s34.207,2.737,45.078-8.364c-1.317-.918-2.155-1.411-2.155-1.411l-4.675-3.634c-2.414-4.071-11.645-8.036-20.99-11.152-8.61.064-15.652.761-15.652.761l-2.24-5.9-2.337-6.153-11.887-31.3s-7.667-39.524-10.217-41.437-1.912-7.862-1.912-7.862,4.675-16.787,2.975-19.124,2.762-19.549,2.762-19.549a17.827,17.827,0,0,0-2.04-4.768L773.32,549.922S772.232,551.695,770.757,554.011Z" transform="translate(4.692 -36.615)"/><path class="j" d="M808.956,491.919s-4.462,17.212-2.763,19.549-2.974,19.124-2.974,19.124-.638,5.95,1.912,7.862,10.216,41.436,10.216,41.436l16.464,43.349s51.518-5.1,46.205,11.05-47.811,12.75-47.811,12.75l-15.724-13.812s-21.25-32.087-23.374-34.424S772.2,557.154,772.2,557.154s-.85-7.862-4.462-11.9-.85-10.866-.85-10.866-4.462-51.394.213-57.557S804.069,473.432,808.956,491.919Z" transform="translate(4.329 -37.473)"/><ellipse class="e" cx="39.908" cy="42.361" rx="39.908" ry="42.361" transform="translate(627.283 708.708)"/><ellipse class="f" cx="39.908" cy="42.361" rx="39.908" ry="42.361" transform="translate(627.283 708.708)"/><ellipse class="g" cx="39.908" cy="41.418" rx="39.908" ry="41.418" transform="translate(634.17 710.594)"/><path class="d" d="M553.492,733.373a42.963,42.963,0,0,1,5.342,9.755c.357.9.706,1.84,1.037,2.828,5.31,15.87-3.1,34.9-5.51,32.849s-9.9-5.862-11.351-.509-6.8,10.823-6.8,10.823c-9.755,9.812-18.585-.789-24.381-11.742a106.118,106.118,0,0,1-5.043-11.142c-1.287-3.364-2.026-5.689-2.026-5.689l40.631-34.619S549.318,727.731,553.492,733.373Z" transform="translate(-11.963 -21.691)"/><path class="d" d="M493.228,754.2a42.973,42.973,0,0,1,5.342,9.755c.357.9.706,1.84,1.037,2.828,5.31,15.87-3.1,34.9-5.509,32.849s-9.9-5.862-11.351-.509-6.8,10.823-6.8,10.823c-9.755,9.812-18.585-.789-24.381-11.742a106.111,106.111,0,0,1-5.042-11.141c-1.287-3.364-2.026-5.689-2.026-5.689l40.631-34.618S489.054,748.563,493.228,754.2Z" transform="translate(-15.736 -20.387)"/><path class="d" d="M372.974,783.188a42.966,42.966,0,0,1-2.113,10.92c-.3.918-.63,1.867-1.007,2.839-6.04,15.607-24.663,24.889-25.205,21.774s-3.882-10.832-8.414-7.636-12.145,3.99-12.145,3.99c-13.772,1.328-13.8-12.468-11.276-24.6a106.1,106.1,0,0,1,3.228-11.8c1.156-3.411,2.071-5.672,2.071-5.672l53.374-.722S373.36,776.18,372.974,783.188Z" transform="translate(-24.061 -18.789)"/><path class="d" d="M308.075,766.82a42.971,42.971,0,0,1-2.113,10.92c-.3.919-.63,1.867-1.007,2.839-6.04,15.607-24.663,24.889-25.205,21.773s-3.882-10.832-8.414-7.636-12.145,3.99-12.145,3.99c-13.772,1.328-13.8-12.468-11.276-24.6a106.105,106.105,0,0,1,3.228-11.8c1.156-3.411,2.071-5.673,2.071-5.673l53.374-.722S308.461,759.811,308.075,766.82Z" transform="translate(-28.125 -19.814)"/><path class="o" d="M553.492,733.373a42.963,42.963,0,0,1,5.342,9.755c.357.9.706,1.84,1.037,2.828,5.31,15.87-3.1,34.9-5.51,32.849s-9.9-5.862-11.351-.509-6.8,10.823-6.8,10.823c-9.755,9.812-18.585-.789-24.381-11.742a106.118,106.118,0,0,1-5.043-11.142c-1.287-3.364-2.026-5.689-2.026-5.689l40.631-34.619S549.318,727.731,553.492,733.373Z" transform="translate(-11.963 -21.691)"/><path class="o" d="M493.228,754.2a42.973,42.973,0,0,1,5.342,9.755c.357.9.706,1.84,1.037,2.828,5.31,15.87-3.1,34.9-5.509,32.849s-9.9-5.862-11.351-.509-6.8,10.823-6.8,10.823c-9.755,9.812-18.585-.789-24.381-11.742a106.111,106.111,0,0,1-5.042-11.141c-1.287-3.364-2.026-5.689-2.026-5.689l40.631-34.618S489.054,748.563,493.228,754.2Z" transform="translate(-15.736 -20.387)"/><path class="o" d="M372.974,783.188a42.966,42.966,0,0,1-2.113,10.92c-.3.918-.63,1.867-1.007,2.839-6.04,15.607-24.663,24.889-25.205,21.774s-3.882-10.832-8.414-7.636-12.145,3.99-12.145,3.99c-13.772,1.328-13.8-12.468-11.276-24.6a106.1,106.1,0,0,1,3.228-11.8c1.156-3.411,2.071-5.672,2.071-5.672l53.374-.722S373.36,776.18,372.974,783.188Z" transform="translate(-24.061 -18.789)"/><path class="o" d="M308.075,766.82a42.971,42.971,0,0,1-2.113,10.92c-.3.919-.63,1.867-1.007,2.839-6.04,15.607-24.663,24.889-25.205,21.773s-3.882-10.832-8.414-7.636-12.145,3.99-12.145,3.99c-13.772,1.328-13.8-12.468-11.276-24.6a106.105,106.105,0,0,1,3.228-11.8c1.156-3.411,2.071-5.673,2.071-5.673l53.374-.722S308.461,759.811,308.075,766.82Z" transform="translate(-28.125 -19.814)"/><path class="p" d="M684.53,561.253c0,142.559-48.226,258.125-270.775,258.125-149.544,0-265.241-37.158-270.775-258.125-3.569-142.514,121.23-258.125,270.775-258.125S684.53,418.694,684.53,561.253Z" transform="translate(-34.62 -48.163)"/><path class="q" d="M283.849,399.629c-20.081,0-37.857-.663-54.343-2.028a385.6,385.6,0,0,1-50.276-7.23c-8.1-1.758-15.952-3.811-23.333-6.1a228.435,228.435,0,0,1-21.981-8.048A195.12,195.12,0,0,1,113.4,366.012a175.127,175.127,0,0,1-18.941-12.582A167.193,167.193,0,0,1,77.2,338.257a171.074,171.074,0,0,1-15.454-17.976,187.558,187.558,0,0,1-13.543-21,218.519,218.519,0,0,1-11.52-24.229A266.915,266.915,0,0,1,27.3,247.378c-2.77-9.86-5.172-20.405-7.139-31.342-2-11.118-3.607-22.968-4.78-35.22-1.191-12.444-1.968-25.671-2.31-39.313A234.379,234.379,0,0,1,23.16,67.225,242.336,242.336,0,0,1,54.824,1.407a233.791,233.791,0,0,0-24.75,111.1c2.573,102.728,29.194,172.05,81.384,211.926,53.594,40.949,129.366,46.2,189.391,46.2,111.314,0,185.88-28.54,227.96-87.252a190.2,190.2,0,0,1-14.285,25.1,173.907,173.907,0,0,1-40.7,42.457,196.3,196.3,0,0,1-27.165,16.829,237.313,237.313,0,0,1-32.206,13.546,305.1,305.1,0,0,1-37.621,10,407.313,407.313,0,0,1-43.409,6.193C317.855,398.915,301.177,399.629,283.849,399.629Z" transform="translate(93.286 373.587)"/><path class="r" d="M349.994,307.369h.032a.06.06,0,0,1-.024.008Z" transform="translate(-21.653 -47.898)"/><path class="r" d="M350.514,307.314c.688-.111,2.048-.3,4.024-.451l-4.4.522q.095-.024.237-.047C350.42,307.329,350.459,307.321,350.514,307.314Z" transform="translate(-21.645 -47.93)"/><path class="s" d="M550.334,412.991l-19.765,7.115A441.471,441.471,0,0,0,498.1,381.4a317.2,317.2,0,0,0-41.118-36.833c-50.605-37.505-89.747-38.462-102.673-37.5l29.71-3.494a241.551,241.551,0,0,1,79.762,28.833,263.5,263.5,0,0,1,47.933,35.41C537.582,391.827,550.334,412.991,550.334,412.991Z" transform="translate(-21.383 -48.136)"/><path class="t" d="M371.4,425.761S345.309,338.8,367.445,315.08c0,0,34.786-11.859,60.875,55.341Z" transform="translate(-21.118 -47.466)"/><path class="u" d="M12.862,110.7v0c-.016-.055-1.67-5.595-3.73-13.957C7.215,88.959,4.524,77.01,2.584,64.248.4,49.9-.4,37.477.187,27.313A68.848,68.848,0,0,1,2.722,11.578,29.087,29.087,0,0,1,8.908.013l.01,0L8.947,0C5.175,9.745,6.726,24.956,13.558,45.211,19.3,62.232,27.6,79.28,33.547,90.584L12.863,110.694Z" transform="translate(337.418 267.601)"/><path class="d" d="M494.962,345.662s69.186-58.794,99.793-48.035c0,0,24.821,27.1-26.262,77.966Z" transform="translate(-12.577 -48.59)"/><path class="v" d="M494.962,345.662s69.186-58.794,99.793-48.035c0,0,24.821,27.1-26.262,77.966Z" transform="translate(-12.577 -48.59)"/><path class="w" d="M18.993,57.082h0L0,49.35l.02-.019A387.923,387.923,0,0,1,33.2,24.675,225.5,225.5,0,0,1,63.037,7.711C74.232,2.594,83.757,0,91.347,0a25.489,25.489,0,0,1,8.446,1.315c.049.054.3.343.684.864l-.3,0c-11.161,0-26.119,7.195-44.459,21.384C40.276,35.507,26.081,49.69,18.994,57.082Z" transform="translate(482.385 247.721)"/><path class="x" d="M709.04,615.985c0,76.628-54.988,137.166-106.729,137.166s-80.64-60.538-80.64-137.166S563.7,480.232,615.356,477.238C697.181,472.494,709.04,539.357,709.04,615.985Z" transform="translate(-10.904 -37.277)"/><path class="y" d="M93.64,131.53c-24.627,0-45.279-13.779-59.723-39.848-6.785-12.246-12.032-26.9-15.593-43.559A258.169,258.169,0,0,1,13-5.637a192.3,192.3,0,0,1,7.374-53.586,163.2,163.2,0,0,1,8.648-23.2,140.171,140.171,0,0,1,11.449-20.2,116.865,116.865,0,0,1,13.871-16.749,96.026,96.026,0,0,1,15.912-12.845,80.391,80.391,0,0,1,17.574-8.488,72.159,72.159,0,0,1,18.856-3.679c2.72-.158,5.416-.238,8.014-.238,1.778,0,3.549.037,5.265.111-23.546,3.975-45.211,19.845-61,44.689C42.864-74.5,34-41.407,34-6.637c0,36.974,6.577,69.393,19.019,93.752,13.067,25.583,31.892,40.456,54.439,43.013A70.454,70.454,0,0,1,93.64,131.53Z" transform="translate(495.768 583.345)"/><ellipse class="d" cx="17.393" cy="22.136" rx="17.393" ry="22.136" transform="translate(570.852 568.036)"/><ellipse class="d" cx="17.393" cy="22.136" rx="17.393" ry="22.136" transform="translate(632.518 549.062)"/><path class="g" d="M558.847,378.825a58.614,58.614,0,0,1-6.269,26.516c-5.469,10.927-12.784,20.372-23.724,25.816-38.978-45.368-50.528-48.458-77.921-69a57.549,57.549,0,0,1,12.627-22.581A54.13,54.13,0,0,1,503.7,321.594C534.151,321.594,558.847,347.215,558.847,378.825Z" transform="translate(-35.333 -79.007)"/></g><g transform="translate(61.289 780.74)"><circle class="z" cx="0.849" cy="0.849" r="0.849" transform="translate(0 0)"/><circle class="z" cx="0.849" cy="0.849" r="0.849" transform="translate(12.315 0)"/><circle class="z" cx="0.849" cy="0.849" r="0.849" transform="translate(24.63 0)"/><circle class="z" cx="0.849" cy="0.849" r="0.849" transform="translate(49.261 0)"/><circle class="z" cx="0.849" cy="0.849" r="0.849" transform="translate(36.946 0)"/><circle class="z" cx="0.849" cy="0.849" r="0.849" transform="translate(61.576 0)"/><circle class="z" cx="0.849" cy="0.849" r="0.849" transform="translate(73.891 0)"/><circle class="z" cx="0.849" cy="0.849" r="0.849" transform="translate(0 12.565)"/><circle class="z" cx="0.849" cy="0.849" r="0.849" transform="translate(12.315 12.565)"/><circle class="z" cx="0.849" cy="0.849" r="0.849" transform="translate(24.63 12.565)"/><circle class="z" cx="0.849" cy="0.849" r="0.849" transform="translate(49.261 12.565)"/><circle class="z" cx="0.849" cy="0.849" r="0.849" transform="translate(36.946 12.565)"/><circle class="z" cx="0.849" cy="0.849" r="0.849" transform="translate(61.576 12.565)"/><circle class="z" cx="0.849" cy="0.849" r="0.849" transform="translate(73.891 12.565)"/><circle class="z" cx="0.849" cy="0.849" r="0.849" transform="translate(0 25.13)"/><circle class="z" cx="0.849" cy="0.849" r="0.849" transform="translate(12.315 25.13)"/><circle class="z" cx="0.849" cy="0.849" r="0.849" transform="translate(24.63 25.13)"/><circle class="z" cx="0.849" cy="0.849" r="0.849" transform="translate(49.261 25.13)"/><circle class="z" cx="0.849" cy="0.849" r="0.849" transform="translate(36.946 25.13)"/><circle class="z" cx="0.849" cy="0.849" r="0.849" transform="translate(61.576 25.13)"/><circle class="z" cx="0.849" cy="0.849" r="0.849" transform="translate(73.891 25.13)"/><circle class="z" cx="0.849" cy="0.849" r="0.849" transform="translate(0 37.694)"/><circle class="z" cx="0.849" cy="0.849" r="0.849" transform="translate(12.315 37.694)"/><circle class="z" cx="0.849" cy="0.849" r="0.849" transform="translate(24.63 37.694)"/><circle class="z" cx="0.849" cy="0.849" r="0.849" transform="translate(49.261 37.694)"/><circle class="z" cx="0.849" cy="0.849" r="0.849" transform="translate(36.946 37.694)"/><circle class="z" cx="0.849" cy="0.849" r="0.849" transform="translate(61.576 37.694)"/><circle class="z" cx="0.849" cy="0.849" r="0.849" transform="translate(73.891 37.694)"/><circle class="z" cx="0.849" cy="0.849" r="0.849" transform="translate(85.034 0)"/><circle class="z" cx="0.849" cy="0.849" r="0.849" transform="translate(109.664 0)"/><circle class="z" cx="0.849" cy="0.849" r="0.849" transform="translate(97.349 0)"/><circle class="z" cx="0.849" cy="0.849" r="0.849" transform="translate(121.979 0)"/><circle class="z" cx="0.849" cy="0.849" r="0.849" transform="translate(134.294 0)"/><circle class="z" cx="0.849" cy="0.849" r="0.849" transform="translate(146.61 0)"/><circle class="z" cx="0.849" cy="0.849" r="0.849" transform="translate(171.24 0)"/><circle class="z" cx="0.849" cy="0.849" r="0.849" transform="translate(158.925 0)"/><circle class="z" cx="0.849" cy="0.849" r="0.849" transform="translate(183.555 0)"/><circle class="z" cx="0.849" cy="0.849" r="0.849" transform="translate(195.871 0)"/><circle class="z" cx="0.849" cy="0.849" r="0.849" transform="translate(85.034 12.565)"/><circle class="z" cx="0.849" cy="0.849" r="0.849" transform="translate(109.664 12.565)"/><circle class="z" cx="0.849" cy="0.849" r="0.849" transform="translate(97.349 12.565)"/><circle class="z" cx="0.849" cy="0.849" r="0.849" transform="translate(121.979 12.565)"/><circle class="z" cx="0.849" cy="0.849" r="0.849" transform="translate(134.294 12.565)"/><circle class="z" cx="0.849" cy="0.849" r="0.849" transform="translate(146.61 12.565)"/><circle class="z" cx="0.849" cy="0.849" r="0.849" transform="translate(171.24 12.565)"/><circle class="z" cx="0.849" cy="0.849" r="0.849" transform="translate(158.925 12.565)"/><circle class="z" cx="0.849" cy="0.849" r="0.849" transform="translate(183.555 12.565)"/><circle class="z" cx="0.849" cy="0.849" r="0.849" transform="translate(195.871 12.565)"/><circle class="z" cx="0.849" cy="0.849" r="0.849" transform="translate(85.034 25.13)"/><circle class="z" cx="0.849" cy="0.849" r="0.849" transform="translate(109.664 25.13)"/><circle class="z" cx="0.849" cy="0.849" r="0.849" transform="translate(97.349 25.13)"/><circle class="z" cx="0.849" cy="0.849" r="0.849" transform="translate(121.979 25.13)"/><circle class="z" cx="0.849" cy="0.849" r="0.849" transform="translate(134.294 25.13)"/><circle class="z" cx="0.849" cy="0.849" r="0.849" transform="translate(146.61 25.13)"/><circle class="z" cx="0.849" cy="0.849" r="0.849" transform="translate(171.24 25.13)"/><circle class="z" cx="0.849" cy="0.849" r="0.849" transform="translate(158.925 25.13)"/><circle class="z" cx="0.849" cy="0.849" r="0.849" transform="translate(183.555 25.13)"/><circle class="z" cx="0.849" cy="0.849" r="0.849" transform="translate(195.871 25.13)"/><circle class="z" cx="0.849" cy="0.849" r="0.849" transform="translate(85.034 37.694)"/><circle class="z" cx="0.849" cy="0.849" r="0.849" transform="translate(109.664 37.694)"/><circle class="z" cx="0.849" cy="0.849" r="0.849" transform="translate(97.349 37.694)"/><circle class="z" cx="0.849" cy="0.849" r="0.849" transform="translate(121.979 37.694)"/><circle class="z" cx="0.849" cy="0.849" r="0.849" transform="translate(134.294 37.694)"/><circle class="z" cx="0.849" cy="0.849" r="0.849" transform="translate(146.61 37.694)"/><circle class="z" cx="0.849" cy="0.849" r="0.849" transform="translate(171.24 37.694)"/><circle class="z" cx="0.849" cy="0.849" r="0.849" transform="translate(158.925 37.694)"/><circle class="z" cx="0.849" cy="0.849" r="0.849" transform="translate(183.555 37.694)"/><circle class="z" cx="0.849" cy="0.849" r="0.849" transform="translate(195.871 37.694)"/></g><g class="aa" transform="translate(323.281 702.61) rotate(42)"><path class="af" d="M24.5,0,49,42.162H0Z"/><path class="ag" d="M 24.49934959411621 13.93263053894043 L 12.16355895996094 35.16167449951172 L 36.83514404296875 35.16167449951172 L 24.49934959411621 13.93263053894043 M 24.49934959411621 -3.814697265625e-06 L 48.99869537353516 42.16167449951172 L 3.814697265625e-06 42.16167449951172 L 24.49934959411621 -3.814697265625e-06 Z"/></g><g class="ab" transform="matrix(0.883, -0.469, 0.469, 0.883, 608.175, 411.82)"><path class="af" d="M20.093,0,40.185,34.627H0Z"/><path class="ag" d="M 20.09256744384766 9.962484359741211 L 8.682058334350586 29.62712097167969 L 31.50307655334473 29.62712097167969 L 20.09256744384766 9.962484359741211 M 20.09256744384766 0 L 40.18513870239258 34.62712097167969 L -3.814697265625e-06 34.62712097167969 L 20.09256744384766 0 Z"/></g><g class="ab" transform="matrix(0.485, 0.875, -0.875, 0.485, 138.116, 370.932)"><path class="af" d="M17.093,0,34.185,29.627H0Z"/><path class="ag" d="M 17.09256744384766 10.00555610656738 L 8.657049179077148 24.62712097167969 L 25.52808570861816 24.62712097167969 L 17.09256744384766 10.00555610656738 M 17.09256744384766 0 L 34.18513870239258 29.62712097167969 L -3.814697265625e-06 29.62712097167969 L 17.09256744384766 0 Z"/></g><g transform="translate(125.016 -2.602)"><ellipse class="ac" cx="35.996" cy="6.082" rx="35.996" ry="6.082" transform="translate(594.112 1043.025)"/><path class="ad" d="M891.859,774.887S841.067,771.826,847,807.461c0,0-1.19,6.3,4.518,9.156,0,0,.094-2.673,5.213-1.751a23.579,23.579,0,0,0,5.534.267,11.416,11.416,0,0,0,6.75-2.794h0s14.3-5.895,19.849-29.259c0,0,4.117-5.106,4.01-6.416l-8.635,3.743s2.927,6.188.628,11.335c0,0-.281-11.121-1.925-10.853-.334,0-4.464,2.139-4.464,2.139s5.039,10.787,1.243,18.633c0,0,1.443-13.286-2.82-17.844l-6.042,3.529s5.895,11.134,1.9,20.224c0,0,1.029-13.941-3.168-19.368l-5.467,4.237s5.534,10.987,2.152,18.526c0,0-.441-16.24-3.342-17.457,0,0-4.785,4.224-5.52,5.962,0,0,3.8,8.02,1.443,12.163,0,0-1.443-10.8-2.673-10.853,0,0-4.772,7.164-5.266,12.03a26,26,0,0,1,4.117-12.765,14.383,14.383,0,0,0-7.311,3.783s.749-5.052,8.488-5.507c0,0,4.01-5.427,5-5.761,0,0-7.7-.642-12.377,1.43,0,0,4.117-4.785,13.781-2.606l5.346-4.411s-10.145-1.337-14.436.147c0,0,4.946-4.224,15.893-1.149l5.881-3.515s-8.648-1.871-13.794-1.19c0,0,5.427-2.927,15.518.241l4.21-1.885s-6.336-1.243-8.194-1.444-1.951-.708-1.951-.708a21.911,21.911,0,0,1,11.9,1.336S892.019,775.448,891.859,774.887Z" transform="translate(-226.718 232.389)"/></g><g transform="translate(-393.984 -19.832)"><ellipse class="ae" cx="26.415" cy="4.463" rx="26.415" ry="4.463" transform="translate(594.112 1033.492)"/><path class="ad" d="M879.792,774.869s-37.274-2.246-32.919,23.9c0,0-.873,4.62,3.315,6.719,0,0,.069-1.962,3.826-1.285a17.3,17.3,0,0,0,4.061.2,8.378,8.378,0,0,0,4.953-2.05h0s10.5-4.326,14.566-21.472c0,0,3.021-3.747,2.943-4.708L874.2,778.92s2.148,4.541.461,8.318c0,0-.206-8.161-1.413-7.965-.245,0-3.276,1.569-3.276,1.569s3.7,7.916.912,13.674c0,0,1.059-9.75-2.07-13.095l-4.434,2.59s4.326,8.171,1.393,14.841c0,0,.755-10.231-2.325-14.213l-4.012,3.109s4.061,8.063,1.579,13.6c0,0-.324-11.918-2.452-12.811,0,0-3.512,3.1-4.051,4.375,0,0,2.786,5.885,1.059,8.926,0,0-1.059-7.925-1.962-7.965,0,0-3.5,5.258-3.865,8.828a19.078,19.078,0,0,1,3.021-9.368,10.556,10.556,0,0,0-5.365,2.776s.549-3.708,6.229-4.041c0,0,2.943-3.983,3.669-4.228,0,0-5.65-.471-9.083,1.049,0,0,3.021-3.512,10.113-1.913l3.924-3.237s-7.445-.981-10.594.108c0,0,3.629-3.1,11.663-.843l4.316-2.58s-6.346-1.373-10.123-.873c0,0,3.982-2.148,11.388.177l3.09-1.383s-4.649-.912-6.013-1.06-1.432-.52-1.432-.52a16.079,16.079,0,0,1,8.73.981S879.91,775.281,879.792,774.869Z" transform="translate(-233.555 232.389)"/></g></g></svg>