<svg xmlns="http://www.w3.org/2000/svg" xmlns:xlink="http://www.w3.org/1999/xlink" width="844" height="1259" viewBox="0 0 844 1259"><defs><style>.a{fill:#fff;}.b{clip-path:url(#a);}.c{fill:#017bff;}.d{fill:url(#b);}.e{opacity:0.55;fill:url(#c);}.f{opacity:0.38;fill:url(#d);}.g{opacity:0.14;fill:url(#e);}.h{fill:url(#f);}</style><clipPath id="a"><rect class="a" width="844" height="1259"/></clipPath><linearGradient id="b" x1="0.5" x2="0.5" y2="1" gradientUnits="objectBoundingBox"><stop offset="0" stop-color="#39f"/><stop offset="1" stop-color="#0dd2ff"/></linearGradient><linearGradient id="c" x1="0.5" x2="1.292" y2="1.495" gradientUnits="objectBoundingBox"><stop offset="0" stop-color="#3194ff"/><stop offset="1" stop-color="#017bff"/></linearGradient><linearGradient id="d" x2="-0.292" y2="1.495" xlink:href="#c"/><linearGradient id="e" x1="0.5" x2="0.5" y2="1" gradientUnits="objectBoundingBox"><stop offset="0" stop-color="#fff"/><stop offset="1" stop-color="#007aff"/></linearGradient><linearGradient id="f" x1="0.219" y1="-0.249" x2="0.557" y2="1.034" gradientUnits="objectBoundingBox"><stop offset="0" stop-color="#ebf4ff"/><stop offset="1" stop-color="#c7e2ff"/></linearGradient></defs><g class="b"><rect class="c" width="844" height="1259"/><path class="d" d="M381.5,763a384.321,384.321,0,0,1-76.886-7.751,379.41,379.41,0,0,1-136.415-57.4A382.612,382.612,0,0,1,29.98,530,379.59,379.59,0,0,1,7.751,458.385a385.221,385.221,0,0,1,0-153.771A379.411,379.411,0,0,1,65.154,168.2,382.612,382.612,0,0,1,233,29.98,379.582,379.582,0,0,1,304.614,7.751a385.221,385.221,0,0,1,153.771,0A379.412,379.412,0,0,1,594.8,65.154,382.617,382.617,0,0,1,733.02,233a379.591,379.591,0,0,1,22.23,71.611,385.222,385.222,0,0,1,0,153.771,379.411,379.411,0,0,1-57.4,136.415A382.617,382.617,0,0,1,530,733.02a379.593,379.593,0,0,1-71.611,22.23A384.319,384.319,0,0,1,381.5,763Zm0-601.525c-121.322,0-220.025,98.7-220.025,220.025s98.7,220.025,220.025,220.025,220.025-98.7,220.025-220.025S502.822,161.475,381.5,161.475Z" transform="translate(-260 -292)"/><path class="e" d="M304.718,48.847c49,275,326.567,97.736,326.567,272.06S489.967,636.55,315.643,636.55s-298.924,17.3-312.924-302.7S255.718-226.153,304.718,48.847Z" transform="translate(64.282 247.153)"/><path class="f" d="M223.031,9.918C189.894,195.888,2.187,76.012,2.187,193.9S97.755,407.356,215.643,407.356s202.15,11.7,211.617-204.705S256.167-176.053,223.031,9.918Z" transform="translate(408.921 214.604) rotate(39)"/><path class="g" d="M9,274s250,16.262,383,292.715S851,925.64,851,925.64v298.523H9Z" transform="translate(-9 34.837)"/><g transform="translate(545.684 110.925)"><circle class="a" cx="1.161" cy="1.161" r="1.161" transform="translate(0 0)"/><circle class="a" cx="1.161" cy="1.161" r="1.161" transform="translate(16.827 0)"/><circle class="a" cx="1.161" cy="1.161" r="1.161" transform="translate(33.654 0)"/><circle class="a" cx="1.161" cy="1.161" r="1.161" transform="translate(67.308 0)"/><circle class="a" cx="1.161" cy="1.161" r="1.161" transform="translate(50.481 0)"/><circle class="a" cx="1.161" cy="1.161" r="1.161" transform="translate(84.135 0)"/><circle class="a" cx="1.161" cy="1.161" r="1.161" transform="translate(100.962 0)"/><circle class="a" cx="1.161" cy="1.161" r="1.161" transform="translate(0 17.168)"/><circle class="a" cx="1.161" cy="1.161" r="1.161" transform="translate(16.827 17.168)"/><circle class="a" cx="1.161" cy="1.161" r="1.161" transform="translate(33.654 17.168)"/><circle class="a" cx="1.161" cy="1.161" r="1.161" transform="translate(67.308 17.168)"/><circle class="a" cx="1.161" cy="1.161" r="1.161" transform="translate(50.481 17.168)"/><circle class="a" cx="1.161" cy="1.161" r="1.161" transform="translate(84.135 17.168)"/><circle class="a" cx="1.161" cy="1.161" r="1.161" transform="translate(100.962 17.168)"/><circle class="a" cx="1.161" cy="1.161" r="1.161" transform="translate(0 34.336)"/><circle class="a" cx="1.161" cy="1.161" r="1.161" transform="translate(16.827 34.336)"/><circle class="a" cx="1.161" cy="1.161" r="1.161" transform="translate(33.654 34.336)"/><circle class="a" cx="1.161" cy="1.161" r="1.161" transform="translate(67.308 34.336)"/><circle class="a" cx="1.161" cy="1.161" r="1.161" transform="translate(50.481 34.336)"/><circle class="a" cx="1.161" cy="1.161" r="1.161" transform="translate(84.135 34.336)"/><circle class="a" cx="1.161" cy="1.161" r="1.161" transform="translate(100.962 34.336)"/><circle class="a" cx="1.161" cy="1.161" r="1.161" transform="translate(0 51.504)"/><circle class="a" cx="1.161" cy="1.161" r="1.161" transform="translate(16.827 51.504)"/><circle class="a" cx="1.161" cy="1.161" r="1.161" transform="translate(33.654 51.504)"/><circle class="a" cx="1.161" cy="1.161" r="1.161" transform="translate(67.308 51.504)"/><circle class="a" cx="1.161" cy="1.161" r="1.161" transform="translate(50.481 51.504)"/><circle class="a" cx="1.161" cy="1.161" r="1.161" transform="translate(84.135 51.504)"/><circle class="a" cx="1.161" cy="1.161" r="1.161" transform="translate(100.962 51.504)"/><circle class="a" cx="1.161" cy="1.161" r="1.161" transform="translate(116.186 0)"/><circle class="a" cx="1.161" cy="1.161" r="1.161" transform="translate(149.84 0)"/><circle class="a" cx="1.161" cy="1.161" r="1.161" transform="translate(133.013 0)"/><circle class="a" cx="1.161" cy="1.161" r="1.161" transform="translate(166.667 0)"/><circle class="a" cx="1.161" cy="1.161" r="1.161" transform="translate(183.494 0)"/><circle class="a" cx="1.161" cy="1.161" r="1.161" transform="translate(200.321 0)"/><circle class="a" cx="1.161" cy="1.161" r="1.161" transform="translate(233.975 0)"/><circle class="a" cx="1.161" cy="1.161" r="1.161" transform="translate(217.148 0)"/><circle class="a" cx="1.161" cy="1.161" r="1.161" transform="translate(250.802 0)"/><circle class="a" cx="1.161" cy="1.161" r="1.161" transform="translate(267.629 0)"/><circle class="a" cx="1.161" cy="1.161" r="1.161" transform="translate(116.186 17.168)"/><circle class="a" cx="1.161" cy="1.161" r="1.161" transform="translate(149.84 17.168)"/><circle class="a" cx="1.161" cy="1.161" r="1.161" transform="translate(133.013 17.168)"/><circle class="a" cx="1.161" cy="1.161" r="1.161" transform="translate(166.667 17.168)"/><circle class="a" cx="1.161" cy="1.161" r="1.161" transform="translate(183.494 17.168)"/><circle class="a" cx="1.161" cy="1.161" r="1.161" transform="translate(200.321 17.168)"/><circle class="a" cx="1.161" cy="1.161" r="1.161" transform="translate(233.975 17.168)"/><circle class="a" cx="1.161" cy="1.161" r="1.161" transform="translate(217.148 17.168)"/><circle class="a" cx="1.161" cy="1.161" r="1.161" transform="translate(250.802 17.168)"/><circle class="a" cx="1.161" cy="1.161" r="1.161" transform="translate(267.629 17.168)"/><circle class="a" cx="1.161" cy="1.161" r="1.161" transform="translate(116.186 34.336)"/><circle class="a" cx="1.161" cy="1.161" r="1.161" transform="translate(149.84 34.336)"/><circle class="a" cx="1.161" cy="1.161" r="1.161" transform="translate(133.013 34.336)"/><circle class="a" cx="1.161" cy="1.161" r="1.161" transform="translate(166.667 34.336)"/><circle class="a" cx="1.161" cy="1.161" r="1.161" transform="translate(183.494 34.336)"/><circle class="a" cx="1.161" cy="1.161" r="1.161" transform="translate(200.321 34.336)"/><circle class="a" cx="1.161" cy="1.161" r="1.161" transform="translate(233.975 34.336)"/><circle class="a" cx="1.161" cy="1.161" r="1.161" transform="translate(217.148 34.336)"/><circle class="a" cx="1.161" cy="1.161" r="1.161" transform="translate(250.802 34.336)"/><circle class="a" cx="1.161" cy="1.161" r="1.161" transform="translate(267.629 34.336)"/><circle class="a" cx="1.161" cy="1.161" r="1.161" transform="translate(116.186 51.504)"/><circle class="a" cx="1.161" cy="1.161" r="1.161" transform="translate(149.84 51.504)"/><circle class="a" cx="1.161" cy="1.161" r="1.161" transform="translate(133.013 51.504)"/><circle class="a" cx="1.161" cy="1.161" r="1.161" transform="translate(166.667 51.504)"/><circle class="a" cx="1.161" cy="1.161" r="1.161" transform="translate(183.494 51.504)"/><circle class="a" cx="1.161" cy="1.161" r="1.161" transform="translate(200.321 51.504)"/><circle class="a" cx="1.161" cy="1.161" r="1.161" transform="translate(233.975 51.504)"/><circle class="a" cx="1.161" cy="1.161" r="1.161" transform="translate(217.148 51.504)"/><circle class="a" cx="1.161" cy="1.161" r="1.161" transform="translate(250.802 51.504)"/><circle class="a" cx="1.161" cy="1.161" r="1.161" transform="translate(267.629 51.504)"/></g><path class="h" d="M200,151H-6.259A16.318,16.318,0,0,1,9.324,125.719,29.058,29.058,0,0,1,38.01,92.925a28.876,28.876,0,0,1,18.851,7.007A56.127,56.127,0,0,1,112.145,53a55.578,55.578,0,0,1,31.866,9.97,56.165,56.165,0,0,1,20.27,25.591A48.836,48.836,0,0,1,200,89.581V151Z" transform="translate(644 162)"/><path class="h" d="M220.681,66H11.868A10.88,10.88,0,0,1,10,59.888a11.059,11.059,0,0,1,11.093-11,11.3,11.3,0,0,1,1.4.086A19.558,19.558,0,0,1,42.045,26.888,19.825,19.825,0,0,1,54.9,31.607,37.84,37.84,0,0,1,67.765,9.078,38.474,38.474,0,0,1,114.3,6.714,37.9,37.9,0,0,1,128.12,23.949a33.529,33.529,0,0,1,36.866,9.929,27.263,27.263,0,0,1,41.675-4A26.6,26.6,0,0,1,214.6,48.888c0,.813-.037,1.635-.111,2.444h.111v.308A9.75,9.75,0,0,1,220.682,66Z" transform="translate(-62 121)"/></g></svg>