<svg xmlns="http://www.w3.org/2000/svg" width="170.708" height="44.068" viewBox="0 0 170.708 44.068"><defs><style>.a{fill:#1262ba;}.b{fill:#0d3663;}.c{fill:#00c12d;}.d{fill:#008f21;}</style></defs><g transform="translate(-87.866 -17.667)"><g transform="translate(87.866 17.667)"><g transform="translate(0 0)"><path class="a" d="M11.957,43.982h0L0,41.658V0L11.957,2.324Z" transform="translate(21.991 0) rotate(30)"/><path class="b" d="M1132.929,124.063l-9.964,0,5.305,8.1Z" transform="translate(-1110.933 -124.063)"/></g><g transform="translate(16.184 0)"><path class="c" d="M11.957,43.982h0L0,41.658V0L11.957,2.324Z" transform="translate(10.355 44.068) rotate(-150)"/><path class="d" d="M9.964,0,0,0l5.305,8.1Z" transform="translate(20.314 44.068) rotate(180)"/></g></g><path class="a" d="M-42.854-19.8v3.808h-8.12v4.34H-44.7v3.64h-6.272V0h-4.788V-19.8Zm2.016-.224a2.337,2.337,0,0,1,.784-1.806,2.958,2.958,0,0,1,2.072-.714,2.958,2.958,0,0,1,2.072.714,2.337,2.337,0,0,1,.784,1.806,2.306,2.306,0,0,1-.784,1.778,2.958,2.958,0,0,1-2.072.714,2.958,2.958,0,0,1-2.072-.714A2.306,2.306,0,0,1-40.838-20.02Zm5.236,4.4V0H-40.39V-15.624Zm13.216-.168A5.408,5.408,0,0,1-18.116-14a7.188,7.188,0,0,1,1.582,4.928V0h-4.788V-8.512a3.444,3.444,0,0,0-.826-2.45,2.869,2.869,0,0,0-2.2-.882,2.992,2.992,0,0,0-2.31.924,3.737,3.737,0,0,0-.854,2.632V0H-32.3V-15.624h4.788v2.856a5.154,5.154,0,0,1,2-2.212A5.872,5.872,0,0,1-22.386-15.792Zm14.952-.028a5.656,5.656,0,0,1,3.08.812A4.882,4.882,0,0,1-2.45-12.8v-2.828H2.31V0H-2.45V-2.828a4.882,4.882,0,0,1-1.9,2.212A5.656,5.656,0,0,1-7.434.2,6.328,6.328,0,0,1-10.892-.77,6.609,6.609,0,0,1-13.3-3.556a9.656,9.656,0,0,1-.882-4.256,9.633,9.633,0,0,1,.882-4.27,6.625,6.625,0,0,1,2.408-2.772A6.328,6.328,0,0,1-7.434-15.82Zm1.54,4.2a3.225,3.225,0,0,0-2.478,1.008,3.952,3.952,0,0,0-.938,2.8,3.952,3.952,0,0,0,.938,2.8A3.225,3.225,0,0,0-5.894-4,3.237,3.237,0,0,0-3.416-5.04,3.9,3.9,0,0,0-2.45-7.812,3.891,3.891,0,0,0-3.416-10.6,3.259,3.259,0,0,0-5.894-11.62Zm21.42-4.172A5.408,5.408,0,0,1,19.8-14a7.188,7.188,0,0,1,1.582,4.928V0H16.59V-8.512a3.444,3.444,0,0,0-.826-2.45,2.869,2.869,0,0,0-2.2-.882,2.992,2.992,0,0,0-2.31.924A3.737,3.737,0,0,0,10.4-8.288V0H5.614V-15.624H10.4v2.856a5.154,5.154,0,0,1,2-2.212A5.872,5.872,0,0,1,15.526-15.792ZM31.6-15.82a7.76,7.76,0,0,1,5.068,1.666,7.387,7.387,0,0,1,2.576,4.578H34.174a2.674,2.674,0,0,0-.924-1.568,2.735,2.735,0,0,0-1.764-.56,2.559,2.559,0,0,0-2.072.994,4.487,4.487,0,0,0-.812,2.9,4.487,4.487,0,0,0,.812,2.9,2.559,2.559,0,0,0,2.072.994,2.735,2.735,0,0,0,1.764-.56,2.674,2.674,0,0,0,.924-1.568h5.068A7.387,7.387,0,0,1,36.666-1.47,7.76,7.76,0,0,1,31.6.2,8.4,8.4,0,0,1,27.524-.77a6.9,6.9,0,0,1-2.786-2.786A8.644,8.644,0,0,1,23.73-7.812a8.722,8.722,0,0,1,.994-4.27,6.812,6.812,0,0,1,2.786-2.772A8.478,8.478,0,0,1,31.6-15.82ZM56.574-8.232a6.6,6.6,0,0,1-.14,1.288H45.6a3.621,3.621,0,0,0,.9,2.534,2.89,2.89,0,0,0,2.072.77,2.832,2.832,0,0,0,1.764-.532,2.484,2.484,0,0,0,.924-1.372h5.068A6.622,6.622,0,0,1,54.978-2.59,7.163,7.163,0,0,1,52.346-.546,8.334,8.334,0,0,1,48.79.2,8.4,8.4,0,0,1,44.716-.77,6.9,6.9,0,0,1,41.93-3.556a8.644,8.644,0,0,1-1.008-4.256,8.722,8.722,0,0,1,.994-4.27A6.812,6.812,0,0,1,44.7-14.854a8.478,8.478,0,0,1,4.088-.966,8.475,8.475,0,0,1,4.088.952,6.726,6.726,0,0,1,2.73,2.674A7.96,7.96,0,0,1,56.574-8.232ZM51.73-8.96a2.879,2.879,0,0,0-.826-2.31,3.041,3.041,0,0,0-2.114-.77,3.135,3.135,0,0,0-2.184.784,3.282,3.282,0,0,0-.98,2.3Z" transform="translate(202 52)"/></g></svg>