<svg xmlns="http://www.w3.org/2000/svg" xmlns:xlink="http://www.w3.org/1999/xlink" width="242.023" height="184.017" viewBox="0 0 242.023 184.017"><defs><style>.a{fill:#504f60;}.b{opacity:0.2;}.c{fill:#6c63ff;}.d{fill:#514e7f;}.e{fill:#464353;}.f{fill:#a1616a;}.g{fill:#97c8ff;}.h{fill:#037bff;}.i,.v{opacity:0.1;}.j{fill:#33323d;}.k{fill:#8dd070;}.l{fill:url(#a);}.m{fill:url(#b);}.n{fill:#fbbebe;}.o,.s{opacity:0.05;}.p{fill:#3f3d56;}.q{fill:url(#c);}.r{fill:#2d293d;}.t{fill:#ffcdd3;}.u{fill:#575988;}.w{fill:url(#d);}.x{fill:#f44;}</style><linearGradient id="a" x1="0.5" x2="0.5" y2="1" gradientUnits="objectBoundingBox"><stop offset="0" stop-color="#a4ec85"/><stop offset="1" stop-color="#5d9842"/></linearGradient><linearGradient id="b" x1="0.5" x2="0.5" y2="1" gradientUnits="objectBoundingBox"><stop offset="0" stop-color="#6a678e"/><stop offset="1" stop-color="#3a3a3e"/></linearGradient><linearGradient id="c" x1="0.5" y1="1" x2="0.5" gradientUnits="objectBoundingBox"><stop offset="0" stop-color="gray" stop-opacity="0.251"/><stop offset="0.54" stop-color="gray" stop-opacity="0.122"/><stop offset="1" stop-color="gray" stop-opacity="0.102"/></linearGradient><linearGradient id="d" x1="0.5" x2="0.5" y2="1" gradientUnits="objectBoundingBox"><stop offset="0" stop-color="#f44"/><stop offset="1" stop-color="#e22424"/></linearGradient></defs><g transform="translate(-18.497)"><path class="a" d="M808.317,650.594c0,1.6-9.355,6.284-20.467,6.284s-19.77-4.679-19.77-6.284,9.007-1.088,20.129-1.088S808.317,648.986,808.317,650.594Z" transform="translate(-582.122 -504.93)"/><path class="b" d="M808.317,653.72c0,1.6-9.355,6.284-20.467,6.284s-19.77-4.679-19.77-6.284" transform="translate(-582.122 -508.056)"/><path class="c" d="M502.535,534.048a12.419,12.419,0,0,0,5.4-.182c.272-.084.571-.272.544-.544a.658.658,0,0,0-.122-.272,16.808,16.808,0,0,1-1.632-3.109.272.272,0,0,0-.1-.141.256.256,0,0,0-.174,0c-.8.209-1.485.724-2.277.944a3.238,3.238,0,0,1-1.24.093c-.359-.041-.849-.337-1.175-.3C501.945,531.725,502.4,532.835,502.535,534.048Z" transform="translate(-388.246 -417.833)"/><path class="c" d="M624.7,517.879a9.439,9.439,0,0,0,3.123-2.932.508.508,0,0,0,.084-.253.522.522,0,0,0-.1-.245,10.108,10.108,0,0,0-2.538-2.739,7.406,7.406,0,0,0-1.414,1.306c-.3.316-1.126.816-1.134,1.3,0,.272.316.588.462.816.2.294.386.593.566.9A10.656,10.656,0,0,1,624.7,517.879Z" transform="translate(-476.303 -404.676)"/><path class="d" d="M481.275,542.886a1.211,1.211,0,0,1-.218.789,1.069,1.069,0,0,1-.457.272c-2.522.9-5.44-.223-7.957.667-.517.182-1.006.446-1.526.62a8.3,8.3,0,0,1-1.9.337c-.89.084-1.784.139-2.677.163a6.436,6.436,0,0,1-2.018-.177,2.424,2.424,0,0,1-1.548-1.227,1.178,1.178,0,0,1-.076-.873.942.942,0,0,1,.166-.272,2.386,2.386,0,0,1,.593-.481l.928-.6a6.227,6.227,0,0,1,1.406-.745c.367-.12.756-.171,1.129-.272a7.663,7.663,0,0,0,3.223-2.407l1.262-1.346a1.27,1.27,0,0,1,.438-.351,1.213,1.213,0,0,1,.544-.052,7.274,7.274,0,0,1,3.441,1.153,4.457,4.457,0,0,0,.849.5,3.03,3.03,0,0,0,2.372-.294c.324-.174.253-.272.389-.582s.468-.509.756-.226a.8.8,0,0,1,.18.343,9.648,9.648,0,0,1,.169,2.8,1.236,1.236,0,0,0,.054.435,2.467,2.467,0,0,0,.248.4.917.917,0,0,1,.052.1,2.767,2.767,0,0,1,.182,1.314Z" transform="translate(-359.916 -423.029)"/><path class="e" d="M481.275,555.312a1.211,1.211,0,0,1-.218.789,1.069,1.069,0,0,1-.457.272c-2.522.9-5.44-.223-7.957.667-.517.182-1.006.446-1.526.62a8.3,8.3,0,0,1-1.9.337c-.89.084-1.784.139-2.677.163a6.436,6.436,0,0,1-2.018-.177,2.424,2.424,0,0,1-1.548-1.227,1.178,1.178,0,0,1-.076-.873.942.942,0,0,1,.166-.272c.147.307.253.715.345.862a1.766,1.766,0,0,0,1.181.851,2.933,2.933,0,0,0,1.088-.139c2.285-.566,4.714-.574,6.909-1.431a15.972,15.972,0,0,1,2.263-.87,17.788,17.788,0,0,1,2.448-.2c1.289-.1,2.538-.492,3.808-.7a2.766,2.766,0,0,1,.171,1.322Z" transform="translate(-359.916 -435.455)"/><path class="d" d="M613.005,522.124a4.585,4.585,0,0,1-1.393,2.481,16.22,16.22,0,0,0-1.95,2.133c-.653,1-.947,2.236-1.8,3.079a4.924,4.924,0,0,1-1.088.775,7.6,7.6,0,0,1-1.4.645,10.452,10.452,0,0,1-3.958.215,3.559,3.559,0,0,1-1.257-.242,3.785,3.785,0,0,1-.522-.321,2.494,2.494,0,0,1-.816-.816.816.816,0,0,1-.079-.593,1.394,1.394,0,0,1,.378-.577,8.979,8.979,0,0,1,.958-.862,5.731,5.731,0,0,0,1.246-1.088,3.512,3.512,0,0,0,.481-1.088,9.645,9.645,0,0,0,.351-2.081,6.593,6.593,0,0,1,.144-1.393c.2-.718.734-1.36.675-2.1a.525.525,0,0,1,.027-.318.443.443,0,0,1,.25-.155,4.436,4.436,0,0,1,1.3-.3,1.515,1.515,0,0,1,1.208.473c.185.223.307.544.579.631a.92.92,0,0,0,.413.016,3.464,3.464,0,0,0,1.9-.585,2.375,2.375,0,0,0,.789-1.733c0-.247-.112-.506.272-.544.288-.038.517.272.664.462a6.444,6.444,0,0,1,1.273,2.318.683.683,0,0,1,.242-.046,1.053,1.053,0,0,1,.868.443A1.727,1.727,0,0,1,613.005,522.124Z" transform="translate(-458.832 -409.086)"/><path class="e" d="M613.28,529.339a4.585,4.585,0,0,1-1.393,2.481,16.224,16.224,0,0,0-1.95,2.133c-.653,1-.947,2.236-1.8,3.079a4.927,4.927,0,0,1-1.088.775,7.6,7.6,0,0,1-1.4.645,10.453,10.453,0,0,1-3.958.215,3.56,3.56,0,0,1-1.257-.242,3.785,3.785,0,0,1-.522-.321,2.494,2.494,0,0,1-.816-.816,1.988,1.988,0,0,1,.816-.2c.588.033,1.017.588,1.58.759.8.242,1.6-.324,2.416-.517.53-.125,1.088-.092,1.613-.272a3.989,3.989,0,0,0,1.194-.724A6.078,6.078,0,0,0,608,535.109a7.9,7.9,0,0,0,.748-1.493,21.36,21.36,0,0,1,1.512-2.894,2.045,2.045,0,0,1,.307-.4,4.287,4.287,0,0,1,.416-.3,3.162,3.162,0,0,0,.96-1.752,3.064,3.064,0,0,1,.215-.585,1.053,1.053,0,0,1,.868.443A1.727,1.727,0,0,1,613.28,529.339Z" transform="translate(-459.108 -416.301)"/><path class="f" d="M438.7,204.012a5.77,5.77,0,0,1,1.632,1.9c.381.745,2.576,6.528,2.448,7.369.715-.721,3.536-.838,4.26-1.559.3-.3,1.931-1.809,2.176-2.16s2.062-1.088,2.26-1.458c.743-1.33-5.266-6.371-4.5-7.685a.343.343,0,0,0,.063-.207.337.337,0,0,0-.1-.16,9.01,9.01,0,0,0-1.738-1.189,2.757,2.757,0,0,1-1.325-1.578,5.712,5.712,0,0,0-1.537,1.039q-1.654,1.417-3.251,2.892c-.416.386-1.221.9-1.415,1.453C437.449,203.266,438.3,203.688,438.7,204.012Z" transform="translate(-341.568 -175.784)"/><path class="g" d="M457.04,214.13a17.7,17.7,0,0,0-2.573,2.105,5.122,5.122,0,0,0-1.632,2.622c-.076.405-.065.816-.128,1.227-.272,1.782-1.812,3.087-2.492,4.755a8.245,8.245,0,0,0-.432,1.591,18.81,18.81,0,0,0-.313,3.123c-.016,1.015.979,1.714,1.344,2.66a16.241,16.241,0,0,1,.647,2.892,34.263,34.263,0,0,0,1.632,5.359c1.341,3.7,5.688,13.946,7.029,17.654,4.11-1.031,15.051-3.4,18.69-5.574,1.213-.724-8.419-8.887-7.121-9.45a.484.484,0,0,0,.365-.683c-1.3-5.674-5.356-10.337-7.2-15.861a48.131,48.131,0,0,0-2.658-5.378c-.789-1.651-1.211-3.476-2.154-5.046a3.183,3.183,0,0,0-.688-.857,4.059,4.059,0,0,0-.759-.46C458.06,214.549,457.559,214.394,457.04,214.13Z" transform="translate(-350.179 -188.043)"/><circle class="f" cx="6.433" cy="6.433" r="6.433" transform="translate(90.917 14.716)"/><path class="e" d="M466.4,205.56a2.157,2.157,0,0,1,2.418-.348,1.169,1.169,0,0,1,.718,1.162l3.191.049a6.407,6.407,0,0,1,1.512.139,2.2,2.2,0,0,1,1.262.792c.038.052.082.114.147.122a.234.234,0,0,0,.147-.049,2.769,2.769,0,0,1,1.589-.272,8.582,8.582,0,0,1,4.671,2.051,1.51,1.51,0,0,1,.544.677c.112.362-.022.816.272,1.074,0,2.992,1.028,5.789,1.714,8.7a3.9,3.9,0,0,0,.966,1.387,5.6,5.6,0,0,1,1.031,1.54c.582,1.512-.22,3.291.346,4.809a8.24,8.24,0,0,0,1.088,1.727,4.467,4.467,0,0,1,.93,2.231c.024.365-.022.732,0,1.088a6.586,6.586,0,0,0,.272,1.444q.348,1.317.729,2.63c.413,1.415.952,2.941,2.22,3.694-3.06.52-6.286,1.028-9.2-.035a4.772,4.772,0,0,1-1.148-.574,6.614,6.614,0,0,1-2.016-3.248,15.337,15.337,0,0,1-1.123-4.192,4.813,4.813,0,0,0-.193-1.36,3.873,3.873,0,0,0-1.806-1.7,8.672,8.672,0,0,1-2.176-1.692,3.381,3.381,0,0,1-.881-2.541c.054-.449.231-.881.248-1.333a1.044,1.044,0,0,0-.617-1.088c-2.228-.675-3.291-3.313-3.786-5.587a17.939,17.939,0,0,1-.286-3.563l-.03-2.32a3.063,3.063,0,0,1-1-2.2,2.614,2.614,0,0,0-.014-.729,2.01,2.01,0,0,0-.511-.775A6.92,6.92,0,0,1,466.4,205.56Z" transform="translate(-362.505 -181.389)"/><path class="e" d="M440.011,229.013a17.813,17.813,0,0,1-.071,2.16c-.063.272-.171.544-.25.8a4.679,4.679,0,0,0,.3,3.028,16.865,16.865,0,0,0,1.548,2.679,4.353,4.353,0,0,1,.5.928,4.8,4.8,0,0,1,.19,1.058,32.866,32.866,0,0,0,.756,4.276c.3,1.219,3.765,11.637,4.57,12.6a1.025,1.025,0,0,0,.62.422,1.129,1.129,0,0,0,.528-.109l1.632-.626a1.067,1.067,0,0,0,.378-.207.974.974,0,0,0,.234-.642c.117-1.327-3.351-11.819-3.792-13.073-1.333-3.787-3.106-7.437-3.974-11.357-.242-1.088-.37-2.764-1.167-3.631-.329-.359-.218-.207-.612-.019a4.466,4.466,0,0,0-.577.3A1.888,1.888,0,0,0,440.011,229.013Z" transform="translate(-342.968 -197.486)"/><path class="e" d="M556.62,320.79" transform="translate(-428.183 -265.69)"/><path class="h" d="M458.388,230.744c.438,2.315.889,4.624,1.338,6.939l6.387-1.673a4.489,4.489,0,0,0-.544-1.9c-.582-1.461-.6-3.087-1.066-4.589-.356-1.142-.977-2.192-1.311-3.343-.193-.669-.291-1.36-.481-2.037a14.8,14.8,0,0,0-.751-1.945,12.175,12.175,0,0,0-1.393-2.581,4.061,4.061,0,0,0-2.152,1.4,3.014,3.014,0,0,0-.4,1.36c-.112,1.434.408,2.875.237,4.3A12.649,12.649,0,0,0,458.388,230.744Z" transform="translate(-356.391 -192.033)"/><path class="e" d="M478.712,336.786a7.628,7.628,0,0,1-.585,4.137,32.067,32.067,0,0,0-1.3,6.229,5.389,5.389,0,0,1-.321,1.575c-.2.454-.544.838-.778,1.27a6.38,6.38,0,0,0-.487,3.825c.092.857.231,1.711.4,2.554a6.461,6.461,0,0,1,.166,3.115c.506-.112.849.544.816,1.058a2.823,2.823,0,0,0,.049,1.531c.626.229.631,1.088.612,1.755a14.758,14.758,0,0,0,.435,3.427q1.42,6.828,3.014,13.617c2.3.713,4.983,1.455,7.176.468a1.439,1.439,0,0,0,.909-.914,1.594,1.594,0,0,0-.087-.7l-1.039-3.781a6.943,6.943,0,0,1-.373-2.8c.1-.7.405-1.453.063-2.07-.117-.212-.3-.378-.438-.579-.544-.8-.258-1.863-.215-2.829a2.241,2.241,0,0,0-.044-.647,3.231,3.231,0,0,0-.31-.71,10.859,10.859,0,0,1-1.2-5.4,1.336,1.336,0,0,0-.1-.7,2.274,2.274,0,0,1-.177-.288.789.789,0,0,1,.057-.52,4.761,4.761,0,0,1-.838-.816,1.172,1.172,0,0,0,.2-1.833.612.612,0,0,0,.291-1.053c-.133-.092-.31-.133-.405-.272-.147-.2-.027-.481.092-.7l.634-1.145c.473-.851.579-1.9,1.088-2.72a20.387,20.387,0,0,0,1.676-3.825l1.831-5.051,1.232,1.069a3.9,3.9,0,0,1,1.012,1.153,4.977,4.977,0,0,1,.329,1.382c.452,2.742,2.176,5.119,2.815,7.821a5.152,5.152,0,0,0,.582,1.746,3.812,3.812,0,0,1,.332.5,2.655,2.655,0,0,1,.139.83,3.871,3.871,0,0,0,1.632,2.775c.607.416,1.36.7,1.689,1.36a2.536,2.536,0,0,0,.272.579c.294.354.928.394,1.053.838.071.248-.06.544.079.762a.721.721,0,0,0,.3.226l1.771.884c1.98.99,2.992,3.264,4.453,4.921a10.609,10.609,0,0,1,1.333,1.763c.631,1.129.922,2.546,1.988,3.264a3.008,3.008,0,0,1,.773.574c.335.441.212,1.058.242,1.613s.454,1.216.982,1.047a3.872,3.872,0,0,0,0,2.054,10.337,10.337,0,0,0,6.273-2.541,2.475,2.475,0,0,0,1.02-1.714.614.614,0,0,0-.076-.34.971.971,0,0,0-.4-.3c-1.657-.9-2.154-2.979-2.992-4.668a40.443,40.443,0,0,0-2.72-4.159c-1.969-2.979-3.313-6.583-6.292-8.55a4.282,4.282,0,0,1-1.746-1.531c-.182-.4-.2-.857-.348-1.27a1.1,1.1,0,0,0-.93-.816,5.7,5.7,0,0,0,.212-1.975,2.494,2.494,0,0,0-.1-.851,4.14,4.14,0,0,0-.438-.843,8.09,8.09,0,0,1-1.121-4.352,7.135,7.135,0,0,0-.076-2.348c-.12-.378-.329-.724-.473-1.088a6.8,6.8,0,0,1-.34-2.046l-.163-2.614a12.86,12.86,0,0,0-.337-2.584c-.544-2.029-1.088-10.53-2.951-11.487s-5.065,5.585-7.162,5.712a9.329,9.329,0,0,0-2.72.525,13.252,13.252,0,0,0-3.7,2.448L481.1,335A14.213,14.213,0,0,1,478.712,336.786Z" transform="translate(-368.884 -267.283)"/><path class="e" d="M415.771,164.824A4.849,4.849,0,0,1,419.514,163a8.718,8.718,0,0,1,4.137,1.039,5.112,5.112,0,0,0,1.208.5c.68.139,1.436-.046,2.051.272a2.457,2.457,0,0,1,.9,2.448,4.5,4.5,0,0,0,.245,2.72,6.291,6.291,0,0,1,.471.71,2.348,2.348,0,0,1-.038,1.512,9.8,9.8,0,0,1-.781-1,.92.92,0,0,0-1.126-.291c-.351.237-.345.666-.365,1.053s-.117.849-.481.974a.781.781,0,0,1-.816-.318c-.623-.762-.373-1.978-.99-2.745-.351-.435-.936-.647-1.259-1.1-.256-.359-.321-.816-.544-1.2s-.743-.669-1.088-.4a1.472,1.472,0,0,0-.291.389,1.673,1.673,0,0,1-1.986.6,3.321,3.321,0,0,0-.86-.373,1.064,1.064,0,0,0-.982.544,2.124,2.124,0,0,0-.272,1.137,2.62,2.62,0,0,1-.212,1.559,1.613,1.613,0,0,1-.435.413,1.355,1.355,0,0,1-1.507.155,1.132,1.132,0,0,1-.337-1.055,8.527,8.527,0,0,1,.321-1.115c.239-.843-.073-1.793.188-2.587A8.258,8.258,0,0,1,415.771,164.824Z" transform="translate(-324.457 -150.818)"/><path class="h" d="M432.765,209.247a.99.99,0,0,0,.06.59.938.938,0,0,0,.321.307,6.6,6.6,0,0,0,3.03.982.922.922,0,0,1,.419.109.737.737,0,0,1,.177.843,2.2,2.2,0,0,0-.193.9c.079.569.754.816,1.322.9a3.075,3.075,0,0,0,2.3-.449,3.555,3.555,0,0,0,.949-1.423c1.561-3.588,2.108-7.554,3.689-11.131a2.361,2.361,0,0,0,.237-.745.734.734,0,0,0-.294-.685c-.294-.182-.751-.079-.949-.365-.1-.144-.087-.34-.174-.492-.182-.324-.661-.272-.987-.46-.256-.136-.432-.416-.718-.471a.9.9,0,0,0-.743.321,9.565,9.565,0,0,0-1.931,3.251,38.106,38.106,0,0,1-2.764,5.125,2.988,2.988,0,0,0-.865-1.695c-.487-.1-1.11.756-1.374,1.074a6.844,6.844,0,0,0-1.512,3.514Z" transform="translate(-338.005 -176.05)"/><path class="i" d="M461.033,200.32a1.3,1.3,0,0,0-1.009.506,2.878,2.878,0,0,0-.422,1.36,11.819,11.819,0,0,1-1.6,4.3" transform="translate(-356.39 -177.99)"/><path class="i" d="M466.3,204.31a1.553,1.553,0,0,0-1.319.792,4.448,4.448,0,0,0-.332,1.344,7.375,7.375,0,0,1-1.319,2.826" transform="translate(-360.27 -180.895)"/><path class="j" d="M304.642,365.675V362.3a9.379,9.379,0,0,0-9.379-9.377H161.839a9.379,9.379,0,0,0-9.379,9.377v6.229Z" transform="translate(-133.963 -289.08)"/><path class="k" d="M323.366,282.621s-.381,23.628,3.808,31.4,5.984,41.595,5.984,41.595,43.915,4.543,74.517-5.44,95.718-14.066,95.718-14.066l-10.973-73.959s-54.211-3.476-85.05,11.232S323.366,282.621,323.366,282.621Z" transform="translate(-258.372 -222.741)"/><path class="i" d="M323.366,282.621s-.381,23.628,3.808,31.4,5.984,41.595,5.984,41.595,43.915,4.543,74.517-5.44,95.718-14.066,95.718-14.066l-10.973-73.959s-54.211-3.476-85.05,11.232S323.366,282.621,323.366,282.621Z" transform="translate(-258.372 -222.741)"/><path class="k" d="M358.4,305.228s-1.374,19.5,2.073,25.725,3.607,34.038,3.607,34.038,39.522,1.833,67.635-7.736S518.9,341.477,518.9,341.477l-6.713-60.484s-48.882-.5-77.411,12.967S358.4,305.228,358.4,305.228Z" transform="translate(-283.684 -236.717)"/><ellipse class="i" cx="10.261" cy="22.006" rx="10.261" ry="22.006" transform="translate(135.037 67.056) rotate(-7.1)"/><path class="b" d="M421.819,130.66s-52.666,13.329-77.5,36.791S267.2,202.022,267.2,202.022s6.888,22.6,13.258,28.717S298.912,268.5,298.912,268.5s43.189-9.156,69.248-28.056,86.793-42.77,86.793-42.77Z" transform="translate(-217.491 -127.279)"/><path class="k" d="M264.29,189.589s6.885,22.6,13.25,28.72,18.454,37.754,18.454,37.754,43.194-9.153,69.256-28.053,86.791-42.762,86.791-42.762L418.906,118.23s-52.663,13.329-77.5,36.791S264.29,189.589,264.29,189.589Z" transform="translate(-215.373 -118.23)"/><path class="i" d="M264.29,189.589s6.885,22.6,13.25,28.72,18.454,37.754,18.454,37.754,43.194-9.153,69.256-28.053,86.791-42.762,86.791-42.762L418.906,118.23s-52.663,13.329-77.5,36.791S264.29,189.589,264.29,189.589Z" transform="translate(-215.373 -118.23)"/><path class="l" d="M308,211.763s4.676,18.979,9.869,23.848,13.873,31.282,13.873,31.282,38.175-10.386,62-28.121,78.149-41.747,78.149-41.747L446.94,141.5s-46.676,14.518-69.7,36.094S308,211.763,308,211.763Z" transform="translate(-247.193 -135.17)"/><ellipse class="i" cx="10.261" cy="22.006" rx="10.261" ry="22.006" transform="translate(117.783 56.696) rotate(-24.97)"/><path class="i" d="M308.265,386.681v93.847a8.114,8.114,0,0,1-8.117,8.114H160.6a8.114,8.114,0,0,1-8.112-8.114V377.22c4,1.485,4,1.485,8.112,1.36H300.148A8.117,8.117,0,0,1,308.265,386.681Z" transform="translate(-133.984 -306.77)"/><path class="m" d="M308.265,391.064V484.91a8.117,8.117,0,0,1-8.117,8.114H160.6a8.114,8.114,0,0,1-8.112-8.114V381.6c4,1.483,4,1.483,8.112,1.36H300.148a8.117,8.117,0,0,1,8.117,8.1Z" transform="translate(-133.984 -309.958)"/><path class="i" d="M605.633,543.936v30.012H576.527a15.007,15.007,0,1,1,0-30.013Z" transform="translate(-431.75 -428.135)"/><path class="j" d="M607.093,541v30.017H577.987a15.007,15.007,0,1,1,0-30.013Z" transform="translate(-432.813 -425.998)"/><circle class="i" cx="5.851" cy="5.851" r="5.851" transform="translate(140.719 124.958)"/><circle class="h" cx="5.851" cy="5.851" r="5.851" transform="translate(141.116 124.163)"/><path class="n" d="M859.887,528.811c.231,2.505-1.665,4.937-1.113,7.391.12.525.345,1.02.427,1.551.229,1.458-.639,2.837-1.469,4.056l-7.127,10.456a6.492,6.492,0,0,1-1.017,1.257c-1.36,1.213-3.406,1.088-5.2,1.45a8.879,8.879,0,0,0-3.482,1.54.223.223,0,0,0-.033.3,2.992,2.992,0,0,0,2.59,1.216c.188.248,0,.609-.272.786-.384.272-.909.337-.985.985a1.069,1.069,0,0,0,.131.653,2.026,2.026,0,0,0,1.246.868c2.467.754,5.133-.571,6.98-2.375s3.172-4.08,4.983-5.916c1-1.015,2.144-1.885,3.177-2.87a36.372,36.372,0,0,0,5.212-6.743,7.525,7.525,0,0,0,1.129-2.3c.2-.835.1-1.678.324-2.486a9.158,9.158,0,0,1,1.708-2.794,9.242,9.242,0,0,0,1.942-6.014,5.766,5.766,0,0,0-3.52-4.992,3.128,3.128,0,0,0-1.972-.12,4.685,4.685,0,0,0-2.008,1.6l-1.36,1.564a3.669,3.669,0,0,0-.789,1.2,1.254,1.254,0,0,0,.272,1.33" transform="translate(-635.084 -414.068)"/><path class="o" d="M859.887,528.811c.231,2.505-1.665,4.937-1.113,7.391.12.525.345,1.02.427,1.551.229,1.458-.639,2.837-1.469,4.056l-7.127,10.456a6.492,6.492,0,0,1-1.017,1.257c-1.36,1.213-3.406,1.088-5.2,1.45a8.879,8.879,0,0,0-3.482,1.54.223.223,0,0,0-.033.3,2.992,2.992,0,0,0,2.59,1.216c.188.248,0,.609-.272.786-.384.272-.909.337-.985.985a1.069,1.069,0,0,0,.131.653,2.026,2.026,0,0,0,1.246.868c2.467.754,5.133-.571,6.98-2.375s3.172-4.08,4.983-5.916c1-1.015,2.144-1.885,3.177-2.87a36.372,36.372,0,0,0,5.212-6.743,7.525,7.525,0,0,0,1.129-2.3c.2-.835.1-1.678.324-2.486a9.158,9.158,0,0,1,1.708-2.794,9.242,9.242,0,0,0,1.942-6.014,5.766,5.766,0,0,0-3.52-4.992,3.128,3.128,0,0,0-1.972-.12,4.685,4.685,0,0,0-2.008,1.6l-1.36,1.564a3.669,3.669,0,0,0-.789,1.2,1.254,1.254,0,0,0,.272,1.33" transform="translate(-635.084 -414.068)"/><path class="p" d="M914.057,769.4a8.25,8.25,0,0,1-5.3.786c-.291-.035-.637-.057-.816.169-.272.326.049.816.381,1.069a7.847,7.847,0,0,0,3.642,1.5,23.983,23.983,0,0,0,3.563.237,60.246,60.246,0,0,0,9.741-.356,1.379,1.379,0,0,0,.544-.158,1,1,0,0,0,.4-.612,2.428,2.428,0,0,0-.846-2.318,7.1,7.1,0,0,0-2.271-1.219l-2.829-1.1a7.269,7.269,0,0,0-2.448-.889C916.462,766.6,915.181,768.738,914.057,769.4Z" transform="translate(-683.86 -590.157)"/><path class="o" d="M914.057,769.4a8.25,8.25,0,0,1-5.3.786c-.291-.035-.637-.057-.816.169-.272.326.049.816.381,1.069a7.847,7.847,0,0,0,3.642,1.5,23.983,23.983,0,0,0,3.563.237,60.246,60.246,0,0,0,9.741-.356,1.379,1.379,0,0,0,.544-.158,1,1,0,0,0,.4-.612,2.428,2.428,0,0,0-.846-2.318,7.1,7.1,0,0,0-2.271-1.219l-2.829-1.1a7.269,7.269,0,0,0-2.448-.889C916.462,766.6,915.181,768.738,914.057,769.4Z" transform="translate(-683.86 -590.157)"/><path class="e" d="M932.249,596.127c-1.178,1.567-2.4,3.376-2.105,5.315a11.844,11.844,0,0,0,1.172,2.932A20.691,20.691,0,0,1,932.5,608.5c.441,2.051.884,4.107,1.153,6.191.307,2.353-1.137,9.162-1.27,11.531a2.437,2.437,0,0,1-.5,1.6c-.155.163-.362.294-.432.506a.865.865,0,0,0,.1.6,6.583,6.583,0,0,0,3.536,3.248,27.968,27.968,0,0,0,6.82,1.793,1.359,1.359,0,0,0,.642-.084,1.249,1.249,0,0,0,.5-.569c1.183-2.263.046-10.31.063-12.864.016-2.13.52-4.246.427-6.373-.076-1.708-.544-3.378-.7-5.081a29.987,29.987,0,0,1,.753-8.354c.392-2.116.786-4.233,1.289-6.322a12.136,12.136,0,0,1,1.36-3.67c.544-.879,1.308-1.613,1.942-2.448a11.05,11.05,0,0,0,2.176-8.09c-.038-.272-4.08,1.026-4.437,1.181a13.823,13.823,0,0,0-3.955,2.543,33.245,33.245,0,0,0-2.492,3.082q-1.738,2.119-3.433,4.268Q934.1,593.64,932.249,596.127Z" transform="translate(-700.069 -454.442)"/><path class="o" d="M932.249,595.813c-1.178,1.567-2.4,3.378-2.105,5.315a11.821,11.821,0,0,0,1.172,2.935,20.663,20.663,0,0,1,1.186,4.121c.441,2.054.884,4.11,1.153,6.191.307,2.356-1.137,9.162-1.27,11.531a2.444,2.444,0,0,1-.5,1.6c-.155.161-.362.291-.432.5a.863.863,0,0,0,.1.6,6.662,6.662,0,0,0,3.536,3.264,26.275,26.275,0,0,0,6.82,1.276,1.359,1.359,0,0,0,.642-.084,1.229,1.229,0,0,0,.5-.566c1.183-2.263.046-9.793.063-12.35.016-2.133.52-4.246.427-6.376-.076-1.708-.544-3.378-.7-5.079a30,30,0,0,1,.753-8.356c.392-2.114.786-4.23,1.289-6.322a12.137,12.137,0,0,1,1.36-3.67c.544-.879,1.308-1.613,1.942-2.448a11.044,11.044,0,0,0,2.176-8.09c-.038-.272-4.08,1.026-4.437,1.181a13.886,13.886,0,0,0-3.955,2.546,32.856,32.856,0,0,0-2.492,3.079q-1.738,2.119-3.433,4.271Q934.1,593.324,932.249,595.813Z" transform="translate(-700.069 -454.224)"/><circle class="n" cx="6.602" cy="6.602" r="6.602" transform="translate(212.472 93.972)"/><path class="n" d="M894.836,483.568a8.55,8.55,0,0,0,5.481,3.825l-.5,1.809c-.86,3.107-1.825,6.392-4.224,8.547a3.973,3.973,0,0,0-.669-3.09,11.648,11.648,0,0,0-2.241-2.342l-3.8-3.291a1.146,1.146,0,0,1-.272-.321.966.966,0,0,1,0-.724c.484-1.507,1.866-2.448,2.992-3.466a10.362,10.362,0,0,0,1.5-1.752C893.867,481.681,894.338,482.769,894.836,483.568Z" transform="translate(-669.815 -383.272)"/><path class="e" d="M853.446,449.383l-.15-1.24c1.042.272,2.032-.615,2.7-1.531s1.284-2,2.3-2.38c1.232-.462,2.538.272,3.716.892a11.748,11.748,0,0,0,4.263,1.387,2.8,2.8,0,0,1,.7.114,2.451,2.451,0,0,1,1.243,2.108,8.245,8.245,0,0,0,.46,2.579c.272.59.778,1.028,1.088,1.61.816,1.561.027,3.7.879,5.228l-2.116-1.939c-.193-.177-.465-.362-.68-.212-.169.12-.182.378-.25.585a1.111,1.111,0,0,1-1.507.544,4.318,4.318,0,0,1-1.36-1.232,8.256,8.256,0,0,0-3.357-2.546,4.309,4.309,0,0,0-3.536.234c-.987.558-1.711,1.858-2.922,1.9-1.659.063-2.35-3.028-3.117-4.249a1.5,1.5,0,0,0,.435-1.872C852.347,449.32,853.421,449.193,853.446,449.383Z" transform="translate(-643.068 -355.446)"/><path class="f" d="M551.93,317.484a12.849,12.849,0,0,0-1.466,1.54,3.082,3.082,0,0,0-.675,1.978,1.012,1.012,0,0,0,.19.579.49.49,0,0,0,.544.166.732.732,0,0,0,.272-.239,13.116,13.116,0,0,1,.914-.99c.117-.117.272-.239.43-.2a.459.459,0,0,1,.185.122,1.252,1.252,0,0,1,.384.6,1.41,1.41,0,0,1-.422,1.159,2.969,2.969,0,0,0-.71,1.05.465.465,0,0,0,0,.337.506.506,0,0,0,.212.18,3.036,3.036,0,0,0,2.568.169c.544-.22,1.028-.6,1.589-.794a3.675,3.675,0,0,0,.7-.272,1.458,1.458,0,0,0,.623-.933,3.846,3.846,0,0,0,.041-1.145,13.169,13.169,0,0,0-.936-4.306.544.544,0,0,0-.158-.228.5.5,0,0,0-.272-.073,6.469,6.469,0,0,0-2.511-.171,1.774,1.774,0,0,0-.593.528C552.716,316.678,551.93,317.3,551.93,317.484Z" transform="translate(-423.21 -262.144)"/><path class="e" d="M530.712,251.376c0-.664-.816-2.266.482-2.372,0-.71-1-1.151-.816-1.9.06-.25.272-.454.3-.71.082-.726-1.23-1.121-1.012-1.817.082-.272.37-.43.432-.7.147-.628-.977-.909-1-1.553,0-.218.122-.422.112-.639,0-.272-.237-.479-.367-.715-.34-.607-.174-1.545-.794-1.858.411.035.544-.574.375-.947s-.514-.7-.517-1.11a1.68,1.68,0,0,0,0-.452c-.114-.4-.764-.43-.873-.816a3.478,3.478,0,0,1-.014-.446c-.043-.307-.359-.5-.656-.59a2.674,2.674,0,0,1-.876-.313c-.19-.144-.411-.384-.615-.272-.076.046-.114.133-.171.2-.245.286-.713.16-1.02-.049a4.19,4.19,0,0,1-1.553-2.8c-.193-1.08-.188-2.2-.43-3.264a6.975,6.975,0,0,0-.294-.979,5.156,5.156,0,0,1-.457-.974c-.049-.626,1.246-.2,1.738-.136a7.741,7.741,0,0,1,1.412.272,15.092,15.092,0,0,1,1.444.634c1.964.868,4.336.974,5.914,2.432a4.957,4.957,0,0,0,1.632,1.325,7.384,7.384,0,0,1,.914.237c.748.351.865,1.344,1.273,2.062a4.044,4.044,0,0,1,.335.6,2.305,2.305,0,0,1,.109.762l.057,1.885a69.515,69.515,0,0,1-.152,9.464,7.76,7.76,0,0,0,.035,3.1c.082.272.2.528.272.8a4.894,4.894,0,0,1,.1.979l.044,1.221a.381.381,0,0,1-.06.272.392.392,0,0,1-.329.079c-1.7-.152-3.419-1.11-5.024-.53" transform="translate(-402.212 -196.651)"/><ellipse class="a" cx="20.119" cy="2.908" rx="20.119" ry="2.908" transform="translate(185.966 142.756)"/><path class="q" d="M738.24,305.935c-.354-1.515-.574-2.845-.574-2.845a5.863,5.863,0,0,0-.658-2.886v-.413h0v-3.047a10.38,10.38,0,0,1,.77-1.6c.544-.958,0-4.467,0-4.467s-2.032-4.948-1.54-8.087-4.173-13.938-4.173-13.938a13.763,13.763,0,0,1,.438-3.085,2.352,2.352,0,0,0,.06-.647v-.054c-.071-2.07-1.708-5.949-1.708-5.949l.22-7.394a21.737,21.737,0,0,0-.658-10.214c-.6-2.043-.977-3.678-1.219-4.94-.027-.141-.054-.272-.076-.411,3.506-.544,6.186-.979,6.186-.979s-2.035-8.512-3.408-10-2.473-6.172-2.473-6.172-.715-6.009.441-7.766a11.678,11.678,0,0,0,1.319-4.788s2.636-1.9,2.968-2.766a14.115,14.115,0,0,0,.879-3.776c0-1.009-.329-1.9-.22-2.448s-.77-2.554-.329-3.512a2.576,2.576,0,0,0,.174-.922.119.119,0,0,0,0-.027h0a12.922,12.922,0,0,0-.231-2.5,7.086,7.086,0,0,0-2.611-1.4l-.057-.229-.15-.6a2.906,2.906,0,0,0-.258-.152v-.218l-.024-.865.413-1.942c.816-3.378-3.7-3.882-3.7-3.882a2.38,2.38,0,0,0-1.279-1.121c-.906-.318-.15,5.081.272,5.44a21.278,21.278,0,0,1,1.779,2.785h0l.076.136a1.908,1.908,0,0,0-.207.218l.171,1.172.027.18a4.866,4.866,0,0,0-.721,1.227,2.647,2.647,0,0,1,.661,1.9,6.1,6.1,0,0,0,.272,2.339c-.049-.057-.628-.683-1.208-.53s-2.2.639-2.2.639-1.208.212-1.088.479-.816,1.436-.816,1.436l-3.248-3.079c-.033-.092-.068-.185-.1-.272a7.487,7.487,0,0,1-.272-1.36,7.432,7.432,0,0,0,1.039-.329,2.242,2.242,0,0,0,.9-.577,3.481,3.481,0,0,0,.525-1.4,20.6,20.6,0,0,1,1.205-2.688,8.738,8.738,0,0,0,.612-4.837,3.157,3.157,0,0,0-.5-1.415c-.53-.729-1.493-1.026-2.192-1.608s-1.151-1.472-1.967-1.9a3.9,3.9,0,0,0-2.464-.212,13.283,13.283,0,0,0-4.605,1.676,2.4,2.4,0,0,1-1.54.506,2.01,2.01,0,0,1-1.11-.816.054.054,0,0,0-.022-.087,5.737,5.737,0,0,0-.506,2.432,3,3,0,0,0,.016.389v.248h0a.619.619,0,0,1-.024.171,1.238,1.238,0,0,1-.3.438,2.944,2.944,0,0,0-.272.362.448.448,0,0,1,.044-.133,1.934,1.934,0,0,0-.337,1.026,1.048,1.048,0,0,0,.245.734,3.539,3.539,0,0,0,.53.424,6.189,6.189,0,0,0-.1,1.088,6.286,6.286,0,0,0,3.063,5.361c.038.09.073.182.109.272a7.745,7.745,0,0,1,.59,3.536,1.657,1.657,0,0,1-.038.256c-.014.084-.082.09-.117.136h0s-5.367.054-6.629-1.088-3.188,2.794-3.188,2.794-1.923.373-2.309,0-2.636-.052-2.636-.052a4.85,4.85,0,0,0-3.354-1.224,9.845,9.845,0,0,0-2.448-1.36h0l-.06-.022h0a2.742,2.742,0,0,0-1.211-.152,24.416,24.416,0,0,1-3.408-3.351c-.77-1.175-4.434-5.514-4.45-5.533v-.209l-.041-.631a2.261,2.261,0,0,1-.329.027c-.019-.063-.046-.136-.073-.22a12.175,12.175,0,0,0-.778-1.787s0-.8.231-1-.1-3.126-.1-3.126-2.378-5.557-4.507-1.409c0,0-4.026,2.685-.647,5.813,0,0,1.36.653,1.54,1.17.125.335.582,1.273.889,1.9l.139.272-.038.033.049.522.022.2c-.637.362-1.069.721-.963.99a5.948,5.948,0,0,1,.383,1.436s4.673,5.854,5.277,8.354c0,0,12.532,7.448,16.653,7.978l-.729,3.713a29.65,29.65,0,0,0-.163,3.033c.054.8-.5,4.415-.5,4.415s-.715,5.321-1.319,6.066-.5,3.936-.5,3.936a26.884,26.884,0,0,1-.816,4.521,11.55,11.55,0,0,0-.166,4.524s-2.086,4.788,2.913,1.542c0,0,2.448-.152,5.283-.25v.272c0,.365,0,.759-.019,1.172-.038,2.742-.054,6.528.071,9.379.22,5.054,1.76,15.056,1.76,15.056v5.035a6.854,6.854,0,0,0-.147,1.436,9.347,9.347,0,0,0,1.36,5.03l.386,3.351a13.075,13.075,0,0,1,.919,3.536,1.854,1.854,0,0,1-.038.318,2.142,2.142,0,0,0-.044.514,28.943,28.943,0,0,0,.865,5.168s.054,3.67.6,3.884c.471.182-.628,2.114-.955,2.669a.761.761,0,0,1-.019-.1l-.068.109a2.605,2.605,0,0,0-.171.93,1.333,1.333,0,0,0,.609,1.289c1.045.639,1.6,1.17.718,1.382a9.228,9.228,0,0,0-.968.2.421.421,0,0,0-.046-.122.582.582,0,0,0-.362.642,2.72,2.72,0,0,0,.324,1.235,13.472,13.472,0,0,0,1.488,2.72l.422-.046a2.056,2.056,0,0,1-.245.454,1.751,1.751,0,0,1-.62.544,1.92,1.92,0,0,1-.753.258,2.122,2.122,0,0,0-1.556.756,1.623,1.623,0,0,0,.19,2.524l3.931,1.36s6.762.879,6.4-.639-.577-2.845-.577-2.845a6,6,0,0,0-.544-2.69,3.5,3.5,0,0,0-.239-.4l.239-.025s.5-3.354,1.153-3.991c.152-.147.188-.272.152-.348.068-.182-.106-.288-.326-.351l-.049.133a3.2,3.2,0,0,0-.656-.073s-.22-1.755.5-2.394a.677.677,0,0,0,.139-.522,2.806,2.806,0,0,0-.076-.715.348.348,0,0,1-.025.044,25.773,25.773,0,0,0-1.578-4.127,5.046,5.046,0,0,1,.386-2.233c.441-.639-.057-8.672-.057-8.672a26.25,26.25,0,0,0-.329-5.691,6.387,6.387,0,0,1,.6-3.939v-.141l-.063-.612a.159.159,0,0,0,0,.038c-.112-1.028-.321-2.892-.476-3.751-.22-1.224.057-7.073.057-7.073l.987-2.5,1.76,4.312L721.867,265a4.908,4.908,0,0,1,.947,2.448v.18a3.146,3.146,0,0,0-.022.384,3.417,3.417,0,0,0,.569,2.048s.5,2.72,1.265,3.4a3.054,3.054,0,0,1,.77,2.021,35.325,35.325,0,0,0,1.36,4.624,6.876,6.876,0,0,1,.386,2.674h0v.141s.131,1.409.125,2.59v.422a.114.114,0,0,0,0-.03,4.1,4.1,0,0,1-.114.958l-.016.054a.694.694,0,0,1,.019-.2,9.994,9.994,0,0,0-.272,2.448,6.34,6.34,0,0,0,1.047,4.08c1.485,1.7,2.418,1.491,2.418,1.491s-.713,2.127-1.594,2.554a.411.411,0,0,0-.093.06.926.926,0,0,0-.022-.125,1.036,1.036,0,0,0-.272.794,5.706,5.706,0,0,0,1.088,3.153,1.776,1.776,0,0,0,.743.435,1.185,1.185,0,0,1-.139.084,2.956,2.956,0,0,1-.3.144,1.586,1.586,0,0,1-.449.117,2.1,2.1,0,0,0-1.556.756,1.62,1.62,0,0,0,.19,2.522l3.931,1.36S738.594,307.45,738.24,305.935Z" transform="translate(-514.846 -160.13)"/><path class="r" d="M798.761,643.519l-3.808-1.36a1.652,1.652,0,0,1-.185-2.524,2.035,2.035,0,0,1,1.507-.756,1.806,1.806,0,0,0,.726-.258,1.74,1.74,0,0,0,.6-.544,2.81,2.81,0,0,0,.433-1.472s4.178-1.224,5.321,0a3.092,3.092,0,0,1,.506.743,6.216,6.216,0,0,1,.544,2.69s.212,1.327.558,2.845S798.761,643.519,798.761,643.519Z" transform="translate(-601.185 -495.2)"/><path class="r" d="M867.2,636.6l-3.808-1.36a1.649,1.649,0,0,1-.185-2.522,2.01,2.01,0,0,1,1.5-.756,1.41,1.41,0,0,0,.435-.117,2.882,2.882,0,0,0,.294-.144,2.409,2.409,0,0,0,1.036-2.021s4.176-1.224,5.321,0a3.018,3.018,0,0,1,.4.544,6.045,6.045,0,0,1,.637,2.889s.212,1.33.544,2.845S867.2,636.6,867.2,636.6Z" transform="translate(-651.008 -490.162)"/><path class="i" d="M812.311,636.592a3.093,3.093,0,0,1,.506.743h0l-6.256.726a2.81,2.81,0,0,0,.432-1.472S811.168,635.368,812.311,636.592Z" transform="translate(-610.135 -495.191)"/><path class="i" d="M878.751,630.248v1.172c-.974,1.6-5.682,1.251-7.051.449a2.889,2.889,0,0,0,.294-.144,2.408,2.408,0,0,0,1.036-2.021s4.176-1.224,5.321,0a3.013,3.013,0,0,1,.4.544Z" transform="translate(-657.555 -490.177)"/><path class="e" d="M815.251,448.142a10.665,10.665,0,0,0-.743,1.6v4.2c-1.066,1.755-6.6,1.17-7.344.212s-1.529-3.449-.688-3.882,1.542-2.554,1.542-2.554-.906.212-2.342-1.491-1.009-5.479-.743-6.382a18.85,18.85,0,0,0,0-3.936,7.909,7.909,0,0,0-.37-2.821,35.108,35.108,0,0,1-1.33-4.624,3.131,3.131,0,0,0-.745-2.021c-.745-.691-1.224-3.406-1.224-3.406a3.49,3.49,0,0,1-.53-2.288,4.647,4.647,0,0,0-.906-2.766l-1.809-5.748-1.7-4.309-.957,2.5s-.272,5.851-.052,7.073.544,4.469.544,4.469a6.56,6.56,0,0,0-.585,3.936,26.864,26.864,0,0,1,.3,5.7s.479,8.03.052,8.669a5.193,5.193,0,0,0-.373,2.236s2.176,4.679,1.491,5.318-.479,2.394-.479,2.394,1.488,0,.851.639-1.118,3.991-1.118,3.991l-6.433.753a13.377,13.377,0,0,1-1.439-2.72c-.851-1.978.158-1.755,1.015-1.969s.316-.743-.7-1.382-.424-2.076-.424-2.076,1.542-2.606,1.009-2.818-.585-3.884-.585-3.884-1.064-4.352-.8-5.533-.851-3.988-.851-3.988l-.373-3.351a9.221,9.221,0,0,1-1.17-6.333v-5.168s-1.491-10-1.7-15.054c-.136-3.237-.1-7.655-.054-10.41.027-1.545.054-2.571.054-2.571l22.98-2.394a19.2,19.2,0,0,0,.416,3.414c.237,1.262.6,2.9,1.181,4.94a22.445,22.445,0,0,1,.639,10.212l-.215,7.4s2.021,4.945,1.6,6.648a14.182,14.182,0,0,0-.43,3.09s4.521,10.8,4.042,13.938,1.488,8.087,1.488,8.087S815.784,447.184,815.251,448.142Z" transform="translate(-593.312 -313.125)"/><path class="o" d="M852.05,510.2l7-.933S855.083,513.315,852.05,510.2Z" transform="translate(-643.25 -402.899)"/><path class="i" d="M870.636,484.14s.239,2.475-1.276,3.406C869.36,487.546,872.072,487.121,870.636,484.14Z" transform="translate(-655.852 -384.605)"/><path class="i" d="M850.338,455.2s-5.848,4.815-7.976,4.415S850.338,455.2,850.338,455.2Z" transform="translate(-635.984 -363.537)"/><path class="i" d="M807.918,521s-4.442,1.009-4.575,2.794S807.918,521,807.918,521Z" transform="translate(-607.79 -411.439)"/><path class="o" d="M810.881,602.56s-6.276,1.17-4.494,1.967a30.468,30.468,0,0,0,4.709,1.436S813.123,606.069,810.881,602.56Z" transform="translate(-609.777 -470.813)"/><g class="s" transform="translate(190.139 75.053)"><path d="M800.419,612.018a1.238,1.238,0,0,1-.574-.909l-.065.112s-.585,1.436.427,2.073c.114.073.226.147.326.218.188-.035.389-.063.582-.112C801.973,613.188,801.431,612.658,800.419,612.018Z" transform="translate(-795.215 -552.09)"/><path d="M831.514,609.968c.174-.158.169-.566.063-1.088a3.059,3.059,0,0,0-.356,1.54A1.328,1.328,0,0,1,831.514,609.968Z" transform="translate(-818.225 -550.466)"/><path d="M827.614,515.59a7.252,7.252,0,0,0-.424,1.956,7.883,7.883,0,0,1,.487-1.344Z" transform="translate(-815.291 -482.553)"/><path d="M881.277,503.772a2.491,2.491,0,0,0,.057-.582c-.079.4-.133.764-.174,1.088C881.2,504.112,881.233,503.954,881.277,503.772Z" transform="translate(-854.581 -473.526)"/><path d="M827.8,581.953a3.407,3.407,0,0,0,.158-1.183,4.018,4.018,0,0,0-.307,1.493A1.429,1.429,0,0,1,827.8,581.953Z" transform="translate(-815.626 -530.003)"/><path d="M808.532,622a21.114,21.114,0,0,0-.732,3.264l-6.433.743a13.377,13.377,0,0,1-1.439-2.72,4.916,4.916,0,0,1-.182-.468c-.386.177-.544.577-.033,1.744a13.6,13.6,0,0,0,1.442,2.72l6.433-.745s.479-3.351,1.115-3.991C809.03,622.239,808.828,622.079,808.532,622Z" transform="translate(-795.053 -560.018)"/><path d="M788.44,446.569s.052,3.67.585,3.882h0c.272-.607.449-1.183.209-1.279-.544-.212-.585-3.884-.585-3.884s-1.064-4.352-.8-5.533-.851-3.988-.851-3.988l-.373-3.351a9.222,9.222,0,0,1-1.17-6.333v-5.168s-1.491-10-1.7-15.054c-.136-3.237-.1-7.655-.054-10.41,0-.5.016-.938.024-1.311l-.182.019s-.03,1.023-.054,2.571c-.044,2.756-.084,7.173.054,10.407.212,5.054,1.7,15.056,1.7,15.056v5.168a9.227,9.227,0,0,0,1.172,6.33l.37,3.351s1.118,2.818.851,3.991S788.44,446.569,788.44,446.569Z" transform="translate(-783.448 -394.14)"/><path d="M868.018,624.7A6.22,6.22,0,0,1,867,622.17c-.656.593.1,2.894.816,3.808.743.958,6.276,1.542,7.345-.215v-1.012C873.708,626.174,868.719,625.6,868.018,624.7Z" transform="translate(-844.088 -560.141)"/><path d="M899.145,609.265a10.757,10.757,0,0,0-.745,1.6v.753a11.166,11.166,0,0,1,.544-1.066,3.263,3.263,0,0,0,.234-1.319S899.154,609.255,899.145,609.265Z" transform="translate(-867.131 -550.721)"/><path d="M864.465,591.411a10.521,10.521,0,0,0,.525-1.265s-.906.212-2.342-1.491c-1.045-1.238-1.1-3.577-.955-5.106-.272.906-.694,4.681.743,6.384A3.789,3.789,0,0,0,864.465,591.411Z" transform="translate(-840.209 -532.027)"/><path d="M837.276,490.771a28.355,28.355,0,0,1,.106,3.153,4.294,4.294,0,0,1,.109-.492,18.473,18.473,0,0,0,0-3.936,7.865,7.865,0,0,0-.373-2.821,34.347,34.347,0,0,1-1.317-4.63,3.131,3.131,0,0,0-.745-2.021c-.745-.691-1.224-3.406-1.224-3.406a3.5,3.5,0,0,1-.544-2.288,4.632,4.632,0,0,0-.9-2.766l-1.809-5.745-1.7-4.309-.96,2.5s0,.316-.033.816l.778-2.032,1.7,4.3,1.809,5.745a4.632,4.632,0,0,1,.9,2.766,3.5,3.5,0,0,0,.544,2.288s.479,2.72,1.224,3.406a3.114,3.114,0,0,1,.743,2.021,34.989,34.989,0,0,0,1.33,4.624A7.864,7.864,0,0,1,837.276,490.771Z" transform="translate(-815.794 -443.184)"/></g><path class="t" d="M864.849,195.87l-.4,1.942.024.865.016.637-2.22.229-.248-.46h0A20.605,20.605,0,0,0,860.3,196.3c-.411-.343-1.142-5.745-.272-5.424a2.32,2.32,0,0,1,1.235,1.118S865.635,192.492,864.849,195.87Z" transform="translate(-648.762 -171.103)"/><path class="i" d="M870.917,219.541l-2.22.228-.247-.46h0a1.956,1.956,0,0,1,2.448-.4Z" transform="translate(-655.189 -191.33)"/><path class="c" d="M871.135,221.133l-2.927.677-.062-.435-.166-1.172a2.014,2.014,0,0,1,2.834-.386l.147.6Z" transform="translate(-654.847 -191.869)"/><path class="t" d="M686.406,185.073l-3.125,1.676-.272-.588c-.3-.623-.74-1.561-.862-1.9-.185-.517-1.488-1.17-1.488-1.17-3.264-3.126.626-5.813.626-5.813,2.062-4.148,4.352,1.409,4.352,1.409s.321,2.93.1,3.126-.226,1-.226,1a12.279,12.279,0,0,1,.754,1.787C686.355,184.891,686.406,185.073,686.406,185.073Z" transform="translate(-517.531 -160.093)"/><path class="i" d="M696.188,208.738l-3.125,1.676-.272-.588c.441-.37,2-1.632,2.519-1.58a3.764,3.764,0,0,0,.74.019C696.136,208.556,696.188,208.738,696.188,208.738Z" transform="translate(-527.312 -183.759)"/><path class="c" d="M696.732,210.256l-3.512,1.73-.071-.753-.049-.522s2.035-1.744,2.636-1.676a3.2,3.2,0,0,0,.917,0l.041.631Z" transform="translate(-527.538 -184.333)"/><path class="t" d="M813.284,224.953s-15.309,1.727-12.448.8a3.826,3.826,0,0,0,2.949-3.319,7.973,7.973,0,0,0-.568-3.536,15.424,15.424,0,0,0-1.36-2.766s11.7-6.436,9.36-.585a9.434,9.434,0,0,0-.664,2.772,7.83,7.83,0,0,0,.3,2.807A8.359,8.359,0,0,0,813.284,224.953Z" transform="translate(-605.708 -187.284)"/><path class="i" d="M814.892,215.514a9.434,9.434,0,0,0-.664,2.772c-1.1.928-2.309.865-3.863.865-1.191,0-2.513.288-3.466-.286a15.424,15.424,0,0,0-1.36-2.766S817.234,209.663,814.892,215.514Z" transform="translate(-609.392 -187.262)"/><circle class="t" cx="6.33" cy="6.33" r="6.33" transform="translate(194.437 19.637)"/><path class="i" d="M813.284,244.67s-15.309,1.727-12.448.8a3.826,3.826,0,0,0,2.949-3.319,8.539,8.539,0,0,1,3.264-1.738,4.581,4.581,0,0,1,2.775-.046,3.944,3.944,0,0,1,1.009.468A8.359,8.359,0,0,0,813.284,244.67Z" transform="translate(-605.708 -207.001)"/><path class="i" d="M871.58,223.606l-2.927.677-.062-.435a2.59,2.59,0,0,1,2.815-.963Z" transform="translate(-655.291 -194.342)"/><path class="i" d="M696.863,211.943l-3.512,1.73-.071-.753a25.615,25.615,0,0,1,3.536-1.57Z" transform="translate(-527.669 -186.019)"/><path class="i" d="M807.051,389.384c-5.933.947-14.365,2.154-15.7,1.746-1.113-.337-4.66-.3-7.747-.2.027-1.545.054-2.571.054-2.571l22.98-2.394A19.2,19.2,0,0,0,807.051,389.384Z" transform="translate(-593.42 -313.139)"/><path class="p" d="M744.749,261.432s-19.523,3.351-21.617,2.72-12.853.052-12.853.052c-4.842,3.245-2.821-1.542-2.821-1.542a11.9,11.9,0,0,1,.161-4.521,27.623,27.623,0,0,0,.8-4.526s-.106-3.194.479-3.939,1.279-6.063,1.279-6.063.53-3.618.479-4.415.158-3.033.158-3.033l.694-3.724c-3.991-.53-16.12-7.978-16.12-7.978-.585-2.5-5.106-8.351-5.106-8.351a6.158,6.158,0,0,0-.373-1.436c-.318-.851,4.469-2.554,4.469-2.554s3.563,4.352,4.309,5.533a23.724,23.724,0,0,0,3.3,3.351,2.565,2.565,0,0,1,1.17.152l.063.019h0a9.482,9.482,0,0,1,2.38,1.36,4.624,4.624,0,0,1,3.245,1.224s2.176-.321,2.554.052,2.233,0,2.233,0,1.861-3.936,3.085-2.794,6.417,1.088,6.417,1.088a7.513,7.513,0,0,1,3.427-1.9,4.6,4.6,0,0,1,2.775-.046,3.519,3.519,0,0,1,1.088.544l3.158,3.085s.9-1.172.8-1.436,1.064-.479,1.064-.479,1.542-.479,2.127-.639,1.121.473,1.17.53a6.36,6.36,0,0,1-.272-2.339,2.764,2.764,0,0,0-.639-1.9c1.861-4.575,6.063-.745,6.063-.745s.479,2.5.054,3.457.424,2.979.318,3.512.215,1.436.215,2.448a14.955,14.955,0,0,1-.851,3.776c-.307.851-2.872,2.766-2.872,2.766a12.01,12.01,0,0,1-1.279,4.788c-1.118,1.755-.416,7.755-.416,7.755s1.064,4.681,2.394,6.172S744.749,261.432,744.749,261.432Z" transform="translate(-525.204 -186.58)"/><path class="i" d="M779.81,256.021s-.585-1.755-1.118-1.9a12.3,12.3,0,0,1-1.542-.691l.343-.656s2,.544,2.318,1.134A4.513,4.513,0,0,1,779.81,256.021Z" transform="translate(-588.725 -216.172)"/><path class="i" d="M734.662,246.73c-.106.544-4.842,1.009-4.842,1.009l2.394-2.4h0l.06.022h0a9.483,9.483,0,0,1,2.388,1.368Z" transform="translate(-554.269 -210.764)"/><circle class="u" cx="0.424" cy="0.424" r="0.424" transform="translate(166.269 28.241)"/><circle class="u" cx="0.424" cy="0.424" r="0.424" transform="translate(166.813 29.093)"/><circle class="u" cx="0.424" cy="0.424" r="0.424" transform="translate(167.347 29.879)"/><circle class="u" cx="0.424" cy="0.424" r="0.424" transform="translate(167.904 30.727)"/><circle class="u" cx="0.345" cy="0.345" r="0.345" transform="translate(218.127 30.76)"/><circle class="u" cx="0.345" cy="0.345" r="0.345" transform="translate(218.182 31.546)"/><circle class="u" cx="0.345" cy="0.345" r="0.345" transform="translate(218.228 32.33)"/><path class="i" d="M787,317.719c-.052-.063,11.942,15.081,21.25,6.33C808.258,324.052,793.55,326.046,787,317.719Z" transform="translate(-595.895 -263.454)"/><path class="i" d="M761.7,346.66s7.176.2,7.927,2.26v2.149a1.376,1.376,0,0,1-1.336,0c-.724-.392-5.062-2.6-6.591-1.534Z" transform="translate(-577.477 -284.522)"/><path class="p" d="M762.19,346.66s6.863.188,7.581,2.157v2.046a1.316,1.316,0,0,1-1.279,0c-.691-.37-4.839-2.473-6.3-1.461Z" transform="translate(-577.834 -284.522)"/><path class="i" d="M776.1,289.38a23.09,23.09,0,0,0,2.783,4.774,18.731,18.731,0,0,0,4.352,4.208S776.22,290.365,776.1,289.38Z" transform="translate(-587.96 -242.824)"/><path class="i" d="M767.47,258.73s1.2,5.168,4.282,6.923Z" transform="translate(-581.678 -220.511)"/><path class="i" d="M760.434,260.646c-.03-.1-1.064,4.08,3.977,6.4C764.411,267.046,762.27,266.32,760.434,260.646Z" transform="translate(-576.478 -221.905)"/><path class="i" d="M875.905,247.9a35.891,35.891,0,0,1,3.185,2.394S877.42,247.792,875.905,247.9Z" transform="translate(-660.615 -212.625)"/><path class="r" d="M802.141,196.544a1,1,0,0,0,1.088.987,12.657,12.657,0,0,0,5.712-.544,2.176,2.176,0,0,0,.87-.577,3.578,3.578,0,0,0,.506-1.4,20.367,20.367,0,0,1,1.167-2.688,9,9,0,0,0,.628-4.828,3.264,3.264,0,0,0-.484-1.412c-.511-.732-1.444-1.028-2.122-1.61s-1.113-1.472-1.9-1.9a3.656,3.656,0,0,0-2.388-.212,12.537,12.537,0,0,0-4.456,1.673,2.273,2.273,0,0,1-1.491.506,1.994,1.994,0,0,1-1.088-.841,5.893,5.893,0,0,0-.454,2.761,1.186,1.186,0,0,1-.014.416,1.251,1.251,0,0,1-.3.438,1.61,1.61,0,0,0-.3,1.988c.2.242.52.375.718.623.356.443.237,1.088.229,1.654a.851.851,0,0,0,.141.56.816.816,0,0,0,.781.188,2.124,2.124,0,0,1,.832-.079,1.4,1.4,0,0,1,.724.544A10.225,10.225,0,0,1,802.141,196.544Z" transform="translate(-603.085 -164.84)"/><g class="v" transform="translate(193.792 18.797)"><path d="M810.038,210.084a2.177,2.177,0,0,1-.87.577,12.838,12.838,0,0,1-5.712.544,1,1,0,0,1-1.091-.99,9.924,9.924,0,0,0-1.613-3.743,1.4,1.4,0,0,0-.724-.558,2.231,2.231,0,0,0-.832.079.816.816,0,0,1-.781-.185.851.851,0,0,1-.141-.56c0-.571.128-1.21-.229-1.654-.2-.248-.514-.381-.718-.626a1.24,1.24,0,0,1-.122-1.268,1.45,1.45,0,0,0-.09,1.695c.2.242.52.375.718.623.356.446.237,1.088.229,1.654a.846.846,0,0,0,.139.56.816.816,0,0,0,.783.188,2.125,2.125,0,0,1,.832-.079,1.4,1.4,0,0,1,.724.544,9.942,9.942,0,0,1,1.613,3.746,1.36,1.36,0,0,0,.471.862,1.319,1.319,0,0,0,.6.131,12.619,12.619,0,0,0,5.712-.544,2.154,2.154,0,0,0,.87-.577,1.664,1.664,0,0,0,.272-.511A.135.135,0,0,1,810.038,210.084Z" transform="translate(-796.877 -197.791)"/><path d="M799.952,190.4a.931.931,0,0,0,.193-.321,1.186,1.186,0,0,0,0-.416,5.9,5.9,0,0,1,.3-2.29l-.035-.041a5.849,5.849,0,0,0-.454,2.758,1.97,1.97,0,0,1,0,.31Z" transform="translate(-799.103 -187.33)"/></g><path class="i" d="M812.08,248.509s7.908,1.05,8.618-.139" transform="translate(-614.153 -212.969)"/><path class="i" d="M868.59,236.85s4.4,0,5.361,1.654" transform="translate(-655.291 -204.583)"/><path class="p" d="M943.443,766.815a6.971,6.971,0,0,1-4.747,1.774c-.446,0-1.064.084-1.066.53a.747.747,0,0,0,.131.365,4.366,4.366,0,0,0,2.448,1.923,8.653,8.653,0,0,0,2.962.188l2.9-.15c.544-.03,1.088-.057,1.632-.125s1.137-.18,1.706-.272a22.3,22.3,0,0,1,4.219-.2,1.277,1.277,0,0,0,1.039-.272c.223-.272.109-.792.024-1.2-.174-.841,0-1.722-.16-2.565a4.5,4.5,0,0,0-2.957-3.15c-1.306-.5-3.618-1.064-4.853-.237C945.415,764.3,944.618,765.746,943.443,766.815Z" transform="translate(-705.551 -587.616)"/><path class="e" d="M954.012,578.577c.256,1.216,1.434,2.146,1.466,3.387a5.291,5.291,0,0,1-1.191,2.682,17.893,17.893,0,0,0-1.216,2.753,42.051,42.051,0,0,1-3.569,7.1c-.68,1.088-1.442,2.25-1.287,3.515a5.266,5.266,0,0,0,.617,1.681l2.04,4.053a11.735,11.735,0,0,1,1.042,2.56c.177.77.193,1.567.3,2.35.321,2.486,1.488,4.989.8,7.4-.06.207-.272.457-.438.313a7.752,7.752,0,0,1,1.164,3.955,5.513,5.513,0,0,0,.019,2.225,2.437,2.437,0,0,1,.318.876,5.594,5.594,0,0,1-.117.6,1.326,1.326,0,0,0,1.017,1.235c.547.182,1.142.169,1.695.335a10.4,10.4,0,0,1,2.72,1.866,5.792,5.792,0,0,0,3.134,1.02.789.789,0,0,0,.462-.093.748.748,0,0,0,.256-.56,3.112,3.112,0,0,0-1.121-2.7,1.224,1.224,0,0,1-.416-.435,1.05,1.05,0,0,1-.038-.487,36.659,36.659,0,0,0-.12-6.692,10.162,10.162,0,0,1-.106-2.13,8.708,8.708,0,0,0,.171-1.771,9.406,9.406,0,0,0-.544-1.7,12.233,12.233,0,0,1-.272-3.158,27.7,27.7,0,0,0-.895-5.44,4.115,4.115,0,0,0-.846-1.964c-.424-.443-1.11-.868-.949-1.458a1.727,1.727,0,0,1,.389-.579,2.326,2.326,0,0,0,.484-1.774.8.8,0,0,0,.917-.43,14.342,14.342,0,0,0,7.176-8.161,2.693,2.693,0,0,1,.321-.729,3.285,3.285,0,0,1,1.314-.851,9.979,9.979,0,0,0,3.452-3.52,6.222,6.222,0,0,0,1.515-4.393l.084-3.2a1.726,1.726,0,0,0-.06-.626,1.564,1.564,0,0,0-.345-.506,6.144,6.144,0,0,0-3.389-1.828c-.87-.155-1.76-.125-2.641-.2-1.708-.141-3.395-.672-5.1-.544a8.167,8.167,0,0,0-6.341,4.437C955.432,577.832,954.964,578.561,954.012,578.577Z" transform="translate(-713.242 -448.957)"/><path class="w" d="M906.841,499.45a3.572,3.572,0,0,1-.2,1.455,1.017,1.017,0,0,1-1.194.612c.139-.313-.229-.669-.571-.631a1.069,1.069,0,0,0-.753.647,2.407,2.407,0,0,0-.218,1.477,5.993,5.993,0,0,1,.375,1.855c-.076.522-.46,1.042-.256,1.526a2.474,2.474,0,0,0,.492.59,1.665,1.665,0,0,1-.177,2.285l5.147.1a3.634,3.634,0,0,0,.639,2.5,15.777,15.777,0,0,0,11.762,7.679,1.023,1.023,0,0,0-.247,1.564,1.453,1.453,0,0,0,1.654.1,11.773,11.773,0,0,0,1.415-1.061,4.352,4.352,0,0,1,2.908-.783c.645.063,1.27.272,1.918.3,1.9.1,3.536-1.27,5.37-1.831,1.336-.411,2.851-.411,3.971-1.246a1.583,1.583,0,0,0,.74-1.531,2.559,2.559,0,0,0-.544-.9,15.556,15.556,0,0,1-1.488-2.788,16.678,16.678,0,0,0-3.719-4.983,33.266,33.266,0,0,0-3.689-2.8,6.288,6.288,0,0,0-1-.6,11.156,11.156,0,0,1-1.36-.544,7.248,7.248,0,0,1-1.417-1.594c-1.02-1.191-2.587-1.738-3.844-2.674a9.116,9.116,0,0,0-2.6-1.757c-.49-.15-1.009-.161-1.5-.307-1.113-.337-1.923-1.325-3.014-1.725a12.094,12.094,0,0,0-2.72-.345,6.368,6.368,0,0,1-2.843-1.083,3.374,3.374,0,0,0-.906-.528c-1.379-.419-1.491,2.149-1.632,3.038A29.31,29.31,0,0,0,906.841,499.45Z" transform="translate(-680.977 -390.612)"/><path class="n" d="M868.7,538.781c.231,2.508-1.662,4.937-1.11,7.393.117.522.343,1.02.424,1.551.231,1.455-.639,2.834-1.469,4.053l-7.127,10.459a6.579,6.579,0,0,1-1.017,1.257c-1.36,1.211-3.406,1.088-5.2,1.447a8.978,8.978,0,0,0-3.482,1.54.226.226,0,0,0-.043.313,2.992,2.992,0,0,0,2.587,1.216c.188.245,0,.609-.258.786-.381.272-.909.335-.985.985a1.088,1.088,0,0,0,.131.653,2.032,2.032,0,0,0,1.246.865c2.467.756,5.133-.571,6.98-2.375s3.172-4.08,4.983-5.914c1-1.017,2.144-1.885,3.177-2.87a36.346,36.346,0,0,0,5.212-6.743,7.463,7.463,0,0,0,1.129-2.3c.193-.835.1-1.681.324-2.489a9.146,9.146,0,0,1,1.708-2.791,9.229,9.229,0,0,0,1.942-6.017,5.767,5.767,0,0,0-3.52-4.992,3.164,3.164,0,0,0-1.972-.12,4.672,4.672,0,0,0-2.008,1.6L869,537.853a3.642,3.642,0,0,0-.764,1.2,1.254,1.254,0,0,0,.272,1.333" transform="translate(-641.494 -421.33)"/><path class="x" d="M920.667,511.936a3.9,3.9,0,0,0-2.628.816,3.739,3.739,0,0,0-.664,1.039,10.348,10.348,0,0,0-1.314,4.135,18.917,18.917,0,0,0,.476,3.455,13.21,13.21,0,0,1-.3,2.9,20.144,20.144,0,0,0,3.748-1.442,12.55,12.55,0,0,1,2.2-1.14c1.118-.373,2.992.272,4.056.789.057-.745-.5-2.046-.443-2.794a3.12,3.12,0,0,1,.166-.925,5.613,5.613,0,0,1,.563-.895,3.661,3.661,0,0,0-.329-4.29,5.974,5.974,0,0,0-3.83-1.632,16.566,16.566,0,0,0-2.674-.092" transform="translate(-689.848 -404.774)"/></g></svg>