<svg xmlns="http://www.w3.org/2000/svg" xmlns:xlink="http://www.w3.org/1999/xlink" width="298.915" height="172.252" viewBox="0 0 298.915 172.252"><defs><style>.a{opacity:0.5;fill:url(#a);}.b{fill:#74e58e;}.c,.l,.o,.v{fill:none;}.c,.l{stroke:#535461;stroke-miterlimit:10;}.d{fill:#2cb44b;}.e{fill:url(#b);}.f{fill:#535461;}.g,.p{fill:#fff;}.h{fill:url(#c);}.i{fill:#4d4981;}.j{opacity:0.1;}.k{fill:#fd6f8d;}.l{stroke-width:2px;}.m{fill:#6c63ff;}.n{fill:#eff7ff;}.n,.o,.p{stroke:#3997ff;}.q{fill:#fec3be;}.r{fill:#8b416f;}.s{opacity:0.05;}.t{fill:#784f69;}.u{stroke:none;}</style><linearGradient id="a" x1="0.5" x2="0.5" y2="1" gradientUnits="objectBoundingBox"><stop offset="0" stop-color="#71b4ff"/><stop offset="1" stop-color="#77a4ff"/></linearGradient><linearGradient id="b" x1="0.5" y1="1" x2="0.5" gradientUnits="objectBoundingBox"><stop offset="0" stop-color="gray" stop-opacity="0.251"/><stop offset="0.54" stop-color="gray" stop-opacity="0.122"/><stop offset="1" stop-color="gray" stop-opacity="0.102"/></linearGradient><linearGradient id="c" y1="1" y2="0" xlink:href="#b"/></defs><g transform="translate(-1536.99 -510.753)"><path class="a" d="M201.637,519.095c-18.073-6.245-38.736-11.53-55.621-2.557a12.493,12.493,0,0,0-5.4,4.7c-3.046,5.605,1.8,12.875-.564,18.8s-11.239,8.908-10.512,15.237a8.833,8.833,0,0,0,2.143,4.443c6.614,8.081,18.74,8.9,28.989,6.893s20.272-6.163,30.706-5.64c10.026.517,19.251,5.327,28.437,9.375,15.488,6.843,33.576,11.753,49.051,4.875,7.091-3.152,12.953-8.519,19.739-12.267a48.584,48.584,0,0,1,29.985-5.5c6.893.971,13.473,3.415,20.219,5.1,15.322,3.826,31.314,3.7,47.1,3.55a31.56,31.56,0,0,0,8.742-.9c4.17-1.253,7.611-4.139,10.922-6.962,4.352-3.707,8.936-7.78,10.34-13.323,1.658-6.58-1.773-13.573-6.862-18.044s-11.593-6.915-17.941-9.271c-1.567-.577-3.24-1.162-4.844-.727a6.607,6.607,0,0,0-2.726,1.745c-4.506,4.336-8.312,11.671-14.457,10.493-2.193-.42-3.989-1.946-5.724-3.356-9.268-7.52-21.735-13.326-32.921-9.171-8.181,3.039-13.955,10.844-22.246,13.6-5.9,1.961-12.3,1.112-18.508,1.495-9.024.551-17.806,3.741-26.842,3.547C239.8,534.73,220.6,512.7,197.654,514.8c-1.8.163-3.76.577-4.863,2" transform="translate(1409.529 104.47)"/><path class="b" d="M255.641,464.706s-19.147,11.559,16.161,29.362c0,0,7.78-14.444-.821-26.222a11.593,11.593,0,0,0-15.04-3.3Z" transform="translate(1326.467 137.901)"/><path class="c" d="M267.73,467.52s16.393,12.533,15.936,29.593" transform="translate(1314.606 134.846)"/><path class="d" d="M925.135,393.282c3.879,14.184-12.668,54.594-12.668,54.594s-34.817-26.36-38.7-40.544a26.633,26.633,0,1,1,51.363-14.053Z" transform="translate(899.219 199.697)"/><path class="c" d="M936.21,378.27s21.673,32.717,20.053,73.249" transform="translate(855.577 196.132)"/><path class="b" d="M1019.707,517.407s-19.652-10.691-17.164,28.773c0,0,16.393-.586,22.212-13.959a11.593,11.593,0,0,0-4.759-14.648Z" transform="translate(810.177 101.496)"/><path class="c" d="M1020.507,520.52s-2.538,20.485-17.487,28.7" transform="translate(809.7 98.452)"/><path class="b" d="M128.191,502.648S109.034,514.2,144.346,532c0,0,7.78-14.444-.821-26.222a11.593,11.593,0,0,0-15.04-3.3Z" transform="translate(1413.987 111.856)"/><path class="c" d="M140.26,505.49s16.393,12.533,15.936,29.594" transform="translate(1402.137 108.773)"/><path class="e" d="M440.757,332.034H420.626a6.711,6.711,0,0,0,.7-3V237.37a6.74,6.74,0,0,0-6.74-6.74H258.763a6.74,6.74,0,0,0-6.74,6.74v91.669a6.711,6.711,0,0,0,.7,3H231.883a1.783,1.783,0,0,0-1.783,1.792v1.438a9.97,9.97,0,0,0,9.97,9.97h192.5a9.97,9.97,0,0,0,9.97-9.97V333.83a1.783,1.783,0,0,0-1.783-1.8Zm-124.042,5.7-1.736-1.958h42.856l-1.911,1.961Z" transform="translate(1340.446 297.512)"/><rect class="f" width="165.473" height="102.767" rx="5" transform="translate(1594.377 529.44)"/><rect class="g" width="158.157" height="83.955" transform="translate(1597.861 544.42)"/><circle class="g" cx="1.394" cy="1.394" r="1.394" transform="translate(1675.547 535.709)"/><path class="f" d="M366.186,551.08l-5.433,5.574H322.446l-4.91-5.574H239.522a1.742,1.742,0,0,0-1.742,1.742v1.4a9.744,9.744,0,0,0,9.744,9.744H435.663a9.744,9.744,0,0,0,9.744-9.744v-1.4a1.742,1.742,0,0,0-1.742-1.742Z" transform="translate(1335.172 77.467)"/><path class="h" d="M833.9,295.976a12.22,12.22,0,0,0-4.7-.739,23.929,23.929,0,0,1-7.128-3.923,51.424,51.424,0,0,0-.153-6.022C820.735,271.859,823.392,263,823.392,263s2.087-6.755,1.858-12.361c.135.254.21.4.21.4a41.619,41.619,0,0,1,3.064-12.956,1.036,1.036,0,0,0,.138-.05l1.379-3.271a2.843,2.843,0,0,0,.26-.6l.222-.517-.066-.028c.022-.085.044-.175.066-.266h0a122.958,122.958,0,0,0,1.567-12.561,16.355,16.355,0,0,0-3.246-15.04l-9.519-8.19a1.209,1.209,0,0,1,.094.335l-.078-.069c-.135-.385-.282-.846-.426-1.372a8.049,8.049,0,0,0,3.074-4.612,14.442,14.442,0,0,0,.141-3.447l-.157-3.951a12.533,12.533,0,0,0-.235-2.3c-.717-3.133-3.929-5.327-7.153-5.471a26.148,26.148,0,0,0-3.071.163,20.654,20.654,0,0,1-2.507.053.451.451,0,0,1-.269-.072.4.4,0,0,1-.116-.273,1.36,1.36,0,0,1,.332-1.018,1.254,1.254,0,0,1,.432-.248l-.229.053a1.253,1.253,0,0,1,.376-.2,7.3,7.3,0,0,0-2.375.862,3.066,3.066,0,0,0-.555.467,2.422,2.422,0,0,0-.8,1.491,2.776,2.776,0,0,1-.846-1.253,1.254,1.254,0,0,1,0-.608q-.085.1-.163.213v-.066a6.335,6.335,0,0,0-1.253,2.55.993.993,0,0,1-.226-.733q-.071.221-.132.442a1.024,1.024,0,0,1,0-.295,10.092,10.092,0,0,0-.492,3.5c0,1.184.526,3.03,1.8,3.447.066.022.132.038.2.053a7.968,7.968,0,0,0,5.373,12.17q.031.216.06.454h.05c.034.313.063.658.081,1.009a6.8,6.8,0,0,1-1.047.84,8.63,8.63,0,0,1-3.484,1.153,10.371,10.371,0,0,0-4.189,1.253c-1.52.849-3.2,2.087-3.722,3.591-.877,2.507-5.709,6.407-8.948,6.893l-1.153-.066-.085-.025v.022l-.282-.016h-.091v.016l-.291-.016s-.028.135-.069.373c-1.629-.561-5.091-2.115-9.6-6.2-5.013-4.553-11.8-3.656-14.413-3.083a.448.448,0,0,0-.119.83,14.548,14.548,0,0,0,3.447,1.516s-1.567,1.639.1,2.507a1.209,1.209,0,0,0,1.253-.122c.808-.592,3.055.749,6.31,1.448,0,0,9.187,9.506,13.749,10.966a6.569,6.569,0,0,0,.348.6l.282-.022v.022h.119l.034.313s7.094-.373,9.4-2.948a3.7,3.7,0,0,0,.448-.479l-2.466,31.019h.022l-.022.295H797.6a68.379,68.379,0,0,1-.492,11.424v20.222s-.094,1.78,3.6,4.387a138.2,138.2,0,0,1,11.192,8.676l.448.388c-.68,6.188-2.1,17.722-3.29,18.151l.733.128c-1.253,1.589-4.813,5.953-5.9,6.069-1.329.147-2.215,2.215,0,2.657a24.818,24.818,0,0,0,13.16-1.3,2.008,2.008,0,0,0,1.253-2.137l-.429-3.259a.457.457,0,0,1,.188.2c.295.887,0-1.181,0-1.181a92.344,92.344,0,0,0,2.854-11.906l4.387,3.791s.088-.11.241-.313c1.075,2.438,2.992,7.426,2.563,11.079-.589,5.013,5.013.589,4.427-2.362-.476-2.388,1.654-12.508,2.485-16.293A1.683,1.683,0,0,0,833.9,295.976Z" transform="translate(974.84 335.623)"/><path class="i" d="M877.306,393.78l-4.7.627a68.783,68.783,0,0,1-.056,16.522v19.739s-.091,1.739,3.519,4.267A134.944,134.944,0,0,1,887,443.395l13.078,11.33s5.189-6.342,4.468-10.089c0,0-8.648-2.738-9.8-7.206-.661-2.557-4.014-4.7-6.758-6.047a8.4,8.4,0,0,1-4.5-9.538,7.347,7.347,0,0,1,.736-1.852c2.306-4.036,5.621-13.116,5.621-13.116L883.5,394.789Z" transform="translate(899.291 185.481)"/><path class="j" d="M865.234,254.87a7.025,7.025,0,0,1-4.164,1.977,10.128,10.128,0,0,0-4.092,1.216c-1.482.83-3.133,2.037-3.635,3.506-1.009,2.883-7.351,7.639-10.233,6.63l1.009,8.648s8.215-.432,9.657-3.6L851.328,304.1h2.162s1.153-8.359,2.018-10.089,2.594-11.242,2.738-13.548,2.306-15.566,4.18-17.859l2.82-6.846Z" transform="translate(919.507 280.867)"/><path class="j" d="M864.609,256.25a8.921,8.921,0,0,1-4.452,1.833,10.13,10.13,0,0,0-4.089,1.222c-1.482.83-3.133,2.037-3.635,3.506-1.009,2.883-7.351,7.639-10.233,6.63l1.009,8.648s8.215-.432,9.657-3.6l-2.45,30.84h2.162s1.153-8.359,2.018-10.089,2.594-11.242,2.738-13.548,2.306-15.566,4.18-17.859l3.1-6.718Z" transform="translate(920.131 279.92)"/><path class="j" d="M919.965,229.249c-.188-1.366.188-2.218.36-3.819l-8.215,6.2s.2.837.348,2.062a7.834,7.834,0,0,0,1.253.1C916.562,233.789,918.615,231.562,919.965,229.249Z" transform="translate(872.126 301.083)"/><path class="j" d="M890.044,187.8a9.85,9.85,0,0,1,.627-3.851.962.962,0,0,0,.163,1.253,6.166,6.166,0,0,1,1.955-3.465,1.059,1.059,0,0,0-.7,1.322,3.008,3.008,0,0,0,.962,1.354,2.418,2.418,0,0,1,1.188-2.046,7.126,7.126,0,0,1,2.319-.84,1.344,1.344,0,0,0-.89,1.379.385.385,0,0,0,.116.266.442.442,0,0,0,.263.069,20.168,20.168,0,0,0,2.435-.053,25.534,25.534,0,0,1,3-.16c3.133.132,6.282,2.272,6.984,5.327a12.243,12.243,0,0,1,.229,2.25l.154,3.857a14.093,14.093,0,0,1-.138,3.371,7.144,7.144,0,0,1-3.669,4.85c-1.131-1.639-1.231-3.744-1.623-5.7a2.883,2.883,0,0,0-.489-1.253,1.1,1.1,0,0,0-1.206-.407.693.693,0,0,0-.254,1.1c-.313.37-.9.094-1.253-.235a6.73,6.73,0,0,1-1.952-3.487c-.141-.671-.282-1.5-.94-1.726a1.748,1.748,0,0,0-.7-.047c-1.372.094-3.519.661-4.847.226C890.558,190.764,890.044,188.959,890.044,187.8Z" transform="translate(887.283 331.228)"/><path class="j" d="M840.327,297.42s-1.153,5.327,1.009,8.648l1.225-.1-.667-8.46Z" transform="translate(921.629 251.649)"/><path class="k" d="M841.327,297.42s-1.153,5.327,1.009,8.648l1.225-.1-.667-8.46Z" transform="translate(920.942 251.649)"/><path class="j" d="M918.9,251l9.3,8a16.013,16.013,0,0,1,3.171,14.7s-1.009,13.26-2.162,13.836c0,0-4.036,8.071-4.324,15.71,0,0-5.4-10.882-7.855-4.252a11.424,11.424,0,0,1-8.146,7.567l3.171-39.216S920.053,253.438,918.9,251Z" transform="translate(874.344 283.525)"/><path class="j" d="M948.22,356.45s5.1,5.728,7.091,4.81l1.842-4.289L950.238,354Z" transform="translate(847.33 212.797)"/><path class="j" d="M934.376,402.51s2.428,4.976,3.722,5.264l-1.88,2.162-2.738-5.189Z" transform="translate(857.452 179.487)"/><path class="i" d="M933.9,403s2.428,4.976,3.722,5.264l-1.88,2.162-2.745-5.2Z" transform="translate(857.781 179.15)"/><path class="j" d="M948.625,304.78s.288,10.377-.865,14.269" transform="translate(847.646 246.595)"/><path class="j" d="M876,306.8s1.73-.577,1.73-2.018" transform="translate(896.922 246.595)"/><path class="l" d="M195.487,316.76a58.145,58.145,0,0,0-2.82,37.107c5.4,20.112,3.682,44.179-1.7,50.132" transform="translate(1367.411 238.369)"/><circle class="m" cx="2.265" cy="2.265" r="2.265" transform="translate(1560.632 552.867)"/><path class="l" d="M194.79,348.217s8.516,1.535,10.781-1.567" transform="translate(1364.692 217.844)"/><path class="l" d="M181.576,347.528s-5.123-5.668-4.841-9.068" transform="translate(1377.098 223.468)"/><path class="l" d="M190.82,383.373s4.659,1.228,8.911-7.833" transform="translate(1367.418 198.006)"/><path class="l" d="M172.218,397.743s-11.593-7.46-10.18-12.273" transform="translate(1387.264 191.187)"/><path class="l" d="M200.57,420.557s8.121-7.206,7.272-14.3" transform="translate(1360.723 176.911)"/><path class="l" d="M181.4,451.65s-10.34-2.889-10.026-7.42" transform="translate(1380.776 150.838)"/><path class="l" d="M205.69,465.713s6.514-6.035,7.363-9.713" transform="translate(1357.208 142.756)"/><path class="l" d="M191.868,493.965s-6.683-7.8-6.968-11.765" transform="translate(1371.483 124.765)"/><path class="l" d="M207.14,513.463s7.479-8.309,8.043-12.273" transform="translate(1356.212 111.725)"/><circle class="m" cx="2.265" cy="2.265" r="2.265" transform="translate(1551.568 560.23)"/><circle class="m" cx="2.265" cy="2.265" r="2.265" transform="translate(1549.021 592.803)"/><circle class="m" cx="2.265" cy="2.265" r="2.265" transform="translate(1547.037 574.392)"/><circle class="m" cx="2.265" cy="2.265" r="2.265" transform="translate(1567.999 562.213)"/><circle class="m" cx="2.265" cy="2.265" r="2.265" transform="translate(1567.999 597.052)"/><circle class="m" cx="2.265" cy="2.265" r="2.265" transform="translate(1564.317 571.278)"/><circle class="m" cx="2.265" cy="2.265" r="2.265" transform="translate(1568.848 612.066)"/><circle class="m" cx="2.265" cy="2.265" r="2.265" transform="translate(1553.551 606.116)"/><circle class="m" cx="2.265" cy="2.265" r="2.265" transform="translate(1566.582 580.906)"/><g class="n" transform="translate(1609 565)"><rect class="u" width="137" height="43" rx="4"/><rect class="v" x="0.5" y="0.5" width="136" height="42" rx="3.5"/></g><line class="o" y1="10" x2="10" transform="translate(1609.5 565.5)"/><line class="o" y1="19" x2="18" transform="translate(1609.5 565.5)"/><line class="o" x2="27" transform="translate(1708.5 575.5)"/><line class="o" x2="111" transform="translate(1624.5 582.5)"/><line class="o" x2="33" transform="translate(1624.5 590.5)"/><line class="o" x2="24" transform="translate(1624.5 598.5)"/><g class="p" transform="translate(1702 588)"><rect class="u" width="34" height="8"/><rect class="v" x="0.5" y="0.5" width="33" height="7"/></g><path class="q" d="M789.673,277.971s-4.18-.721-10.377-6.342c-4.9-4.446-11.518-3.572-14.068-3.011a.436.436,0,0,0-.116.808,14.247,14.247,0,0,0,3.378,1.482s-1.545,1.6.1,2.453a1.181,1.181,0,0,0,1.234-.119c.79-.577,2.983.733,6.163,1.413,0,0,12.4,12.827,15.278,10.653Z" transform="translate(973.223 271.747)"/><path class="q" d="M912.11,230.248s1.153,4.9,0,8.359l5.189.721,4.612-2.306v-3.027a20.785,20.785,0,0,1-1.585-9.945Z" transform="translate(872.126 302.031)"/><path class="r" d="M959,563.929s3.76,7.351,3.171,12.251,4.9.577,4.324-2.306c-.467-2.331,1.614-12.22,2.425-15.9a1.642,1.642,0,0,0-1.09-1.914c-1.733-.57-4.634-1.269-6.091-.2C959.586,557.443,959,563.929,959,563.929Z" transform="translate(839.928 74.567)"/><path class="r" d="M897.022,607.642s-4.9,6.342-6.2,6.486-2.162,2.162,0,2.594a24.233,24.233,0,0,0,12.846-1.253,1.962,1.962,0,0,0,1.231-2.087l-.827-6.172Z" transform="translate(887.647 38.924)"/><path class="s" d="M877.306,393.78l-4.7.627a68.783,68.783,0,0,1-.056,16.522v19.739s-.091,1.739,3.519,4.267A134.944,134.944,0,0,1,887,443.395l13.078,11.33s5.189-6.342,4.468-10.089c0,0-8.648-2.738-9.8-7.206-.661-2.557-4.014-4.7-6.758-6.047a8.4,8.4,0,0,1-4.5-9.538,7.347,7.347,0,0,1,.736-1.852c2.306-4.036,5.621-13.116,5.621-13.116L883.5,394.789Z" transform="translate(899.291 185.481)"/><path class="i" d="M899.73,461.646s8.5,1.441,8.792,2.306,0-1.153,0-1.153,4.9-14.845,3.76-27.958,1.441-21.763,1.441-21.763,3.027-9.8,1.3-15.422-19.89-3.171-19.89-3.171,6.342,14.845,6.2,21.908c0,0,.721,21.331,2.018,23.781C903.333,440.162,901.315,461.06,899.73,461.646Z" transform="translate(883.786 185.362)"/><path class="g" d="M884.913,255.79s.865,5.327,9.513,3.027l-5.753,43.812s-16.719.577-16.575-1.441l3.447-26.517Z" transform="translate(899.602 280.236)"/><path class="k" d="M864.6,255.33a8.92,8.92,0,0,1-4.452,1.833,10.13,10.13,0,0,0-4.092,1.216c-1.482.83-3.133,2.037-3.634,3.506-1.009,2.883-7.351,7.639-10.233,6.63l1.009,8.648s8.215-.432,9.657-3.6l-2.447,30.859h2.162s1.153-8.359,2.018-10.089,2.594-11.242,2.739-13.548,2.306-15.566,4.18-17.86l3.1-6.7Z" transform="translate(920.138 280.552)"/><circle class="q" cx="7.783" cy="7.783" r="7.783" transform="translate(1778.039 518.877)"/><path class="t" d="M890.5,187.343a9.851,9.851,0,0,1,.627-3.851.962.962,0,0,0,.163,1.253,6.167,6.167,0,0,1,1.955-3.465,1.06,1.06,0,0,0-.7,1.322,3.009,3.009,0,0,0,.962,1.354,2.418,2.418,0,0,1,1.188-2.046,7.124,7.124,0,0,1,2.319-.84,1.344,1.344,0,0,0-.89,1.379.385.385,0,0,0,.116.266.441.441,0,0,0,.263.069,20.172,20.172,0,0,0,2.435-.053,25.534,25.534,0,0,1,3-.16c3.133.132,6.282,2.272,6.984,5.327a12.249,12.249,0,0,1,.229,2.25L909.3,194a14.1,14.1,0,0,1-.138,3.371,7.144,7.144,0,0,1-3.669,4.85c-1.131-1.639-1.231-3.744-1.623-5.7a2.883,2.883,0,0,0-.489-1.253,1.1,1.1,0,0,0-1.206-.407.693.693,0,0,0-.254,1.1c-.313.37-.9.094-1.253-.235a6.731,6.731,0,0,1-1.952-3.487c-.141-.671-.282-1.5-.94-1.726a1.749,1.749,0,0,0-.7-.047c-1.372.094-3.519.661-4.847.226C891.018,190.3,890.5,188.5,890.5,187.343Z" transform="translate(886.967 331.544)"/><path class="k" d="M919.82,251l9.3,8a16.013,16.013,0,0,1,3.171,14.7s-1.009,13.26-2.162,13.836c0,0-4.036,8.071-4.324,15.71,0,0-5.693-11.458-8.146-4.828a13.04,13.04,0,0,1-7.855,8.146l3.171-39.2S920.973,253.438,919.82,251Z" transform="translate(873.712 283.525)"/><path class="q" d="M941.61,358.208s2.306-1.585,6.053,2.738l-9.224,16.719-3.1-4.678S941.9,360.082,941.61,358.208Z" transform="translate(856.174 210.102)"/><path class="k" d="M948.22,355.53s5.1,5.728,7.091,4.81l1.842-4.289-6.915-2.97Z" transform="translate(847.33 213.429)"/></g></svg>