<svg xmlns="http://www.w3.org/2000/svg" xmlns:xlink="http://www.w3.org/1999/xlink" width="93" height="93" viewBox="0 0 93 93"><defs><style>.a{fill:url(#a);}.b{fill:#f5f5ff;}</style><linearGradient id="a" x1="0.5" x2="0.5" y2="1" gradientUnits="objectBoundingBox"><stop offset="0" stop-color="#bedeff"/><stop offset="1" stop-color="#65aeff"/></linearGradient></defs><g transform="translate(-1383 732)"><rect class="a" width="93" height="93" transform="translate(1383 -732)"/><path class="b" d="M0,77v-.221L20.97,65.756l1.022-3.173c.306-1.063.79-2.127,1.786-2.406a1.515,1.515,0,0,0,.768-1.063l.591-6.171a1.914,1.914,0,0,0-.461-1.336,13.66,13.66,0,0,1-3.01-7.031A34.675,34.675,0,0,0,20.4,40.668l-1.419-7.379c-.148-.969-.12-1.716.97-2.091.3-.1.562-.728.562-1.341L20.5,15.934a10.345,10.345,0,0,1,4.572-7.789C27.993,5.959,39.6,1.746,43.964.151c1.168-.427,1.222.151,1.054.483-2.842,5.651,5.866,4.045,10.729,7.51a10.288,10.288,0,0,1,4.572,7.789L60.3,29.857c0,.742.262,1.237.562,1.341,1.089.375,1.118,1.122.97,2.091l-1.418,7.379a34.437,34.437,0,0,0-1.262,3.908,13.659,13.659,0,0,1-3.01,7.031,1.915,1.915,0,0,0-.461,1.336l.591,6.171a1.514,1.514,0,0,0,.768,1.063c1,.279,1.48,1.343,1.786,2.406l1.022,3.173L81,76.874V77Z" transform="translate(1389 -716)"/></g></svg>